<svg width="604" height="506" viewBox="0 0 604 506" fill="none" xmlns="http://www.w3.org/2000/svg">
<path d="M260.129 11.4875C260.096 11.4291 260.067 11.368 260.042 11.3063L260.082 11.266C260.103 11.3385 260.119 11.4123 260.129 11.4875Z" fill="#5F62E2"/>
<path d="M260.29 12.2934C260.228 12.074 260.183 11.8491 260.156 11.6223C260.266 11.8283 260.312 12.0612 260.29 12.2934Z" fill="#5F62E2"/>
<path d="M290.437 243.377C290.269 243.76 290.128 244.136 289.96 244.531C277.571 274.698 268.928 310.79 266.921 353.983C232.526 269.732 175.469 228.948 124.645 209.365C125.558 181.212 129.471 132.255 145.45 102.175C145.45 102.175 172.509 108.504 206.568 135.187C233.439 156.24 264.706 190.004 290.437 243.377Z" fill="#5F62E2"/>
<path d="M295.51 242.922L294.349 242.66C294.517 242.258 294.665 241.875 294.826 241.486C295.054 241.956 295.289 242.486 295.51 242.922Z" fill="#5F62E2"/>
<path d="M295.51 242.922L294.349 242.66C294.517 242.258 294.665 241.875 294.826 241.486C295.054 241.956 295.289 242.486 295.51 242.922Z" fill="#5F62E2"/>
<path d="M273.27 436.307C272.941 436.307 272.599 436.307 272.277 436.307C143.947 436.307 37.6427 339.056 18.5964 212.001C17.3146 201.156 17.12 194.68 17.12 194.68C17.12 194.68 63.4268 189.982 117.116 211.115C164.731 229.86 218.165 268.885 250.371 349.499V349.559C250.566 350.042 250.761 350.519 250.935 351.022C260.559 375.417 268.223 403.597 273.23 436.126C273.25 436.186 273.27 436.246 273.27 436.307Z" fill="#5F62E2"/>
<path d="M572.001 198.574C559.74 342.48 443 455.475 300.658 456.052C300.738 449.516 302.785 375.646 347.374 308.676C367.304 278.455 394.078 253.359 425.525 235.424C426.417 234.908 427.283 234.418 428.209 233.928C429.303 233.304 430.424 232.706 431.565 232.109C431.853 231.941 432.162 231.787 432.477 231.619C433.571 231.042 434.665 230.465 435.786 229.908C436.363 229.613 436.94 229.311 437.544 229.035C438.739 228.418 439.96 227.814 441.182 227.237C442.403 226.66 443.477 226.15 444.638 225.619L445.047 225.425C445.92 225.016 446.785 224.633 447.671 224.25C448.772 223.734 449.866 223.264 450.98 222.794C454.228 221.385 457.577 220.043 460.993 218.767L462.174 218.318C463.617 217.761 465.066 217.231 466.536 216.714C496.065 206.245 530.929 199.594 572.001 198.574Z" fill="#5F62E2"/>
<path d="M378.272 131.812C349.192 153.837 316.435 188.554 294.826 241.485C269.115 187.057 237.936 152.616 211.118 131.147C226.956 101.618 262.854 41.6009 295.51 13.5283C295.51 13.5283 344.951 62.3651 378.272 131.812Z" fill="#5F62E2"/>
<path d="M463.603 211.097C462.167 211.601 460.745 212.124 459.322 212.668L458.167 213.111C454.812 214.366 451.537 215.688 448.349 217.07C447.255 217.533 446.181 217.99 445.108 218.493C444.235 218.875 443.383 219.251 442.531 219.647L442.121 219.835C440.987 220.359 439.853 220.882 438.766 221.432C437.678 221.983 436.37 222.58 435.189 223.191C434.605 223.459 434.034 223.754 433.471 224.05C432.37 224.593 431.296 225.157 430.222 225.728C429.92 225.895 429.612 226.036 429.33 226.204C428.236 226.795 427.142 227.378 426.062 227.989C425.169 228.472 424.317 228.949 423.444 229.452C392.585 247.043 366.308 271.661 346.743 301.308C303.013 366.996 301 439.463 300.919 445.872L300.819 445.684C295.584 411.672 287.578 382.21 277.511 356.708L278.303 354.111L276.927 355.178C276.927 355.178 276.927 355.178 276.927 355.138C278.894 311.932 287.35 275.806 299.483 245.653L300.617 245.901L299.946 244.498C321.147 192.575 353.28 158.522 381.822 136.919C415.438 111.484 444.094 103.25 444.094 103.25C459.382 122.148 462.872 179.958 463.603 211.097Z" fill="#5F62E2"/>
<path d="M270.015 361.506V361.439C270.015 361.439 270.015 361.479 270.015 361.506Z" stroke="#CCDDE2" stroke-width="2" stroke-miterlimit="10"/>
<path d="M294.819 242.142C294.645 242.552 294.49 242.954 294.316 243.384C281.236 275.906 272.115 314.864 269.988 361.459C233.681 270.571 173.435 226.566 119.753 205.446C120.713 175.072 124.847 122.262 141.732 89.8069C141.732 89.8069 170.301 96.6321 206.266 125.423C234.641 148.133 267.652 184.561 294.819 242.142Z" stroke="#CCDDE2" stroke-width="2" stroke-miterlimit="10"/>
<path d="M295.544 243.658L294.316 243.382C294.49 242.953 294.645 242.55 294.819 242.141C295.061 242.637 295.289 243.154 295.544 243.658Z" stroke="#CCDDE2" stroke-width="2" stroke-miterlimit="10"/>
<path d="M270.015 361.506V361.439C270.015 361.439 270.015 361.479 270.015 361.506Z" stroke="#CCDDE2" stroke-width="2" stroke-miterlimit="10"/>
<path d="M295.544 243.658L294.316 243.382C294.49 242.953 294.645 242.55 294.819 242.141C295.061 242.637 295.289 243.154 295.544 243.658Z" stroke="#CCDDE2" stroke-width="2" stroke-miterlimit="10"/>
<path opacity="0.9" d="M73.4934 351.968C71.1244 349.076 68.7956 346.116 66.5541 343.11C36.3803 302.967 16.5037 256.041 8.664 206.438C6.71107 194.284 7.01307 186.915 7.01307 186.915C7.01307 186.915 59.192 181.627 119.76 205.445C173.449 226.571 233.674 270.542 269.988 361.458V361.532C270.209 362.075 270.438 362.619 270.619 363.183C281.491 390.698 290.121 422.455 295.772 459.151C295.772 459.219 295.772 459.286 295.772 459.359C295.39 459.359 295.027 459.359 294.645 459.359C219.769 459.252 151.483 429.388 99.9956 380.598C94.6267 375.518 89.3987 370.209 84.4057 364.713" stroke="#CCDDE2" stroke-width="2" stroke-miterlimit="10"/>
<path d="M270.015 361.506V361.439C270.015 361.439 270.015 361.479 270.015 361.506Z" stroke="#CCDDE2" stroke-width="2" stroke-miterlimit="10"/>
<path opacity="0.9" d="M582.941 186.937C569.968 339.178 446.484 458.696 295.893 459.307C295.98 452.395 298.148 374.25 345.307 303.401C366.398 271.434 394.726 244.888 427.994 225.915C428.941 225.371 429.86 224.854 430.82 224.338C431.981 223.667 433.162 223.049 434.343 222.412C434.645 222.23 434.974 222.076 435.303 221.895C436.464 221.284 437.625 220.673 438.806 220.09C439.417 219.767 440.027 219.418 440.665 219.157C441.933 218.486 443.222 217.875 444.517 217.264C445.812 216.653 446.94 216.11 448.168 215.546L448.604 215.338C449.524 214.909 450.443 214.506 451.383 214.097C452.544 213.553 453.698 213.056 454.879 212.56C458.315 211.07 461.859 209.647 465.469 208.291L466.718 207.815C468.248 207.231 469.778 206.661 471.335 206.124C502.615 195.024 539.5 188.017 582.941 186.937Z" stroke="#CCDDE2" stroke-width="2" stroke-miterlimit="10"/>
<path d="M383.09 126.129C352.333 149.423 317.677 186.146 294.819 242.144C267.653 184.562 234.641 148.134 206.266 125.424C223.044 94.1703 261.002 30.6967 295.524 1C295.544 1 347.803 52.6621 383.09 126.129Z" stroke="#CCDDE2" stroke-width="2" stroke-miterlimit="10"/>
<path d="M93.459 292.441C93.4657 292.397 93.4657 292.351 93.459 292.307C93.459 292.26 93.459 292.213 93.459 292.126C93.4482 292.05 93.4482 291.974 93.459 291.898C93.4778 292.059 93.5093 292.218 93.5529 292.374C93.5429 292.392 93.5295 292.407 93.5133 292.418C93.4966 292.429 93.4784 292.437 93.459 292.441Z" fill="white"/>
<path d="M93.7072 335.829C92.6717 339.17 91.349 342.414 89.7544 345.526C89.298 346.405 88.8484 347.264 88.3518 348.123C86.6565 351.306 84.5761 354.268 82.1574 356.942C81.7279 356.801 81.2984 356.62 80.9159 356.465C80.8286 356.465 80.7548 356.398 80.6877 356.371C72.8692 352.962 66.997 346.567 65.2521 339.379C63.6951 333.05 65.0978 326.205 62.0912 320.266C58.3867 312.951 48.4005 308.374 47.1523 300.106C46.0248 292.374 52.9842 285.281 51.85 277.711C50.5615 269.14 40.0318 264.06 38.0855 255.698C36.844 250.504 37.9513 244.511 37.5017 239.155C36.9822 233.169 35.9675 227.236 34.4683 221.418C35.1931 221.371 35.9179 221.351 36.6427 221.324C51.4071 221.075 66.0172 229.377 70.8089 241.075C74.6745 250.524 72.7082 261.436 77.8355 270.295C78.1462 270.867 78.4931 271.419 78.8757 271.946C79.5481 272.88 80.2723 273.776 81.0434 274.63L82.6742 276.328C82.9426 276.596 83.2379 276.845 83.5063 277.14C83.7748 277.435 84.0701 277.684 84.3452 277.979C86.8955 280.415 89.4994 282.878 91.1906 285.797C91.3469 286.05 91.4832 286.316 91.5999 286.589C91.7583 286.854 91.8925 287.133 92.0026 287.421C92.1482 287.716 92.2784 288.019 92.3919 288.328C92.5261 288.663 92.6402 288.999 92.7475 289.368C92.9086 289.911 93.0697 290.428 93.1771 290.972C93.1771 291.106 93.1771 291.22 93.224 291.334C93.271 291.448 93.224 291.421 93.224 291.468C93.2341 291.513 93.2341 291.558 93.224 291.603C93.2334 291.68 93.2495 291.756 93.271 291.831V291.878C93.2737 291.962 93.2871 292.045 93.3113 292.126C93.3113 292.213 93.3113 292.26 93.3113 292.307C93.318 292.351 93.318 292.397 93.3113 292.441V292.488L91.5731 317.709C92.6871 323.809 95.4723 329.889 93.7072 335.829Z" fill="white"/>
<path d="M106.834 274.61C107.968 269.14 108.056 263.402 110.633 258.181C115.424 248.557 129.424 241.571 144.101 241.121H144.369C145.712 241.121 147.054 241.121 148.396 241.189C146.877 246.192 145.842 251.329 145.302 256.53C144.806 261.161 145.973 266.342 144.692 270.791C142.631 278.019 131.672 282.408 130.343 289.797C129.162 296.347 136.417 302.474 135.222 309.139C133.934 316.279 123.538 320.232 119.699 326.587C116.599 331.721 118.048 337.614 116.445 343.063C114.565 349.278 108.391 354.814 100.264 357.727C99.7406 357.908 99.2708 358.089 98.7473 358.25C98.4722 358.318 98.1568 358.432 97.8883 358.499C97.7944 358.432 97.7071 358.338 97.593 358.25C94.969 356.016 92.0295 352.244 89.5934 348.184L89.7746 345.607C91.3691 342.494 92.6919 339.249 93.7274 335.909C95.4925 329.97 92.7073 323.89 91.7141 317.789L93.4523 292.569L93.9959 292.119C94.1945 291.973 94.3824 291.814 94.5596 291.643C97.244 289.475 100.143 287.395 102.217 284.932C104.794 281.905 105.995 278.583 106.76 275.1" fill="white"/>
<path d="M106.767 274.974C106.767 274.86 106.814 274.752 106.834 274.611L106.767 274.974Z" fill="white"/>
<path d="M106.834 274.592C106.834 274.733 106.787 274.84 106.767 274.954C106.002 278.437 104.801 281.759 102.224 284.786C100.15 287.249 97.2574 289.329 94.5662 291.497C94.3897 291.668 94.2011 291.827 94.0025 291.974L93.4589 292.443C93.4683 292.415 93.4683 292.384 93.4589 292.356C93.4381 292.278 93.4139 292.202 93.3851 292.128C93.3743 292.052 93.3743 291.975 93.3851 291.9V291.853C93.3636 291.778 93.3482 291.702 93.3381 291.625C93.3482 291.58 93.3482 291.534 93.3381 291.49C93.3482 291.469 93.3535 291.446 93.3535 291.423C93.3535 291.4 93.3482 291.377 93.3381 291.356C93.3213 291.233 93.2965 291.113 93.2643 290.994C93.1569 290.45 92.9958 289.933 92.8348 289.39C92.7274 289.048 92.6133 288.685 92.4791 288.35C92.3656 288.041 92.2355 287.738 92.0898 287.444C91.9945 287.149 91.859 286.869 91.6872 286.611C91.571 286.338 91.4341 286.073 91.2778 285.82C89.5866 282.9 86.9827 280.451 84.4324 278.001C84.1573 277.706 83.8687 277.411 83.5936 277.162C83.3184 276.914 83.0298 276.619 82.7614 276.35L81.1306 274.652C80.3595 273.798 79.636 272.901 78.9629 271.968C78.9629 271.968 80.4662 245.841 93.8213 237.936C106.431 230.406 106.834 270.183 106.834 274.592Z" fill="white"/>
<path d="M106.767 274.974C106.767 274.86 106.814 274.752 106.834 274.611L106.767 274.974Z" fill="white"/>
<path d="M93.4387 292.355V292.462C93.4454 292.418 93.4454 292.372 93.4387 292.328C93.4387 292.281 93.4387 292.234 93.4387 292.147C93.428 292.071 93.428 291.994 93.4387 291.919C93.4287 292.064 93.4287 292.21 93.4387 292.355Z" fill="white"/>
<path d="M138.638 249.484C114.565 275.389 103.25 330.018 98.8413 358.204C98.4789 360.587 98.1702 362.761 97.8749 364.721" fill="white"/>
<path d="M140.859 380.592L129.786 445.931C129.524 447.716 128.639 449.351 127.289 450.548C125.938 451.744 124.208 452.424 122.404 452.468H64.5139C62.6952 452.422 60.9523 451.728 59.5987 450.511C58.2457 449.294 57.3706 447.635 57.1317 445.831L46.9174 380.592H140.859Z" fill="white"/>
<path d="M151.376 373.306C151.275 375.24 150.448 377.066 149.059 378.417C147.67 379.768 145.823 380.545 143.886 380.594H44.0449C42.1269 380.548 40.2961 379.786 38.9116 378.458C37.5264 377.131 36.6889 375.334 36.562 373.42C36.1392 368.762 39.6089 364.695 44.0449 364.695H143.886C148.275 364.729 151.731 368.655 151.376 373.306Z" fill="white"/>
<path d="M93.506 292.49C93.5046 292.343 93.4798 292.198 93.4321 292.06L93.506 292.49Z" fill="white"/>
<path d="M44.0316 231.015C67.138 261.027 78.01 324.3 82.2849 356.963C82.6473 359.795 82.9561 362.392 83.2312 364.714" fill="white"/>
<path d="M95.5395 262.906C92.647 271.812 92.506 280.805 92.855 286.503C92.9476 288.342 93.1423 290.174 93.4389 291.992" fill="white"/>
<path d="M93.459 292.441C93.4657 292.397 93.4657 292.351 93.459 292.307C93.459 292.26 93.459 292.213 93.459 292.126C93.4482 292.05 93.4482 291.974 93.459 291.898C93.4778 292.059 93.5093 292.218 93.5529 292.374C93.5429 292.392 93.5295 292.407 93.5133 292.418C93.4966 292.429 93.4784 292.437 93.459 292.441Z" stroke="#CCDDE2" stroke-width="2" stroke-miterlimit="10"/>
<path d="M93.7072 335.829C92.6717 339.17 91.349 342.414 89.7544 345.526C89.298 346.405 88.8484 347.264 88.3518 348.123C86.6565 351.306 84.5761 354.268 82.1574 356.942C81.7279 356.801 81.2984 356.62 80.9159 356.465C80.8286 356.465 80.7548 356.398 80.6877 356.371C72.8692 352.962 66.997 346.567 65.2521 339.379C63.6951 333.05 65.0978 326.205 62.0912 320.266C58.3867 312.951 48.4005 308.374 47.1523 300.106C46.0248 292.374 52.9842 285.281 51.85 277.711C50.5615 269.14 40.0318 264.06 38.0855 255.698C36.844 250.504 37.9513 244.511 37.5017 239.155C36.9822 233.169 35.9675 227.236 34.4683 221.418C35.1931 221.371 35.9179 221.351 36.6427 221.324C51.4071 221.075 66.0172 229.377 70.8089 241.075C74.6745 250.524 72.7082 261.436 77.8355 270.295C78.1462 270.867 78.4931 271.419 78.8757 271.946C79.5481 272.88 80.2723 273.776 81.0434 274.63L82.6742 276.328C82.9426 276.596 83.2379 276.845 83.5063 277.14C83.7748 277.435 84.0701 277.684 84.3452 277.979C86.8955 280.415 89.4994 282.878 91.1906 285.797C91.3469 286.05 91.4832 286.316 91.5999 286.589C91.7583 286.854 91.8925 287.133 92.0026 287.421C92.1482 287.716 92.2784 288.019 92.3919 288.328C92.5261 288.663 92.6402 288.999 92.7475 289.368C92.9086 289.911 93.0697 290.428 93.1771 290.972C93.1771 291.106 93.1771 291.22 93.224 291.334C93.271 291.448 93.224 291.421 93.224 291.468C93.2341 291.513 93.2341 291.558 93.224 291.603C93.2334 291.68 93.2495 291.756 93.271 291.831V291.878C93.2737 291.962 93.2871 292.045 93.3113 292.126C93.3113 292.213 93.3113 292.26 93.3113 292.307C93.318 292.351 93.318 292.397 93.3113 292.441V292.488L91.5731 317.709C92.6871 323.809 95.4723 329.889 93.7072 335.829Z" stroke="#CCDDE2" stroke-width="2" stroke-miterlimit="10"/>
<path d="M106.834 274.61C107.968 269.14 108.056 263.402 110.633 258.181C115.424 248.557 129.424 241.571 144.101 241.121H144.369C145.712 241.121 147.054 241.121 148.396 241.189C146.877 246.192 145.842 251.329 145.302 256.53C144.806 261.161 145.973 266.342 144.692 270.791C142.631 278.019 131.672 282.408 130.343 289.797C129.162 296.347 136.417 302.474 135.222 309.139C133.934 316.279 123.538 320.232 119.699 326.587C116.599 331.721 118.048 337.614 116.445 343.063C114.565 349.278 108.391 354.814 100.264 357.727C99.7406 357.908 99.2708 358.089 98.7473 358.25C98.4722 358.318 98.1568 358.432 97.8883 358.499C97.7944 358.432 97.7071 358.338 97.593 358.25C94.969 356.016 92.0295 352.244 89.5934 348.184L89.7746 345.607C91.3691 342.494 92.6919 339.249 93.7274 335.909C95.4925 329.97 92.7073 323.89 91.7141 317.789L93.4523 292.569L93.9959 292.119C94.1945 291.973 94.3824 291.814 94.5596 291.643C97.244 289.475 100.143 287.395 102.217 284.932C104.794 281.905 105.995 278.583 106.76 275.1" stroke="#CCDDE2" stroke-width="2" stroke-miterlimit="10"/>
<path d="M106.767 274.974C106.767 274.86 106.814 274.752 106.834 274.611" stroke="#CCDDE2" stroke-width="2" stroke-miterlimit="10"/>
<path d="M106.834 274.592C106.834 274.733 106.787 274.84 106.767 274.954C106.002 278.437 104.801 281.759 102.224 284.786C100.15 287.249 97.2574 289.329 94.5662 291.497C94.3897 291.668 94.2011 291.827 94.0025 291.974L93.4589 292.443C93.4683 292.415 93.4683 292.384 93.4589 292.356C93.4381 292.278 93.4139 292.202 93.3851 292.128C93.3743 292.052 93.3743 291.975 93.3851 291.9V291.853C93.3636 291.778 93.3482 291.702 93.3381 291.625C93.3482 291.58 93.3482 291.534 93.3381 291.49C93.3482 291.469 93.3535 291.446 93.3535 291.423C93.3535 291.4 93.3482 291.377 93.3381 291.356C93.3213 291.233 93.2965 291.113 93.2643 290.994C93.1569 290.45 92.9958 289.933 92.8348 289.39C92.7274 289.048 92.6133 288.685 92.4791 288.35C92.3656 288.041 92.2355 287.738 92.0898 287.444C91.9945 287.149 91.859 286.869 91.6872 286.611C91.571 286.338 91.4341 286.073 91.2778 285.82C89.5866 282.9 86.9827 280.451 84.4324 278.001C84.1573 277.706 83.8687 277.411 83.5936 277.162C83.3184 276.914 83.0298 276.619 82.7614 276.35L81.1306 274.652C80.3595 273.798 79.636 272.901 78.9629 271.968C78.9629 271.968 80.4662 245.841 93.8213 237.936C106.431 230.406 106.834 270.183 106.834 274.592Z" stroke="#CCDDE2" stroke-width="2" stroke-miterlimit="10"/>
<path d="M106.767 274.974C106.767 274.86 106.814 274.752 106.834 274.611" stroke="#CCDDE2" stroke-width="2" stroke-miterlimit="10"/>
<path d="M93.4387 292.355V292.462C93.4454 292.418 93.4454 292.372 93.4387 292.328C93.4387 292.281 93.4387 292.234 93.4387 292.147C93.428 292.071 93.428 291.994 93.4387 291.919C93.4287 292.064 93.4287 292.21 93.4387 292.355Z" stroke="#CCDDE2" stroke-width="2" stroke-miterlimit="10"/>
<path d="M138.638 249.484C114.565 275.389 103.25 330.018 98.8413 358.204C98.4789 360.587 98.1702 362.761 97.8749 364.721" stroke="#CCDDE2" stroke-width="2" stroke-miterlimit="10"/>
<path d="M140.859 380.592L129.786 445.931C129.524 447.716 128.639 449.351 127.289 450.548C125.938 451.744 124.208 452.424 122.404 452.468H64.5139C62.6952 452.422 60.9523 451.728 59.5987 450.511C58.2457 449.294 57.3706 447.635 57.1317 445.831L46.9174 380.592H140.859Z" stroke="#CCDDE2" stroke-width="2" stroke-miterlimit="10"/>
<path d="M151.376 373.306C151.275 375.24 150.448 377.066 149.059 378.417C147.67 379.768 145.823 380.545 143.886 380.594H44.0449C42.1269 380.548 40.2961 379.786 38.9116 378.458C37.5264 377.131 36.6889 375.334 36.562 373.42C36.1392 368.762 39.6089 364.695 44.0449 364.695H143.886C148.275 364.729 151.731 368.655 151.376 373.306Z" stroke="#CCDDE2" stroke-width="2" stroke-miterlimit="10"/>
<path d="M93.506 292.49C93.5046 292.343 93.4798 292.198 93.4321 292.06L93.506 292.49Z" stroke="#CCDDE2" stroke-width="2" stroke-miterlimit="10"/>
<path d="M44.0316 231.015C67.138 261.027 78.01 324.3 82.2849 356.963C82.6473 359.795 82.9561 362.392 83.2312 364.714" stroke="#CCDDE2" stroke-width="2" stroke-miterlimit="10"/>
<path d="M95.5395 262.906C92.647 271.812 92.506 280.805 92.855 286.503C92.9476 288.342 93.1423 290.174 93.4389 291.992" stroke="#CCDDE2" stroke-width="2" stroke-miterlimit="10"/>
<path d="M471.335 206.124C469.778 206.661 468.248 207.231 466.717 207.815L465.469 208.291C461.859 209.634 458.315 211.07 454.879 212.56C453.698 213.056 452.544 213.553 451.383 214.097C450.443 214.506 449.524 214.909 448.604 215.338L448.168 215.546C446.94 216.11 445.718 216.674 444.517 217.264C443.316 217.855 441.933 218.506 440.665 219.157C439.994 219.452 439.417 219.767 438.806 220.09C437.625 220.673 436.464 221.284 435.303 221.895C434.974 222.076 434.632 222.23 434.343 222.412C433.162 223.049 431.981 223.68 430.82 224.338C429.86 224.854 428.941 225.371 427.994 225.915C394.726 244.888 366.398 271.434 345.307 303.401C298.148 374.25 295.98 452.388 295.893 459.307L295.779 459.106C290.135 422.43 281.497 390.652 270.646 363.137L271.498 360.338L270.015 361.493C270.015 361.493 270.015 361.493 270.015 361.446C272.142 314.85 281.263 275.892 294.343 243.37L295.571 243.646C295.329 243.142 295.087 242.625 294.846 242.129C317.704 186.131 352.36 149.408 383.117 126.114C419.357 98.6788 450.275 89.7933 450.275 89.7933C466.785 110.195 470.543 172.541 471.335 206.124Z" stroke="#CCDDE2" stroke-width="2" stroke-miterlimit="10"/>
<path d="M473.529 447.172C468.715 446.206 463.999 445.051 459.382 443.709C440.443 438.172 418.444 428.723 410.901 408.858C409.013 403.726 408.419 398.208 409.169 392.791C409.919 387.374 411.992 382.225 415.203 377.799C418.605 373.079 423.389 369.531 428.894 367.645C440.873 363.773 454.127 369.806 463.013 378.732C471.898 387.658 477.616 399.147 484.576 409.644C478.281 395.55 471.892 381.047 471.026 365.639C470.355 353.626 473.616 340.6 481.898 331.573C489.522 323.265 507.346 316.762 517.843 322.849C524.768 326.875 527.533 335.439 528.721 343.358C531.983 365.028 527.795 387.047 523.628 408.563C526.426 397.06 529.433 385.45 535.137 375.075C540.842 364.699 549.586 355.532 560.787 351.686C568.632 349.002 577.947 349.29 584.517 354.371C590.645 359.069 593.383 367.075 594.228 374.766C595.638 387.665 592.604 400.745 587.383 412.617C567.901 456.93 513.87 455.225 473.529 447.172Z" fill="white"/>
<path d="M517.487 425.234C517.487 425.234 547.519 433.576 558.123 391.833L517.487 425.234Z" fill="white"/>
<path d="M504.125 353.984C495.777 372.909 504.125 429.692 504.125 429.692V353.984Z" fill="white"/>
<path d="M476.294 423.945C475.039 423.73 462.993 422.046 452.725 417.328C444.772 413.677 437.88 408.201 437.88 400.188" fill="white"/>
<path d="M455.134 400.196C455.134 400.196 443.396 413.88 452.725 417.336L455.134 400.196Z" fill="white"/>
<path d="M447.343 429.784C449.014 427.462 457.704 432.119 463.382 421.16L447.343 429.784Z" fill="white"/>
<path d="M500.414 379.037C497.448 376.809 489.676 379.037 488.535 361.219L500.414 379.037Z" fill="white"/>
<path d="M501.709 395.732C501.709 395.732 514.702 391.034 514.702 380.867L501.709 395.732Z" fill="white"/>
<path d="M529.634 425.475C529.634 425.475 536.412 407.979 539.197 400.188L529.634 425.475Z" fill="white"/>
<path d="M550.68 408.758C550.68 408.758 558.123 414.657 567.028 405.195L550.68 408.758Z" fill="white"/>
<path d="M550.68 400.196C550.68 400.196 545.875 398.108 548.103 386.102L550.68 400.196Z" fill="white"/>
<path d="M473.529 447.172C468.67 446.501 463.993 445.058 459.382 443.709C440.443 438.172 418.444 428.723 410.901 408.858C409.013 403.726 408.419 398.208 409.169 392.791C409.919 387.374 411.992 382.225 415.203 377.799C418.605 373.079 423.389 369.531 428.894 367.645C440.873 363.773 454.127 369.806 463.013 378.732C471.898 387.658 477.616 399.147 484.576 409.643C478.281 395.55 471.892 381.047 471.026 365.639C470.355 353.626 473.616 340.6 481.898 331.573C489.522 323.265 507.346 316.762 517.843 322.849C524.768 326.875 527.533 335.439 528.721 343.358C531.983 365.028 527.795 387.047 523.628 408.563C526.426 397.06 529.433 385.45 535.137 375.075C540.842 364.699 549.586 355.532 560.787 351.686C568.632 349.002 577.947 349.29 584.517 354.371C590.645 359.069 593.383 367.075 594.228 374.766C595.638 387.665 592.786 400.832 587.383 412.617C567.585 455.762 513.138 452.501 473.529 447.172Z" stroke="#CCDDE2" stroke-width="2" stroke-miterlimit="10"/>
<path d="M517.487 425.234C517.487 425.234 547.519 433.576 558.123 391.833" stroke="#CCDDE2" stroke-width="2" stroke-miterlimit="10"/>
<path d="M504.125 353.984C495.777 372.909 504.125 429.692 504.125 429.692" stroke="#CCDDE2" stroke-width="2" stroke-miterlimit="10"/>
<path d="M476.294 423.945C475.039 423.73 462.993 422.046 452.725 417.328C444.772 413.677 437.88 408.201 437.88 400.188" stroke="#CCDDE2" stroke-width="2" stroke-miterlimit="10"/>
<path d="M455.134 400.196C455.134 400.196 443.396 413.88 452.725 417.336" stroke="#CCDDE2" stroke-width="2" stroke-miterlimit="10"/>
<path d="M447.343 429.784C449.014 427.462 457.704 432.119 463.382 421.16" stroke="#CCDDE2" stroke-width="2" stroke-miterlimit="10"/>
<path d="M500.414 379.037C497.448 376.809 489.676 379.037 488.535 361.219" stroke="#CCDDE2" stroke-width="2" stroke-miterlimit="10"/>
<path d="M501.709 395.732C501.709 395.732 514.702 391.034 514.702 380.867" stroke="#CCDDE2" stroke-width="2" stroke-miterlimit="10"/>
<path d="M529.634 425.475C529.634 425.475 536.412 407.979 539.197 400.188" stroke="#CCDDE2" stroke-width="2" stroke-miterlimit="10"/>
<path d="M550.68 408.758C550.68 408.758 558.123 414.657 567.028 405.195" stroke="#CCDDE2" stroke-width="2" stroke-miterlimit="10"/>
<path d="M550.68 400.196C550.68 400.196 545.875 398.108 548.103 386.102" stroke="#CCDDE2" stroke-width="2" stroke-miterlimit="10"/>
<path d="M552.727 295.791C558.728 300.961 564.084 306.835 568.679 313.287C577.128 324.837 581.908 338.661 582.397 352.963" stroke="#CCDDE2" stroke-width="2" stroke-miterlimit="10"/>
<path d="M343.427 59.1914C355.507 51.9166 368.104 45.4537 381.5 40.8902C414.901 29.4813 452.141 32.0114 478.603 57.0506C501.541 78.7341 512.386 110.947 514.601 141.819C514.601 142.268 514.675 142.745 514.695 143.221C515.708 159.127 514.876 176.69 514.762 194.266" stroke="#CCDDE2" stroke-width="2" stroke-miterlimit="10"/>
<path d="M80.1172 193.292C83.1439 173.971 79.4461 155.797 77.4328 135.912C72.2518 84.1023 88.7276 22.1117 148.409 14.3604C180.838 10.1324 207.159 22.246 229.084 45.4798C234.01 50.6944 238.936 56.8216 244.15 62.7408" stroke="#CCDDE2" stroke-width="2" stroke-miterlimit="10"/>
<path d="M56.8431 364.398C56.8431 364.398 11.6437 344.493 16.1669 307.092C17.4286 296.535 22.4016 287.093 28.6832 278.415" stroke="#CCDDE2" stroke-width="2" stroke-miterlimit="10"/>
<path d="M465.08 389.336C463.362 388.097 461.572 386.92 459.711 385.806C441.148 374.82 415.854 370.559 394.647 369.284C393.352 369.19 392.077 369.123 390.815 369.069C389.143 368.996 387.508 368.558 386.023 367.787C384.484 367.011 383.147 365.887 382.117 364.505C381.077 360.417 379.827 356.385 378.372 352.425L375.393 339.003C374.281 335.121 373.41 331.174 372.782 327.185C369.695 307.005 367.413 281.925 366.608 272.536C366.705 272.578 366.806 272.607 366.91 272.623L376.124 275.576C376.158 275.574 376.191 275.574 376.225 275.576L379.493 276.536C392.164 280.133 405.459 282.831 418.659 283.12C431.102 283.381 444.752 281.341 455.382 274.456C456.277 273.892 457.146 273.288 457.986 272.644C466.187 266.469 471.885 256.993 475.113 247.376C481.052 229.589 482.335 210.575 478.838 192.151C477.846 187.078 476.452 182.091 474.67 177.238C469.972 164.32 463.188 152.213 457.362 139.656C456.02 136.73 454.101 133.663 453.866 130.415C453.584 126.543 455.57 122.818 456.195 119.053C456.922 114.529 457.259 109.951 457.201 105.369C457.192 99.9346 456.152 94.5509 454.134 89.5042C452.396 85.2627 449.309 78.149 443.826 78.4107C442.068 72.7868 439.128 66.277 433.954 65.5455C432.611 65.3395 431.241 65.6723 430.142 66.4716C429.763 65.9274 429.353 65.4052 428.914 64.9079C426.753 62.4785 422.666 60.2907 419.384 61.5524C412.874 64.1294 415.854 73.0888 419.082 79.8871C417.42 79.5294 415.716 79.4167 414.022 79.5516C410.23 79.8871 405.841 81.4173 404.371 85.0681C403.573 87.0814 403.855 90.7122 405.895 91.8531C408.485 93.2691 411.666 92.3295 414.257 93.6583C417.149 95.1482 418.284 99.1413 417.861 102.161C417.779 103.345 417.306 104.469 416.518 105.356C411.941 109.933 408.801 97.3025 407.062 95.222C404.7 92.3832 401.237 92.9 398.774 95.2958C393.909 99.9936 396.023 109.456 398.063 115.134C400.278 121.348 403.157 127.885 407.754 132.724C415.398 140.743 416.237 153.528 418.257 163.87C419.089 168.145 419.887 172.46 420.532 176.769C421.807 185.131 422.545 193.546 421.874 201.989C421.704 204.306 421.057 206.564 419.973 208.62C418.89 210.675 417.393 212.484 415.576 213.934C413.76 215.383 411.664 216.441 409.419 217.042C407.175 217.643 404.83 217.773 402.533 217.425C397.063 216.592 390.661 215.599 383.842 214.532C383.842 214.532 383.896 214.478 383.929 214.465C374.634 211.304 366.413 210.915 358.232 210.485C335.153 206.915 314.429 203.559 314.429 203.559C313.957 203.472 313.53 203.224 313.222 202.856C312.914 202.489 312.743 202.026 312.738 201.546L312.456 175.923C314.033 177.856 317.456 178.124 319.55 177.004C320.382 176.579 321.066 175.913 321.513 175.093C321.96 174.272 322.148 173.336 322.053 172.407C323.411 172.395 324.745 172.052 325.939 171.407C326.293 171.209 326.632 170.984 326.952 170.735C327.614 170.141 328.149 169.419 328.522 168.611C328.894 167.803 329.098 166.927 329.12 166.038C329.149 165.546 329.124 165.054 329.046 164.568C329.046 164.387 328.992 164.212 328.959 164.018C328.885 163.642 328.798 163.273 328.69 162.877C328.636 162.649 328.569 162.42 328.496 162.206C328.321 161.535 328.126 160.863 327.979 160.192C328.057 160.202 328.136 160.202 328.214 160.192C328.876 160.155 329.534 160.061 330.18 159.91C330.794 159.764 331.394 159.561 331.972 159.306C332.296 159.163 332.612 159.002 332.918 158.823C332.971 158.805 333.019 158.775 333.059 158.736C333.579 158.418 334.07 158.056 334.529 157.655C334.685 157.528 334.832 157.391 334.972 157.246C335.234 157 335.482 156.74 335.717 156.468C336.017 156.117 336.297 155.749 336.556 155.367C336.682 155.205 336.794 155.032 336.891 154.85C337.823 153.356 338.502 151.72 338.904 150.005C338.938 149.844 338.978 149.683 339.012 149.528C340.354 143.139 338.341 135.844 332.73 133.462C331.609 132.985 327.637 132.522 327.637 130.838C327.639 130.718 327.657 130.598 327.69 130.482C327.684 130.458 327.684 130.433 327.69 130.408C327.796 130.158 327.949 129.931 328.14 129.737C328.227 129.63 328.348 129.523 328.455 129.415C328.69 129.207 328.952 129.012 329.2 128.811C329.455 128.643 329.7 128.459 329.932 128.261C330.03 128.179 330.124 128.091 330.214 127.999C330.388 127.804 330.569 127.61 330.73 127.415C330.89 127.223 331.038 127.021 331.173 126.811C331.314 126.596 331.455 126.382 331.583 126.14C331.723 125.929 331.842 125.704 331.938 125.469C332.14 125.071 332.307 124.656 332.435 124.227C332.661 123.524 332.803 122.797 332.858 122.06C332.858 121.798 332.858 121.53 332.858 121.261C332.858 115.369 328.053 109.268 321.979 108.624C320.997 108.517 320.003 108.634 319.073 108.966C318.616 109.125 318.168 109.309 317.731 109.517L317.06 109.832C316.603 110.047 316.14 110.275 315.664 110.503C315.262 110.694 314.826 110.804 314.382 110.825C314.28 110.822 314.179 110.809 314.08 110.785L313.885 110.731C313.745 110.701 313.616 110.628 313.516 110.523C313.398 110.437 313.3 110.328 313.228 110.201C313.167 110.078 313.124 109.947 313.1 109.812C313.096 109.804 313.093 109.795 313.093 109.785C313.093 109.776 313.096 109.766 313.1 109.758C313.067 109.602 313.051 109.442 313.053 109.282C313.053 108.95 313.1 108.62 313.194 108.302C313.383 107.609 313.479 106.893 313.476 106.175C313.475 105.914 313.457 105.654 313.422 105.396C313.388 105.038 313.334 104.681 313.261 104.329C312.604 101.733 311.043 99.4561 308.859 97.9065C302.705 93.5577 291.168 93.5375 287.987 101.598C287.92 101.718 287.887 101.846 287.833 101.967C287.424 101.49 287.014 100.994 286.605 100.497C286.322 100.315 286.026 100.153 285.719 100.014C281.457 98.1548 275.357 98.9534 272.25 102.591C269.673 105.611 268.827 110.275 271.116 113.698C269.832 112.04 268.092 110.794 266.109 110.114C266.346 110.778 266.661 111.411 267.049 112C266.867 111.753 266.672 111.515 266.465 111.288C266.304 111.107 266.143 110.946 265.982 110.792C265.82 110.637 265.592 110.416 265.398 110.255C265.203 110.094 264.988 109.919 264.78 109.758C260.787 106.832 254.908 106.53 251.184 110.188C248.271 113.047 247.667 117 248.7 120.832C249.734 124.664 252.21 127.328 254.069 130.63C247.768 132.214 242.728 139.2 244.714 145.75C245.129 147.105 245.856 148.344 246.836 149.367C247.816 150.39 249.023 151.17 250.358 151.642C250.837 151.762 251.323 151.846 251.814 151.891C251.979 151.907 252.137 151.958 252.281 152.039C252.425 152.12 252.551 152.23 252.65 152.361C252.749 152.493 252.82 152.644 252.859 152.804C252.898 152.964 252.904 153.131 252.875 153.293C252.775 153.734 252.723 154.184 252.72 154.635C252.724 155.717 253.007 156.779 253.54 157.719C254.074 158.659 254.841 159.447 255.767 160.004C255.905 160.081 256.025 160.186 256.121 160.31C256.217 160.435 256.286 160.579 256.324 160.731C256.363 160.884 256.369 161.043 256.344 161.198C256.319 161.354 256.262 161.502 256.177 161.635C255.244 162.962 254.695 164.521 254.592 166.14C254.489 167.759 254.836 169.374 255.593 170.809C257.666 174.963 262.747 178.567 267.539 177.145C269.08 176.677 270.414 175.694 271.317 174.359C271.414 174.259 271.497 174.146 271.565 174.024C271.583 173.984 271.607 173.947 271.639 173.917C272.329 172.886 272.787 171.719 272.981 170.494C274.162 172.366 275.483 174.145 276.934 175.816L277.807 176.789L275.156 193.137L274.766 196.083C274.623 197.103 274.115 198.036 273.339 198.711C272.562 199.387 271.568 199.76 270.538 199.761C269.955 199.761 269.351 199.761 268.767 199.761C267.579 199.761 266.404 199.795 265.237 199.828C261.686 199.915 258.15 200.076 254.62 200.291C251.935 200.466 249.311 200.66 246.674 200.895C245.331 201.003 244.043 201.123 242.714 201.264C241.385 201.405 240.07 201.533 238.755 201.674C236.184 201.962 233.594 202.258 231.017 202.6C227.909 203.009 224.822 203.432 221.715 203.875C216.856 204.586 212.011 205.365 207.145 206.204C202.407 207.022 197.689 207.875 192.951 208.74C186.294 209.969 179.569 210.995 172.818 212.096C171.045 212.383 169.232 212.287 167.499 211.817C165.766 211.346 164.153 210.512 162.768 209.368C161.384 208.225 160.259 206.799 159.469 205.186C158.679 203.574 158.242 201.811 158.188 200.016C157.429 177.869 169.972 137.475 169.972 137.475C170.261 134.334 173.999 132.106 176.187 130.321C182.448 125.375 186.146 116.516 188.307 109.06C189.837 103.738 191.287 96.1414 186.784 91.7792C184.314 89.3834 180.851 88.8666 178.496 91.7054C176.757 93.7993 173.617 106.416 169.033 101.839C168.245 100.952 167.772 99.8285 167.691 98.6447C167.295 95.6314 168.362 91.6383 171.288 90.1417C173.878 88.7995 177.059 89.7525 179.65 88.3364C181.663 87.1955 181.972 83.5447 181.173 81.5515C179.704 77.9007 175.321 76.3705 171.523 76.035C169.829 75.9001 168.124 76.0128 166.462 76.3705C169.691 69.5722 172.677 60.6128 166.16 58.0425C162.879 56.7472 158.778 58.9284 156.631 61.3578C156.194 61.8557 155.786 62.3779 155.409 62.9215C154.307 62.1248 152.936 61.792 151.591 61.9953C146.39 62.7268 143.484 69.2366 141.725 74.8672C136.296 74.5988 133.222 81.5784 131.464 85.8131C129.472 90.6907 128.413 95.8998 128.343 101.168C128.176 106.773 128.572 112.38 129.525 117.906C129.967 120.288 130.766 122.556 131.337 124.885C131.961 127.422 131.283 129.939 130.363 132.321C126.76 141.441 121.679 149.978 117.867 159.031C113.734 168.613 110.421 178.526 107.962 188.668C103.224 208.687 102.251 229.914 107.787 249.88C118.257 287.609 171.301 275.221 201.689 264.644C214.393 260.228 223.165 256.107 223.165 256.107C223.165 256.107 223.232 259.033 223.232 263.986V264.657C223.198 271.369 222.614 324.91 213.595 364.223L213.293 364.74C213.366 364.686 213.507 364.687 213.595 365.163C213.099 366.237 212.306 367.145 211.309 367.78C210.312 368.416 209.153 368.751 207.971 368.747C186.374 368.659 95.4321 371.726 112.673 430.489C115.901 441.529 124.33 448.609 136.162 452.797C145.557 456.152 157.107 457.609 169.899 457.716H169.986C144.98 462.454 139.162 499.654 167.06 505.278C177.798 507.439 186.301 500.486 195.951 497.52C201.466 495.889 207.209 495.159 212.957 495.359C216.708 495.448 220.449 495.799 224.151 496.405C264.694 503.043 305.834 505.28 346.857 503.076C374.594 501.553 402.868 498.07 429.189 488.788C449.027 481.782 470.798 469.521 480.569 450.535C484.032 443.853 485.821 436.431 485.784 428.905C485.757 411.02 477.489 398.296 465.08 389.336Z" fill="white"/>
<path d="M46.5886 451.79L45.5752 450.83" stroke="#CCDDE2" stroke-width="2" stroke-miterlimit="10"/>
<path d="M378.393 351.445L375.406 337.99C374.296 334.107 373.426 330.16 372.802 326.171C369.715 305.991 367.433 280.918 366.621 271.53L376.245 274.597L372.889 267.127C372.889 267.127 361.836 229.927 383.949 213.546C367.957 208.103 355.145 210.901 340.179 207.459C334.415 206.116 328.328 204.942 321.603 203.841L316.738 202.989C316.543 216.21 307.342 219.21 299.772 220.646C281.135 224.216 268.23 210.62 268.767 198.781C248.076 199.016 227.627 201.747 207.152 205.224C209.796 212.982 215.366 236.229 199.696 263.718L201.709 263.651C214.413 259.228 223.185 255.114 223.185 255.114C223.185 255.114 223.259 258.04 223.259 262.993V263.664C223.225 270.335 222.641 323.916 213.621 363.223C212.95 364.505 213.474 362.928 213.621 364.351C213.074 365.443 212.698 366.613 212.507 367.821L212.944 366.082C210.514 369.565 216.594 373.787 225.379 375.914C248.345 381.525 374.936 391.35 382.084 367.821C382.504 366.417 382.519 364.923 382.124 363.512C381.086 359.429 379.84 355.402 378.393 351.445Z" fill="#353642"/>
<path d="M212.95 494.345C207.209 494.153 201.474 494.885 195.965 496.513C186.307 499.472 177.791 506.432 167.066 504.264C139.168 498.64 144.994 461.441 169.999 456.702C172.395 456.649 174.791 456.635 177.167 456.635H177.328C188.844 456.635 200.065 456.937 209.273 453.756C208.407 454.555 185.972 474.453 212.95 494.345Z" fill="#5F62E2"/>
<path d="M316.717 202.963V202.997C316.523 216.218 307.322 219.218 299.752 220.654C281.115 224.224 268.21 210.628 268.746 198.789" stroke="black" stroke-width="2" stroke-miterlimit="10"/>
<path d="M170.019 456.704C145.014 461.442 139.188 498.642 167.087 504.265C177.824 506.433 186.327 499.474 195.985 496.514C201.498 494.885 207.238 494.153 212.984 494.346C216.727 494.449 220.458 494.81 224.151 495.427C264.692 502.078 305.833 504.329 346.857 502.138C374.594 500.608 402.861 497.132 429.182 487.85C449.027 480.837 470.791 468.576 480.562 449.597C484.027 442.913 485.817 435.489 485.777 427.96C485.777 410.055 477.489 397.331 465.107 388.365C463.382 387.123 461.59 385.955 459.738 384.835C441.175 373.848 415.887 369.587 394.68 368.312C393.385 368.225 392.103 368.151 390.848 368.097C389.177 368.029 387.541 367.593 386.057 366.822C384.516 366.049 383.178 364.925 382.151 363.54C381.151 362.228 380.448 360.715 380.09 359.104L378.406 351.453L375.42 337.998L372.802 326.173C369.715 305.992 367.433 280.92 366.621 271.531" stroke="black" stroke-width="2" stroke-miterlimit="10"/>
<path d="M403.452 438.656C395.177 457.575 374.715 451.099 352.233 437.482C338.28 429.033 326.375 427.831 319.348 428.086C329.254 427.2 337.911 424.147 340.347 412.946C342.314 403.846 337.186 395.497 328.314 392.813C349.642 391.873 371.527 393.484 388.882 406.906C388.895 406.906 411.74 419.718 403.452 438.656Z" fill="#5F62E2"/>
<path d="M328.173 159.134C328.098 159.144 328.021 159.144 327.945 159.134C328.153 160.181 328.549 161.302 328.811 162.416C329.021 163.258 329.112 164.125 329.079 164.993C328.797 169.053 325.918 171.254 322.013 171.362C322.111 172.293 321.926 173.233 321.48 174.057C321.035 174.882 320.35 175.551 319.516 175.979C317.422 177.079 313.993 176.831 312.416 174.892C310.55 172.643 311.476 169.852 312.61 167.389C313.02 166.523 313.429 165.704 313.765 164.959C314.174 164.033 314.53 163.114 314.845 162.174C315.962 158.697 316.828 155.144 317.436 151.544C318.178 147.906 318.669 144.222 318.905 140.517C318.657 139.618 318.818 138.316 318.462 137.377C317.945 135.926 317.011 134.661 315.778 133.739C313.228 131.86 309.832 131.981 307.121 130.316C304.666 128.788 302.729 126.554 301.564 123.907C301.336 123.357 301.121 122.646 300.799 122.028C300.655 121.693 300.437 121.395 300.161 121.156C298.94 120.129 298.228 121.941 297.477 122.646C296.706 123.357 295.793 123.897 294.798 124.227C293.802 124.558 292.748 124.673 291.705 124.565C290.917 124.461 290.149 124.234 289.43 123.894C288.902 123.607 288.409 123.26 287.96 122.86C287.427 122.342 286.807 121.922 286.128 121.619C284.853 121.142 284.786 123.25 284.605 123.981C284.483 124.613 284.221 125.21 283.836 125.726C283.451 126.242 282.955 126.664 282.383 126.961C281.694 127.3 280.937 127.481 280.169 127.491C279.274 127.527 278.378 127.407 277.525 127.135C276.7 126.89 275.915 126.527 275.196 126.055C275.066 125.968 274.916 125.919 274.76 125.913C274.605 125.908 274.451 125.946 274.316 126.023C274.181 126.101 274.07 126.215 273.997 126.352C273.923 126.489 273.891 126.644 273.901 126.8C274.149 133.739 267.659 136.155 264.995 136.866C264.1 148.319 266.898 159.757 272.981 169.503C272.756 170.913 272.182 172.244 271.31 173.375C266.928 174.476 261.868 173.281 259.968 169.503C257.955 165.476 258.23 159.899 261.358 157.027C259.19 156.691 258.586 153.49 259.827 151.611C259.935 151.43 259.982 151.322 259.915 151.148C259.646 150.416 256.458 149.806 255.586 149.537C254.341 149.093 253.217 148.364 252.304 147.408C251.39 146.453 250.712 145.298 250.324 144.034C248.479 137.947 253.163 131.451 259.015 129.981C257.277 126.907 254.989 124.424 254.016 120.874C253.042 117.324 253.593 113.633 256.304 110.948C257.407 109.899 258.754 109.142 260.224 108.746C261.694 108.35 263.239 108.327 264.72 108.68C265.583 109.307 266.348 110.06 266.988 110.915C266.594 110.332 266.278 109.7 266.049 109.036C268.034 109.709 269.777 110.956 271.055 112.619C268.767 109.197 269.619 104.526 272.189 101.506C275.296 97.8682 281.404 97.0696 285.658 98.9353C285.966 99.0735 286.264 99.2333 286.551 99.4118C286.954 99.9151 287.363 100.412 287.772 100.888C287.817 100.759 287.871 100.634 287.934 100.512C288.797 101.4 289.615 102.332 290.383 103.304C293.148 95.4388 304.134 95.4187 309.939 99.5191C311.306 100.494 312.426 101.777 313.208 103.264C313.502 104.571 313.477 105.929 313.134 107.224C312.778 108.465 313.06 109.405 313.859 109.673C314.459 109.819 315.093 109.737 315.637 109.445C317.764 108.485 319.523 107.311 321.992 107.579C330.046 108.432 335.918 118.901 331.146 125.733C330.863 126.157 330.542 126.555 330.187 126.921C329.516 127.592 328.006 128.377 327.67 129.337C327.661 129.36 327.661 129.386 327.67 129.41C327.066 131.424 331.522 131.873 332.71 132.39C343.233 136.826 341.012 158.463 328.173 159.134Z" fill="#5F62E2"/>
<path d="M145.228 104.565C142.725 99.2359 144.557 91.7665 147.41 86.1224C149.591 81.7401 147.852 74.7135 142.282 73.9283C136.497 73.1498 133.262 80.4448 131.457 84.8473C129.461 89.7263 128.4 94.9375 128.33 100.209C128.182 105.815 128.593 111.422 129.558 116.947C130.001 119.322 130.8 121.597 131.363 123.919C131.987 126.456 131.31 128.98 130.39 131.355C126.786 140.476 121.713 149.012 117.894 158.066C113.767 167.648 110.455 177.562 107.995 187.702C103.257 207.721 102.277 228.948 107.814 248.914C118.283 286.644 171.335 274.255 201.716 263.678C214.42 259.256 223.191 255.142 223.191 255.142C223.191 255.142 223.265 258.068 223.265 263.021C223.265 263.249 223.265 263.484 223.265 263.692C223.305 283.604 222.507 333.635 213.93 363.358C213.559 364.64 212.779 365.766 211.709 366.564C210.64 367.362 209.339 367.79 208.004 367.781C186.408 367.694 95.4722 370.761 112.706 429.49C118.532 449.328 141.088 456.462 169.905 456.71H170.033C172.375 456.71 174.771 456.71 177.2 456.643H177.361C188.066 456.271 198.742 455.305 209.34 453.75C246.882 448.462 286.826 437.174 312.63 429.04C314.118 428.647 315.639 428.394 317.174 428.282C317.811 428.208 318.516 428.154 319.308 428.121H319.375C326.388 427.839 338.294 429.04 352.259 437.516C374.742 451.133 395.211 457.609 403.479 438.691C411.747 419.772 388.895 406.907 388.895 406.907C371.54 393.485 349.656 391.894 328.328 392.813C321.744 393.102 315.194 393.652 308.865 394.156C283.538 396.173 258.205 398.186 232.869 400.196L199.676 402.88" stroke="black" stroke-width="2" stroke-miterlimit="10"/>
<path d="M154.255 101.007C154.255 101.007 150.638 93.6979 155.114 82.2689C156.96 77.5711 159.087 71.8875 158.215 66.7401C157.941 64.8341 156.929 63.1127 155.396 61.9477C154.294 61.1504 152.921 60.8195 151.577 61.0283C146.383 61.7531 143.47 68.2702 141.712 73.8941" stroke="black" stroke-width="2" stroke-miterlimit="10"/>
<path d="M161.812 96.7655C161.812 96.7655 158.375 90.947 163.06 82.001C163.845 80.5112 165.174 78.1287 166.415 75.4174C169.65 68.6191 172.63 59.6598 166.113 57.0827C162.832 55.7875 158.731 57.9686 156.584 60.4047C156.147 60.9 155.739 61.4201 155.362 61.9617" stroke="black" stroke-width="2" stroke-miterlimit="10"/>
<path d="M166.435 75.3772C168.096 75.0168 169.802 74.9034 171.496 75.0417C175.294 75.3772 179.676 76.9007 181.153 80.5582C181.952 82.5715 181.663 86.2023 179.623 87.3364C177.032 88.7592 173.858 87.8196 171.267 89.1484C168.375 90.6383 167.241 94.6314 167.664 97.6514C167.745 98.8353 168.217 99.9587 169.006 100.846C173.583 105.423 176.724 92.7926 178.462 90.7121C180.824 87.8733 184.28 88.3834 186.75 90.7792C191.26 95.1415 189.804 102.732 188.267 108.06C186.112 115.516 182.415 124.375 176.187 129.314C173.959 131.073 170.254 133.341 169.972 136.482C169.972 136.482 157.429 176.849 158.181 199.016C158.235 200.811 158.671 202.572 159.461 204.185C160.25 205.797 161.375 207.222 162.759 208.365C164.143 209.509 165.755 210.344 167.487 210.815C169.219 211.285 171.032 211.381 172.804 211.096C179.515 210.002 186.267 208.975 192.938 207.74C197.676 206.875 202.394 206.022 207.132 205.204C228.198 201.62 249.23 198.835 270.525 198.741C271.554 198.743 272.549 198.372 273.326 197.697C274.103 197.023 274.61 196.089 274.753 195.07L275.155 192.151L277.806 175.769" stroke="black" stroke-width="2" stroke-miterlimit="10"/>
<path d="M440.309 108.115C442.813 102.787 440.98 95.3173 438.128 89.6733C435.927 85.2909 437.685 78.2644 443.255 77.4792C443.45 77.4792 443.645 77.4456 443.826 77.4456C449.309 77.1772 452.396 84.2977 454.134 88.5391C456.155 93.5852 457.198 98.9688 457.208 104.404C457.26 108.986 456.921 113.564 456.194 118.088C455.577 121.846 453.584 125.578 453.872 129.443C454.101 132.691 456.02 135.765 457.369 138.691C463.187 151.221 469.999 163.321 474.67 176.273C476.451 181.124 477.845 186.108 478.838 191.179C482.345 209.598 481.074 228.609 475.147 246.398C471.912 256.022 466.221 265.498 458.02 271.672C457.17 272.312 456.3 272.916 455.409 273.484C444.779 280.369 431.128 282.41 418.693 282.141C405.485 281.859 392.197 279.161 379.52 275.558C377.305 274.923 375.099 274.252 372.903 273.544C370.594 272.813 368.306 272.068 366.017 271.289C363.621 270.457 361.226 269.618 358.85 268.732" stroke="black" stroke-width="2" stroke-miterlimit="10"/>
<path d="M443.826 77.4456C442.067 71.8217 439.128 65.3052 433.96 64.5804C432.616 64.3717 431.244 64.7025 430.142 65.4998C428.609 66.6648 427.596 68.3862 427.323 70.2915C426.451 75.4389 428.578 81.1166 430.424 85.821C434.9 97.2299 431.276 104.565 431.276 104.565" stroke="black" stroke-width="2" stroke-miterlimit="10"/>
<path d="M430.142 65.4985C429.766 64.9482 429.343 64.4381 428.921 63.9348C426.753 61.5054 422.672 59.3243 419.384 60.6195C412.874 63.1899 415.854 72.1559 419.089 78.9543C420.364 81.6387 421.693 84.048 422.444 85.5379C427.142 94.4972 423.686 100.302 423.686 100.302" stroke="black" stroke-width="2" stroke-miterlimit="10"/>
<path d="M419.089 78.9563C417.428 78.5966 415.723 78.4812 414.028 78.6141C410.23 78.9563 405.848 80.4798 404.371 84.1373C403.573 86.1507 403.861 89.7814 405.901 90.9156C408.492 92.3383 411.666 91.392 414.257 92.7275C417.149 94.2174 418.283 98.2105 417.861 101.231C417.779 102.414 417.306 103.538 416.518 104.425C411.941 109.002 408.8 96.3717 407.062 94.2912C404.7 91.4457 401.244 91.9625 398.774 94.3584C393.909 99.0561 396.023 108.519 398.063 114.203C400.284 120.411 403.156 126.954 407.754 131.786C415.404 139.84 416.236 152.591 418.263 162.932C419.095 167.214 419.894 171.523 420.532 175.838C421.807 184.193 422.545 192.616 421.874 201.058C421.703 203.376 421.055 205.633 419.97 207.689C418.886 209.744 417.389 211.554 415.572 213.003C413.755 214.452 411.659 215.511 409.413 216.111C407.168 216.712 404.823 216.842 402.526 216.494C372.514 211.897 314.429 202.562 314.429 202.562C313.954 202.48 313.522 202.233 313.211 201.865C312.899 201.497 312.727 201.031 312.724 200.548L312.442 174.919" stroke="black" stroke-width="2" stroke-miterlimit="10"/>
<path d="M264.968 136.845C263.74 150.046 268.324 164.971 276.914 174.81C292.94 193.138 306.443 174.81 306.443 174.81" stroke="black" stroke-width="2" stroke-miterlimit="10"/>
<path d="M319.08 140.94C318.61 140.068 318.885 138.49 318.482 137.383C317.962 135.932 317.029 134.666 315.798 133.739C313.234 131.867 309.845 131.981 307.141 130.33C304.684 128.793 302.744 126.556 301.57 123.907C301.195 123.062 300.899 121.773 300.181 121.162C298.953 120.136 298.242 121.941 297.497 122.652C296.434 123.643 295.098 124.291 293.662 124.514C292.226 124.736 290.756 124.523 289.443 123.901C288.235 123.303 287.397 122.102 286.135 121.625C284.873 121.149 284.793 123.25 284.605 123.988C284.485 124.619 284.224 125.215 283.842 125.733C283.459 126.249 282.965 126.674 282.397 126.974C280.175 128.068 277.142 127.35 275.209 126.055C275.08 125.965 274.927 125.915 274.77 125.908C274.613 125.902 274.457 125.94 274.321 126.019C274.184 126.098 274.073 126.213 274 126.353C273.927 126.492 273.895 126.649 273.907 126.806C274.209 135.531 263.874 137.095 263.874 137.095" stroke="black" stroke-width="2" stroke-miterlimit="10"/>
<path d="M279.551 156.045C284.718 156.045 288.907 151.857 288.907 146.69C288.907 141.523 284.718 137.335 279.551 137.335C274.384 137.335 270.196 141.523 270.196 146.69C270.196 151.857 274.384 156.045 279.551 156.045Z" stroke="black" stroke-width="2" stroke-miterlimit="10"/>
<path d="M303.799 155.212C308.966 155.212 313.154 151.024 313.154 145.857C313.154 140.69 308.966 136.501 303.799 136.501C298.632 136.501 294.443 140.69 294.443 145.857C294.443 151.024 298.632 155.212 303.799 155.212Z" stroke="black" stroke-width="2" stroke-miterlimit="10"/>
<path d="M275.639 147.63C275.639 147.63 279.41 151.958 283.289 147.63" stroke="black" stroke-width="2" stroke-miterlimit="10"/>
<path d="M299.987 147.63C299.987 147.63 303.758 151.958 307.644 147.63" stroke="black" stroke-width="2" stroke-miterlimit="10"/>
<path d="M292.799 168.266C294.619 168.266 296.094 166.791 296.094 164.971C296.094 163.151 294.619 161.676 292.799 161.676C290.979 161.676 289.504 163.151 289.504 164.971C289.504 166.791 290.979 168.266 292.799 168.266Z" stroke="black" stroke-width="2" stroke-miterlimit="10"/>
<path d="M288.906 146.69C288.906 146.69 291.027 143.234 294.443 145.858" stroke="black" stroke-width="2" stroke-miterlimit="10"/>
<path d="M284.605 132.804C284.605 132.804 274.894 125.382 266.753 132.381" stroke="black" stroke-width="2" stroke-miterlimit="10"/>
<path d="M313.02 128.912C313.02 128.912 301.483 124.886 295.913 134.046" stroke="black" stroke-width="2" stroke-miterlimit="10"/>
<path d="M272.672 169.178C272.65 170.734 272.139 172.243 271.211 173.492C270.284 174.741 268.987 175.667 267.505 176.138C262.713 177.554 257.64 173.957 255.559 169.803C254.801 168.367 254.454 166.75 254.559 165.129C254.663 163.509 255.213 161.949 256.15 160.622C256.234 160.489 256.289 160.341 256.313 160.186C256.338 160.031 256.33 159.872 256.291 159.72C256.252 159.568 256.183 159.426 256.087 159.302C255.991 159.178 255.871 159.074 255.734 158.998C254.802 158.437 254.032 157.645 253.498 156.698C252.964 155.752 252.685 154.682 252.687 153.595C252.689 153.144 252.738 152.694 252.834 152.253C252.865 152.09 252.861 151.922 252.824 151.761C252.786 151.599 252.715 151.448 252.615 151.315C252.515 151.183 252.389 151.072 252.244 150.991C252.1 150.909 251.939 150.86 251.774 150.844C251.285 150.799 250.801 150.719 250.324 150.602C248.99 150.128 247.784 149.349 246.803 148.326C245.823 147.303 245.096 146.064 244.68 144.71C242.667 138.16 247.734 131.167 254.036 129.59C252.157 126.288 249.667 123.623 248.667 119.791C247.667 115.959 248.244 112 251.15 109.141C255.68 104.705 263.364 106.087 267.015 110.953C264.552 107.262 265.471 102.228 268.243 98.9937C271.599 95.0878 278.142 94.2355 282.726 96.222C284.907 97.1817 286.309 99.1681 287.799 100.92C290.779 92.4906 302.564 92.4369 308.832 96.8528C312.094 99.1816 314.201 103.403 313.161 107.255C312.61 109.208 313.624 110.376 315.664 109.476C317.704 108.577 319.55 107.342 322.019 107.611C330.569 108.517 336.643 120.228 330.213 126.952C329.542 127.664 328.032 128.408 327.697 129.368C326.965 131.381 331.509 131.905 332.717 132.422C343.334 136.878 341.005 158.743 328.019 159.186C328.408 161.045 329.294 163.105 329.153 165.024C328.871 169.084 325.992 171.286 322.086 171.413C322.182 172.342 321.995 173.278 321.549 174.098C321.104 174.918 320.421 175.586 319.59 176.01C317.496 177.124 314.067 176.863 312.489 174.923C309.966 171.876 312.557 167.883 313.832 164.971C315.711 160.709 316.637 156.112 317.489 151.548C318.27 147.767 318.772 143.934 318.993 140.079V139.918" stroke="black" stroke-width="2" stroke-miterlimit="10"/>
<path d="M0 451.79H136.39" stroke="black" stroke-width="2" stroke-miterlimit="10"/>
<path d="M479.589 451.79H604" stroke="black" stroke-width="2" stroke-miterlimit="10"/>
</svg>
