<svg width="516" height="507" viewBox="0 0 516 507" fill="none" xmlns="http://www.w3.org/2000/svg">
<path d="M401.364 108.116C398.992 101.533 396.351 94.9964 393.459 88.6422C387.698 75.9964 386.374 64.0122 378.28 53.437" stroke="#CCDDE2" stroke-width="2" stroke-miterlimit="10"/>
<path d="M359.52 41.316C352.555 34.2316 346.041 26.6167 334.206 20.9297C309.193 8.9513 277.211 7.73634 236.387 24.6773" stroke="#CCDDE2" stroke-width="2" stroke-miterlimit="10"/>
<path d="M64.7594 505.577C25.2021 449.661 12.408 386.444 19.019 321.789" stroke="#CCDDE2" stroke-width="2" stroke-miterlimit="10"/>
<path d="M423.621 230.308V230.998C423.234 243.547 434.83 295.568 467.719 312.092C500.609 328.617 524.058 401.149 449.906 429.606C375.753 458.064 379.792 505.578 379.792 505.578" stroke="#CCDDE2" stroke-width="2" stroke-miterlimit="10"/>
<path d="M236.382 78.3864V16.9313C236.371 12.7093 234.689 8.66323 231.704 5.6778C228.718 2.69238 224.673 1.01055 220.45 1H16.9313C12.7093 1.01055 8.66322 2.69238 5.6778 5.6778C2.69238 8.66323 1.01055 12.7093 1 16.9313V305.897C1.00753 310.116 2.68953 314.161 5.6766 317.141C8.66362 320.122 12.7115 321.795 16.9313 321.794H220.45C222.425 321.806 224.382 321.43 226.211 320.687" stroke="black" stroke-width="2" stroke-linecap="round" stroke-linejoin="round"/>
<path d="M215.003 10.7369H22.3785C14.5186 10.7369 8.14697 17.1086 8.14697 24.9684V297.854C8.14697 305.714 14.5186 312.085 22.3785 312.085H215.003C222.863 312.085 229.234 305.714 229.234 297.854V24.9684C229.234 17.1086 222.863 10.7369 215.003 10.7369Z" fill="#5F62E2"/>
<path d="M211.518 34.0542H28.2824C24.3509 34.0542 21.1638 37.2416 21.1638 41.1728V83.3597C21.1638 87.2914 24.3509 90.4783 28.2824 90.4783H211.518C215.45 90.4783 218.637 87.2914 218.637 83.3597V41.1728C218.637 37.2416 215.45 34.0542 211.518 34.0542Z" fill="#5F62E2"/>
<path d="M118.691 57.8188C121.914 57.8188 124.526 55.2064 124.526 51.9836C124.526 48.7609 121.914 46.1484 118.691 46.1484C115.468 46.1484 112.856 48.7609 112.856 51.9836C112.856 55.2064 115.468 57.8188 118.691 57.8188Z" fill="#D7E8F0"/>
<path d="M102.383 78.3875C102.383 74.0621 104.101 69.9142 107.16 66.8563C110.218 63.7978 114.365 62.0797 118.691 62.0797C123.016 62.0797 127.164 63.7978 130.222 66.8563C133.281 69.9142 134.999 74.0621 134.999 78.3875H102.383Z" fill="#D7E8F0"/>
<path d="M119.877 150.935C113.656 150.932 107.574 152.773 102.4 156.228C97.2261 159.682 93.1933 164.593 90.8108 170.34C88.4288 176.086 87.8048 182.41 89.0174 188.512C90.2301 194.614 93.2253 200.218 97.6242 204.617C102.023 209.016 107.628 212.011 113.729 213.224C119.831 214.437 126.155 213.813 131.902 211.431C137.649 209.049 142.56 205.015 146.014 199.841C149.468 194.667 151.31 188.586 151.306 182.364C151.302 174.03 147.989 166.039 142.096 160.146C136.203 154.253 128.211 150.94 119.877 150.935ZM119.877 206.213C118.66 206.213 117.493 205.729 116.632 204.869C115.772 204.008 115.288 202.841 115.288 201.624C115.288 200.407 115.772 199.239 116.632 198.379C117.493 197.519 118.66 197.035 119.877 197.035C121.095 197.035 122.262 197.519 123.122 198.379C123.982 199.239 124.466 200.407 124.466 201.624C124.466 202.841 123.982 204.008 123.122 204.869C122.262 205.729 121.095 206.213 119.877 206.213ZM125.701 170.848C124.714 177.658 123.881 184.84 121.879 191.462C121.389 193.036 118.4 193.036 117.887 191.462C116.451 186.478 115.351 181.403 114.59 176.272C113.974 172.542 111.789 166.507 113.882 162.868C115.702 159.634 120.875 159.234 123.864 160.928C127.578 163.062 126.129 167.482 125.701 170.871V170.848Z" fill="#D7E8F0"/>
<path d="M40.9109 115.668H194.457" stroke="white" stroke-width="2" stroke-miterlimit="10"/>
<path d="M40.9109 130.777H194.457" stroke="white" stroke-width="2" stroke-miterlimit="10"/>
<path d="M40.9109 228.106H194.457" stroke="white" stroke-width="2" stroke-miterlimit="10"/>
<path d="M76.5781 242.4H158.79" stroke="white" stroke-width="2" stroke-miterlimit="10"/>
<path d="M57.2246 336.008C57.2246 336.008 84.5468 227.438 169.645 200.92L204.234 192.666C204.234 192.666 209.704 168.236 207.691 165.669C205.677 163.102 201.542 157.843 193.967 158.984C186.392 160.125 166.81 160.49 161.796 136.55C156.782 112.61 175.309 55.7072 223.457 47.1968C271.604 38.6864 272.728 74.0399 272.728 74.0399L237.363 155.989L242.85 222.099L243.54 320.579L57.2246 336.008Z" fill="white"/>
<path d="M351.295 252.139C350.724 252.304 343.446 254.42 340.582 259.462C340.037 258.308 339.175 257.333 338.096 256.65C337.017 255.967 335.767 255.605 334.49 255.606H249.016C247.495 255.604 246.018 256.118 244.828 257.063C243.637 258.01 242.803 259.332 242.462 260.814L225.629 332.987C224.489 332.765 223.348 332.628 222.161 332.514L182.439 322.6C180.735 322.172 178.932 322.395 177.384 323.226C175.836 324.056 174.653 325.433 174.065 327.089C173.801 327.832 173.669 328.616 173.677 329.405C173.677 331.196 174.357 332.921 175.578 334.232C176.8 335.542 178.473 336.341 180.26 336.467L199.043 337.675C180.95 346.191 158.938 362.414 140.566 377.318C122.689 349.329 139.465 321.345 152.082 306.275C150.456 289.665 142.22 251.1 101.122 252.149C115.28 233.994 132.934 218.434 154.808 208.017C229.736 291.068 315.456 223.167 317.276 221.707C330.094 230.069 341.566 240.335 351.295 252.149" fill="#2E2E2E"/>
<path d="M343.509 490.383V504.734H96.063V484.405C105.703 484.975 115.845 482.693 125.068 478.535C136.744 473.219 146.829 464.96 155.453 455.537C164.323 445.783 169.194 432.259 174.847 420.497C183.334 402.786 194.577 390.169 212.419 384.824L211.278 389.73C211.05 390.717 211.046 391.744 211.269 392.733C211.491 393.721 211.934 394.648 212.563 395.442C213.193 396.236 213.994 396.878 214.906 397.32C215.819 397.762 216.819 397.993 217.832 397.995H303.735C302.023 412.825 294.808 493.822 343.509 490.4" fill="#2E2E2E"/>
<path d="M303.775 112.942C303.706 120.615 302.706 128.251 300.797 135.684C299.927 139.208 298.058 142.405 295.415 144.893C292.772 147.381 289.468 149.053 285.898 149.71C285.756 144.531 283.554 139.985 280.194 137.161C280.501 132.776 280.457 128.374 280.063 123.996C279.841 121.104 279.493 118.406 279.128 115.982C278.91 114.602 278.596 113.24 278.186 111.904C277.04 110.672 275.689 109.647 274.194 108.875C268.906 105.897 258.023 102.732 237.859 107.386C234.567 108.14 231.469 109.576 228.767 111.601C228.707 111.639 228.653 111.685 228.607 111.738C226.788 113.415 224.472 115.537 222.076 116.638C219.595 117.779 217.005 117.825 214.832 115.127C214.775 115.069 214.746 115.018 214.695 114.961C213.554 113.472 212.465 111.539 210.451 111.157C206.208 110.358 204.143 114.579 203.607 118.127C203.139 121.407 204.103 124.299 205.512 127.054C206.692 129.294 208.234 131.323 210.075 133.06C210.548 133.517 210.981 134.013 211.37 134.543C211.193 134.574 211.019 134.622 210.851 134.686C210.46 134.817 210.079 134.973 209.71 135.153C204.576 137.463 200.92 143.253 200.84 150.029C200.84 150.24 192.233 150.115 191.143 150.029C186.945 149.641 182.81 148.432 179.855 145.267C171.47 136.283 171.51 122.952 174.955 112.525C178.218 102.629 182.371 92.9664 187.812 84.0625C199.602 64.7943 217.895 50.5799 241.053 49.3022C246.607 49.0233 252.174 49.3484 257.658 50.2719C260.252 50.6809 262.819 51.2524 265.341 51.9831C288.95 62.2846 303.934 85.6368 303.797 112.942" fill="#2E2E2E"/>
<path d="M290.102 332.603C287.313 339.762 280.673 343.857 275.272 341.73C269.87 339.602 267.748 332.119 270.532 324.96C273.315 317.801 279.96 313.7 285.362 315.834C290.764 317.967 292.891 325.451 290.102 332.609" fill="#5F62E2"/>
<path d="M304.454 396.534C304.454 396.534 289.304 502.144 349.903 490.439C410.172 478.786 432.982 233.599 258.531 198.337" stroke="black" stroke-width="2" stroke-miterlimit="10"/>
<path d="M162.572 294.861C162.572 294.861 113.677 336.096 140.024 377.336" stroke="black" stroke-width="2" stroke-miterlimit="10"/>
<path d="M305.554 367.2C304.716 367.251 303.518 366.692 302.702 366.47C301.668 366.196 300.643 365.903 299.628 365.591C293.671 363.737 288.066 360.899 283.046 357.195C281.906 356.379 279.875 355.855 278.483 356.391C277.708 356.675 277.025 357.162 276.503 357.801C275.981 358.44 275.64 359.208 275.517 360.024C275.089 362.967 277.165 365.848 279.43 367.736C282.117 369.983 284.906 372.054 288.163 373.4C291.307 374.662 294.55 375.66 297.86 376.383C299.36 376.731 300.883 376.954 302.371 377.336" stroke="black" stroke-width="2" stroke-miterlimit="10"/>
<path d="M324.32 338.626C324.937 341.878 325.387 345.254 325.079 348.557C324.822 351.352 323.819 354.615 320.71 355.293C320.119 355.45 319.506 355.506 318.896 355.459C307.191 354.769 297.546 350.724 286.531 342.762C275.517 334.799 271.638 353.137 281.7 356.389" stroke="black" stroke-width="2" stroke-miterlimit="10"/>
<path d="M282.122 369.948C281.852 369.726 281.595 369.487 281.352 369.235C275.871 363.502 274.878 375.019 280.634 378.407L281.375 378.846C281.763 379.012 282.179 379.206 282.59 379.417C282.784 379.468 283.001 379.554 283.2 379.611M283.2 379.611C288.403 381.892 293.941 383.352 299.394 384.841C293.998 383.079 288.619 381.345 283.2 379.611ZM283.2 379.611C282.733 379.417 282.288 379.223 281.82 379C281.676 378.94 281.527 378.895 281.375 378.863C281.278 378.819 281.172 378.801 281.065 378.811C280.959 378.821 280.858 378.859 280.771 378.92C280.641 379.027 280.545 379.17 280.497 379.331C279.613 381.453 280.331 384.128 281.461 386.028C282.647 388.035 284.684 389.581 286.691 390.682C292.093 393.711 298.373 395.502 304.436 396.574C305.561 396.807 306.714 396.882 307.859 396.797" stroke="black" stroke-width="2" stroke-miterlimit="10"/>
<path d="M356.771 409.864C356.771 409.864 338.181 378.183 336.111 350.639C334.844 333.59 329.836 329.979 326.254 329.734" stroke="black" stroke-width="2" stroke-miterlimit="10"/>
<path d="M320.71 355.288L324.326 338.627L326.254 329.728L340.548 263.756C340.761 262.774 340.75 261.757 340.518 260.778C340.285 259.801 339.837 258.887 339.206 258.105C338.575 257.323 337.777 256.692 336.87 256.258C335.963 255.825 334.971 255.6 333.966 255.599H248.486C246.966 255.598 245.489 256.112 244.299 257.058C243.108 258.004 242.274 259.326 241.932 260.807L225.099 332.985L212.813 385.651L211.672 390.585C211.445 391.572 211.443 392.598 211.667 393.587C211.891 394.574 212.334 395.5 212.964 396.293C213.594 397.087 214.395 397.728 215.307 398.169C216.219 398.611 217.219 398.842 218.232 398.844H304.128" stroke="black" stroke-width="2" stroke-miterlimit="10"/>
<path d="M214.729 113.228C214.729 113.228 219.253 94.0456 244.795 91.5017C270.338 88.9577 276.738 108.043 276.738 108.043L275.933 109.966C275.933 109.966 242.354 96.4927 223.81 115.721C223.81 115.721 217.131 118.75 214.729 113.24" fill="#5F62E2"/>
<path d="M221.62 332.512L181.891 322.587C180.944 322.353 179.958 322.318 178.996 322.484C178.034 322.652 177.118 323.017 176.304 323.557C175.492 324.097 174.8 324.801 174.273 325.623C173.746 326.445 173.396 327.367 173.245 328.332C173.095 329.296 173.146 330.282 173.396 331.225C173.647 332.169 174.091 333.05 174.7 333.813C175.309 334.575 176.07 335.203 176.935 335.656C177.8 336.108 178.75 336.377 179.724 336.442L198.507 337.68" stroke="black" stroke-width="2" stroke-miterlimit="10"/>
<path d="M316.763 221.679C316.763 221.679 229.988 291.975 154.273 208.017" stroke="black" stroke-width="2" stroke-miterlimit="10"/>
<path d="M151.552 306.262C149.926 289.652 141.695 251.059 100.564 252.137" stroke="black" stroke-width="2" stroke-miterlimit="10"/>
<path d="M350.776 252.126C350.776 252.126 343.024 254.259 340.052 259.473" stroke="black" stroke-width="2" stroke-miterlimit="10"/>
<path d="M35.863 505.589H404.291" stroke="black" stroke-width="2" stroke-miterlimit="10"/>
<path d="M280.194 137.183C283.668 140.104 285.898 144.872 285.898 150.268C285.898 159.224 279.675 166.468 271.986 166.468C271.116 166.463 270.25 166.362 269.402 166.165C278.357 159.321 280.171 137.183 280.171 137.183" fill="#5F62E2"/>
<path d="M229.537 173.332C233.854 175.48 238.578 176.687 243.396 176.873C248.214 177.059 253.017 176.219 257.487 174.41C282.687 163.886 281.723 132.868 279.105 116.007C278.896 114.639 278.599 113.286 278.215 111.957V111.928C275.323 102.288 267.777 94.434 257.834 92.2038C238.578 87.8516 220.969 98.7691 213.663 113.468" stroke="black" stroke-width="2" stroke-miterlimit="10"/>
<path d="M278.455 112.258C278.455 112.258 278.375 112.144 278.209 111.956V111.927C276.498 109.999 266.59 100.799 237.91 107.41C234.62 108.162 231.524 109.598 228.824 111.625C228.76 111.661 228.702 111.708 228.653 111.762" stroke="black" stroke-width="2" stroke-miterlimit="10"/>
<path d="M202.009 158.985H187.824C177.585 158.985 169.468 149.608 165.937 140.807C160.975 128.429 164.152 115.76 168.618 103.73C172.36 93.6629 177.117 83.8805 183.374 75.1248C197.384 55.5316 218.534 44.4316 242.844 46.485C245.001 46.6675 247.147 46.9333 249.284 47.2836C281.928 52.5769 303.94 79.8706 303.775 112.925C303.706 120.604 302.707 128.246 300.797 135.684C299.919 139.205 298.048 142.4 295.405 144.887C292.763 147.374 289.461 149.048 285.893 149.71" stroke="black" stroke-width="2" stroke-miterlimit="10"/>
<path d="M211.381 134.543C210.99 134.012 210.557 133.515 210.086 133.054C208.244 131.32 206.701 129.292 205.523 127.054C204.114 124.299 203.15 121.407 203.618 118.127C204.143 114.602 206.207 110.358 210.463 111.157C212.476 111.544 213.549 113.472 214.706 114.961C219.11 120.665 225.173 114.933 228.892 111.487" stroke="black" stroke-width="2" stroke-miterlimit="10"/>
<path d="M280.194 137.183C283.668 140.104 285.898 144.872 285.898 150.268C285.898 159.224 279.675 166.468 271.986 166.468C271.116 166.463 270.25 166.362 269.402 166.165" stroke="black" stroke-width="2" stroke-miterlimit="10"/>
<path d="M250.425 148.177C253.539 150.27 261.063 151.987 259.551 145.781C257.737 138.428 255.296 122.72 270.246 121.522C270.246 121.522 276.829 121.801 280.08 124.037" stroke="black" stroke-width="2" stroke-miterlimit="10"/>
<path d="M256.055 160.468C256.055 160.468 248.526 164.461 244.795 156.503" stroke="black" stroke-width="2" stroke-miterlimit="10"/>
<path d="M240.785 132.262C240.494 134.789 241.481 136.973 242.993 137.15C244.504 137.327 245.964 135.439 246.261 132.895C246.558 130.351 245.559 128.189 244.054 128.012C242.548 127.836 241.076 129.724 240.785 132.262Z" fill="black"/>
<path d="M265.301 133.75C265.01 136.271 265.997 138.462 267.509 138.638C269.02 138.815 270.48 136.927 270.771 134.383C271.062 131.839 270.075 129.672 268.57 129.501C267.064 129.329 265.592 131.212 265.301 133.75Z" fill="black"/>
<path d="M250.425 123.136C250.425 123.136 245.816 116.029 235.372 122.771" stroke="black" stroke-width="2" stroke-miterlimit="10"/>
<path d="M258.525 173.941V213.367" stroke="black" stroke-width="2" stroke-miterlimit="10"/>
<path d="M102.657 409.864C102.657 409.864 118.908 394.463 140.013 377.351C158.385 362.447 180.42 346.196 198.519 337.686C200.834 336.608 203.082 335.644 205.266 334.834C210.479 332.847 216.074 332.067 221.631 332.552C222.795 332.648 223.952 332.804 225.099 333.02" stroke="black" stroke-width="2" stroke-miterlimit="10"/>
<path d="M212.813 385.651C194.965 390.996 183.722 403.613 175.24 421.324C169.599 433.086 164.717 446.61 155.847 456.364C147.228 465.781 137.143 474.046 125.467 479.362C104.283 489.002 78.1981 488.261 64.4343 467.298C55.1253 453.084 51.4634 435.424 49.6039 418.814C46.4096 389.946 56.4943 308.573 100.563 252.132C114.721 233.976 132.38 218.415 154.25 208C169.599 200.71 186.951 195.942 206.618 194.59L212.128 166.167" stroke="black" stroke-width="2" stroke-miterlimit="10"/>
<path d="M343.902 491.34V505.589" stroke="black" stroke-width="2" stroke-miterlimit="10"/>
<path d="M96.4565 486.253V505.59" stroke="black" stroke-width="2" stroke-miterlimit="10"/>
<path d="M228.624 150.27C228.679 154.546 227.16 158.693 224.358 161.923C222.786 162.65 221.075 163.025 219.344 163.024C211.661 163.024 205.432 155.78 205.432 146.825C205.377 142.549 206.898 138.403 209.704 135.177C211.275 134.447 212.986 134.069 214.718 134.071C222.401 134.071 228.624 141.32 228.624 150.27Z" fill="#5F62E2"/>
<path d="M214.729 166.469C222.403 166.469 228.624 159.217 228.624 150.27C228.624 141.323 222.403 134.071 214.729 134.071C207.055 134.071 200.834 141.323 200.834 150.27C200.834 159.217 207.055 166.469 214.729 166.469Z" stroke="black" stroke-width="2" stroke-miterlimit="10"/>
<path d="M379.929 8.70208C371.368 6.15016 362.244 6.19402 353.708 8.82814C345.173 11.4622 337.61 16.5682 331.976 23.5004C326.343 30.4327 322.892 38.8798 322.059 47.7735C321.226 56.6672 323.049 65.6082 327.298 73.466C331.546 81.3233 338.029 87.7449 345.928 91.9174C353.826 96.0904 362.784 97.8273 371.669 96.9095C380.555 95.9912 388.968 92.4587 395.846 86.7587C402.724 81.0586 407.756 73.4472 410.308 64.8866C413.73 53.4073 412.452 41.0393 406.755 30.5023C401.058 19.9659 391.408 12.124 379.929 8.70208ZM357.238 84.8165C356.408 84.5683 355.634 84.1593 354.961 83.6123C354.289 83.0653 353.73 82.3911 353.319 81.6285C352.906 80.8659 352.648 80.0296 352.56 79.1672C352.471 78.3047 352.552 77.4332 352.801 76.6027C353.049 75.7722 353.458 74.9981 354.005 74.3256C354.552 73.6531 355.226 73.0947 355.989 72.6829C357.529 71.8507 359.337 71.6641 361.014 72.165C362.692 72.6658 364.102 73.8123 364.934 75.3529C365.766 76.893 365.953 78.7012 365.452 80.3787C364.951 82.0563 363.805 83.4663 362.264 84.2985C360.724 85.1307 358.916 85.3173 357.238 84.8165ZM380.054 38.6482C379.959 38.8764 379.868 39.0988 379.781 39.3156C376.079 48.4203 371.476 57.132 366.04 65.3201C364.722 67.3165 360.592 66.0845 360.581 63.6888C360.658 56.2439 361.229 48.8122 362.292 41.4432C362.954 36.0586 362.44 26.8409 366.793 22.6997C370.654 18.9921 377.938 20.5835 381.372 24.1428C385.165 28.0958 381.88 34.3074 380.037 38.6482H380.054Z" fill="#D7E8F0"/>
<path d="M411.175 267.675C408.041 270.861 405.923 274.905 405.088 279.296C404.253 283.686 404.738 288.226 406.483 292.34C408.229 296.455 411.154 299.959 414.891 302.41C418.628 304.861 423.008 306.149 427.477 306.111C431.946 306.073 436.303 304.71 439.998 302.195C443.692 299.68 446.557 296.126 448.231 291.982C449.906 287.839 450.313 283.292 449.404 278.916C448.493 274.541 446.306 270.533 443.118 267.401C438.845 263.204 433.08 260.874 427.089 260.926C421.1 260.977 415.376 263.404 411.175 267.675ZM439.513 295.528C438.899 296.153 438.061 296.508 437.185 296.516C436.309 296.523 435.466 296.182 434.841 295.568C434.217 294.954 433.861 294.117 433.854 293.24C433.846 292.364 434.187 291.521 434.801 290.896C435.105 290.587 435.468 290.341 435.867 290.171C436.266 290.002 436.695 289.913 437.129 289.909C437.563 289.905 437.993 289.987 438.395 290.149C438.797 290.312 439.164 290.552 439.473 290.856C439.782 291.161 440.028 291.522 440.198 291.922C440.367 292.322 440.457 292.75 440.46 293.184C440.464 293.617 440.382 294.048 440.22 294.45C440.057 294.852 439.817 295.219 439.513 295.528ZM424.317 274.737C427.323 278.672 430.592 282.722 432.953 287.08C433.524 288.13 432.012 289.67 430.951 289.111C427.674 287.336 424.52 285.343 421.511 283.144C419.286 281.593 415.088 279.659 414.278 276.767C413.542 274.189 415.95 271.343 418.328 270.658C421.249 269.825 422.8 272.809 424.317 274.737Z" fill="#5F62E2"/>
<path d="M499.759 86.7153C502.01 83.9466 503.389 80.5721 503.721 77.0196C504.054 73.4672 503.327 69.8953 501.63 66.7564C499.933 63.6175 497.344 61.0524 494.189 59.3845C491.035 57.7173 487.457 57.0225 483.907 57.3887C480.358 57.7549 476.997 59.1655 474.249 61.4414C471.502 63.7179 469.49 66.7576 468.47 70.1771C467.45 73.5961 467.466 77.2409 468.517 80.6508C469.569 84.0607 471.608 87.0821 474.376 89.3335C476.214 90.8285 478.329 91.9465 480.6 92.6241C482.871 93.3017 485.253 93.5253 487.61 93.2818C489.967 93.0388 492.253 92.3338 494.338 91.2072C496.422 90.0801 498.264 88.5537 499.759 86.7153ZM475.134 66.6999C475.353 66.4307 475.622 66.2077 475.927 66.0428C476.231 65.878 476.566 65.7748 476.91 65.7388C477.255 65.7029 477.603 65.7354 477.935 65.8346C478.267 65.9333 478.576 66.0965 478.845 66.3149C479.114 66.5334 479.337 66.8026 479.502 67.1072C479.667 67.4118 479.77 67.7455 479.806 68.0906C479.842 68.4351 479.81 68.783 479.71 69.115C479.612 69.447 479.448 69.7562 479.23 70.0254C478.789 70.5684 478.15 70.9141 477.454 70.9865C476.759 71.0584 476.063 70.8513 475.52 70.4104C474.977 69.9695 474.631 69.3306 474.558 68.6347C474.487 67.9389 474.694 67.243 475.134 66.6999ZM488.784 82.1008C486.098 79.1974 483.206 76.2427 480.987 72.9344C480.451 72.1416 481.557 70.8068 482.424 71.1719C485.171 72.3429 487.837 73.6959 490.404 75.2217C492.286 76.2884 495.772 77.5033 496.633 79.7507C497.409 81.7414 495.709 84.1884 493.866 84.8843C491.591 85.7627 490.13 83.5097 488.784 82.0665V82.1008Z" fill="#5F62E2"/>
<path d="M320.425 205.667C326.79 216.504 326.499 224.222 324.845 236.731C324.183 241.494 329.311 244.716 333.47 242.321C370.209 221.216 404.502 237.906 448.308 227.559C464.394 223.783 484.449 215.957 498.196 203.374C502.757 196.601 505.195 188.621 505.195 180.455C505.195 146.231 458.422 118.447 400.737 118.447C363.769 118.447 331.291 129.855 312.724 147.041C312.724 147.041 312.724 147.041 312.673 147.092C307.961 154.148 305.372 161.86 305.372 169.908C305.343 182.189 314.475 195.502 320.425 205.667Z" fill="#D7E8F0"/>
<path d="M305.509 169.908C305.509 170.193 305.509 170.478 305.509 170.775C305.714 182.753 311.726 193.916 318.845 203.573C323.613 210.03 329.271 217.205 327.931 225.123C327.361 228.613 325.393 231.779 324.902 235.281C324.412 238.784 326.277 243.153 329.813 243.336C332.061 243.45 333.972 241.852 335.751 240.484C346.275 232.327 359.953 229.275 373.255 228.739C386.557 228.203 399.841 229.96 413.149 230.336C432.337 230.906 451.828 228.488 469.55 221.13C485.43 214.547 499.981 203.744 509.535 189.313C518.924 175.144 513.374 154.57 503.358 142.249C493.969 130.687 480.365 123.289 466.413 118.075C428.886 104.066 386.055 104.386 349.047 119.735C338.061 124.299 327.435 130.231 319.198 138.815C311.173 147.177 305.594 158.323 305.509 169.908Z" stroke="black" stroke-width="2" stroke-miterlimit="10"/>
<path d="M459.483 183.54C467.44 183.54 473.891 177.089 473.891 169.131C473.891 161.174 467.44 154.723 459.483 154.723C451.525 154.723 445.074 161.174 445.074 169.131C445.074 177.089 451.525 183.54 459.483 183.54Z" fill="white"/>
<path d="M412.881 183.54C420.839 183.54 427.289 177.089 427.289 169.131C427.289 161.174 420.839 154.723 412.881 154.723C404.923 154.723 398.473 161.174 398.473 169.131C398.473 177.089 404.923 183.54 412.881 183.54Z" fill="white"/>
<path d="M365.372 183.54C373.33 183.54 379.781 177.089 379.781 169.131C379.781 161.174 373.33 154.723 365.372 154.723C357.415 154.723 350.964 161.174 350.964 169.131C350.964 177.089 357.415 183.54 365.372 183.54Z" fill="white"/>
</svg>
