<svg width="120" height="151" viewBox="0 0 120 151" fill="none" xmlns="http://www.w3.org/2000/svg">
<path d="M83.9242 72.4031C72.8046 79.0248 59.2399 71.2227 59.8773 71.087C80.898 66.5163 82.7554 53.2546 82.7554 53.2546C78.5589 43.0008 67.1198 46.3018 67.1198 46.3018C66.7887 60.8531 49.4696 61.6725 49.4696 61.6725C48.3571 56.9512 48.4184 45.9277 48.4184 45.9277C43.169 42.2576 42.1062 43.8153 42.1062 43.8153C43.7616 29.2475 50.4281 24.551 50.4281 24.551C51.5389 23.5163 56.5035 21.1904 59.0529 20.8892L59.1439 21.2931C59.1439 21.2931 56.5664 27.7294 61.5062 28.1532C65.6631 28.5174 68.0254 23.4005 68.6693 21.7765C74.0743 23.4518 79.2327 27.2013 82.6644 33.5086C90.7827 48.4307 83.9242 72.4031 83.9242 72.4031Z" fill="#2E2E2E"/>
<path d="M85.126 66.124L112.144 84.0027C117.384 87.4692 116.71 95.3591 110.964 97.8869L79.3453 111.803C76.4047 113.096 73.1807 113.612 69.9834 113.299C66.7861 112.986 63.723 111.855 61.0891 110.016L48.9464 101.527" stroke="black" stroke-miterlimit="10"/>
<path d="M85.126 71.8896L84.2172 71.287L112.149 89.765C117.389 93.2315 116.715 101.121 110.969 103.649L79.3502 117.565C76.4096 118.858 73.1857 119.374 69.9884 119.061C66.7911 118.748 63.728 117.618 61.094 115.779L45.6554 104.783" stroke="black" stroke-miterlimit="10"/>
<path d="M108.638 96.9001L79.577 109.692C76.8745 110.88 73.9116 111.354 70.9732 111.066C68.0348 110.778 65.2199 109.74 62.7991 108.049L51.663 100.226C53.1963 99.0508 54.9145 98.1388 56.7469 97.5275C61.3374 95.9682 65.8173 94.1006 70.1559 91.9371C73.4494 90.3078 76.3424 87.9713 78.6283 85.0945C80.9143 82.2175 82.5366 78.8714 83.3795 75.2949C83.9623 72.8201 84.4738 70.317 84.8926 67.8008L110.469 84.7078C115.283 87.8928 113.917 94.5791 108.638 96.9001Z" fill="#5F62E2"/>
<path d="M33.7545 133.972C33.7545 133.972 38.8499 131.86 39.8266 130.267C39.8266 130.267 40.0104 133.883 39.0569 135.118C38.1033 136.352 32.4053 139.617 32.099 139.208C31.7928 138.799 33.7545 133.972 33.7545 133.972Z" fill="#5F62E2"/>
<path d="M18.0692 142.587C18.0692 142.587 18.9963 143.845 22.2856 142.587C25.575 141.329 32.7314 136.695 32.7314 136.695C32.7314 136.695 30.735 142.056 30.0115 142.645C29.2881 143.234 15.6208 149.929 15.6208 149.929C15.6208 149.929 9.5106 150.798 11.8133 146.453L18.0692 142.587Z" fill="#5F62E2"/>
<path d="M37.7391 72.5486C30.2069 75.4804 22.2359 82.3686 24.5287 101.444L25.1661 106.401" stroke="black" stroke-miterlimit="10"/>
<path d="M37.7275 60.0913C38.9592 58.3332 40.0716 56.4328 40.7537 54.3866C41.4357 52.3405 41.4705 50.1239 41.6609 47.9718C42.1674 42.201 42.9521 37.4283 45.1787 32.0531C47.1073 27.4013 52.9327 21.4087 58.7284 20.8408L59.2499 20.7961" stroke="black" stroke-miterlimit="10"/>
<path d="M52.2954 72.1263C52.2673 72.0452 52.2391 71.969 52.2093 71.8896" stroke="black" stroke-miterlimit="10"/>
<path d="M49.4696 61.3146C49.1848 59.641 48.9729 58.0186 48.8074 56.4791C48.8079 56.4501 48.8046 56.4211 48.7974 56.393C47.93 47.7963 48.8074 41.5421 48.8074 41.5421" stroke="black" stroke-miterlimit="10"/>
<path d="M69.7172 9.13892L68.3929 9.6555C68.3929 9.69688 68.3929 10.2134 68.3366 10.9368C68.275 11.8008 68.1376 12.6576 67.926 13.4978C68.0436 12.925 68.2141 11.5642 67.4658 10.6173C67.4542 10.5979 67.441 10.5796 67.4261 10.5627C66.9295 9.96506 66.317 10.2018 65.8253 10.6123C65.4858 10.8996 65.1893 11.2341 64.9446 11.6056C65.0303 10.4996 64.832 9.39013 64.3685 8.38238C64.0662 7.69495 63.6653 7.05528 63.1782 6.4836C63.9282 9.06608 62.9664 10.7564 62.9664 10.7564C60.4253 11.354 58.6622 11.2265 57.3478 10.9997C56.2403 9.96672 56.6244 6.24687 56.6244 6.24687C55.5103 7.15736 55.7784 10.6802 55.7784 10.6802C55.6362 9.76095 55.6536 8.82395 55.8298 7.91058C55.2763 8.69322 54.9567 9.61692 54.9077 10.5743L54.8878 10.5643C54.811 10.5446 54.7354 10.5208 54.661 10.4931C54.5246 10.4213 54.3925 10.3417 54.2654 10.2548L53.532 9.75813C54.6395 4.10804 58.5116 0.555472 64.4943 1.5984C64.8848 1.66571 65.2692 1.76538 65.6432 1.89638C69.5848 3.95078 69.7172 9.13892 69.7172 9.13892Z" fill="#5F62E2"/>
<path d="M35.5755 64.1653L34.0674 59.6261C34.0339 59.5204 33.9742 59.4249 33.8937 59.3488C33.8131 59.2726 33.7146 59.2182 33.6072 59.1907C33.5939 59.1907 33.579 59.1907 33.5641 59.1807C33.5492 59.1708 33.5459 59.1807 33.536 59.1807C33.5012 59.1784 33.4664 59.1784 33.4317 59.1807C33.2643 59.1814 33.1036 59.2451 32.9814 59.3595C32.8589 59.4726 32.7612 59.6098 32.6942 59.7626C32.6273 59.9153 32.5925 60.0801 32.5924 60.2468C32.5925 60.3773 32.6132 60.5069 32.6536 60.6309C32.9847 61.5894 33.5741 63.3193 33.8538 64.1073" fill="#5F62E2"/>
<path d="M35.2345 64.1656L33.6088 59.191C33.5956 59.191 33.5807 59.191 33.5658 59.1811C33.5509 59.1712 33.5476 59.1811 33.5376 59.1811L32.6851 59.0155C32.2298 58.9311 31.7746 58.8401 31.3193 58.7556C30.7731 58.6464 30.2234 58.5553 29.6788 58.4246C29.5502 58.3881 29.4181 58.366 29.2848 58.3583C29.117 58.3578 28.9555 58.4226 28.8345 58.5388C28.711 58.6517 28.6125 58.7894 28.5455 58.9429C28.4784 59.0962 28.4445 59.262 28.4455 59.4294C28.4447 59.5584 28.4654 59.6865 28.5068 59.8085C28.8726 60.8812 29.5695 62.9108 29.7914 63.5266L35.2345 64.1656Z" fill="#5F62E2"/>
<path d="M67.3764 41.5404C67.2109 43.3829 67.1248 45.6128 67.0669 48.4154C67.0669 54.375 60.4782 59.3099 54.6229 60.4389L43.8858 62.8641C42.4671 63.1389 41.2106 62.2532 40.2239 61.6656C39.2092 61.0613 38.1695 60.3412 37.4378 59.8065C36.385 59.0367 34.3571 59.6559 34.7726 61.4917C34.8621 61.8409 35.0312 62.1645 35.2662 62.4377C35.5015 62.7106 35.7965 62.9258 36.1284 63.0661C36.3153 63.15 36.5078 63.2207 36.7045 63.278C36.7778 63.2963 36.8429 63.3384 36.8897 63.3977C36.9367 63.4568 36.9627 63.5298 36.9639 63.6052C36.965 63.6807 36.9412 63.7546 36.896 63.8152C36.851 63.8757 36.7871 63.9196 36.7144 63.9401C35.7841 64.2613 34.0806 64.4517 31.3326 63.4435C27.8115 62.1473 27.5383 70.1828 32.3523 71.5816H32.3705C36.8055 72.9225 41.5781 72.7504 46.162 72.5583C51.3672 72.3612 56.5469 71.7293 61.647 70.6695C64.241 70.1199 66.9063 69.5488 69.2802 68.3751C73.3691 66.3538 76.3158 64.0362 79.1185 60.429C82.2638 56.3847 83.6063 51.079 84.3645 46.1044C85.232 40.4131 84.0334 35.6073 80.9825 30.7089L80.8699 30.5301" stroke="black" stroke-miterlimit="10"/>
<path d="M35.5755 64.1653L34.0674 59.6261C34.0339 59.5204 33.9742 59.4249 33.8937 59.3488C33.8131 59.2726 33.7146 59.2182 33.6072 59.1907C33.5939 59.1907 33.579 59.1907 33.5641 59.1807C33.5492 59.1708 33.5459 59.1807 33.536 59.1807C33.5012 59.1784 33.4664 59.1784 33.4317 59.1807C33.2643 59.1814 33.1036 59.2451 32.9814 59.3595C32.8589 59.4726 32.7612 59.6098 32.6942 59.7626C32.6273 59.9153 32.5925 60.0801 32.5924 60.2468C32.5925 60.3773 32.6132 60.5069 32.6536 60.6309C32.9847 61.5894 33.5741 63.3193 33.8538 64.1073" stroke="black" stroke-miterlimit="10"/>
<path d="M33.6088 59.191C33.5956 59.191 33.5807 59.191 33.5658 59.1811C33.5509 59.1712 33.5476 59.1811 33.5376 59.1811L32.6851 59.0155C32.2298 58.9311 31.7746 58.8401 31.3193 58.7556C30.7731 58.6464 30.2234 58.5553 29.6788 58.4246C29.5502 58.3881 29.4181 58.366 29.2848 58.3583C29.117 58.3578 28.9555 58.4226 28.8345 58.5388C28.711 58.6517 28.6125 58.7894 28.5455 58.9429C28.4784 59.0962 28.4445 59.262 28.4455 59.4294C28.4447 59.5584 28.4654 59.6865 28.5068 59.8085C28.8726 60.8812 29.5695 62.9108 29.7914 63.5266" stroke="black" stroke-miterlimit="10"/>
<path d="M54.3928 10.4114C54.3928 12.5634 54.8117 14.6212 55.8447 16.5216C56.6724 18.0479 57.8875 19.5858 59.6257 20.0907C60.0109 20.2018 60.41 20.2576 60.811 20.2563C63.761 20.243 64.2212 16.7484 64.2212 16.7484" stroke="black" stroke-miterlimit="10"/>
<path d="M68.2373 11.6601V11.67C68.1005 12.7378 67.8656 13.7908 67.5354 14.8154C67.1409 16.0376 67.0477 17.3371 67.2639 18.603L67.7224 21.2699C67.7433 21.3888 67.7972 21.4994 67.878 21.5889C67.9588 21.6785 68.0633 21.7435 68.1793 21.7765C73.9998 23.4667 79.1665 27.1964 82.1727 32.5815C85.9223 39.3059 86.606 47.4043 86.303 54.9531C86.0365 61.497 84.9787 68.0029 83.4772 74.3714C82.5594 78.2637 80.7934 81.9053 78.3056 85.0362C75.8177 88.1671 72.6692 90.7101 69.0848 92.4835C64.3682 94.8387 59.4972 96.8713 54.5054 98.5673C51.863 99.4423 49.4487 100.895 47.4382 102.821C45.4276 104.746 43.8714 107.095 42.8826 109.697L31.1521 140.889C30.7211 142.04 29.8708 142.986 28.7716 143.537L17.5312 149.184C16.1118 149.894 14.4926 150.1 12.9407 149.767C12.5384 149.68 12.1714 149.474 11.8878 149.175C11.6041 148.877 11.4168 148.5 11.3505 148.094C11.2839 147.688 11.3413 147.271 11.5152 146.898C11.689 146.525 11.9711 146.213 12.3248 146.002L18.0659 142.587L25.9607 102.34C26.5163 98.7494 27.8429 95.3218 29.8493 92.2925C31.8555 89.2634 34.4941 86.7047 37.5835 84.7924C37.9954 84.5412 38.4246 84.3201 38.8681 84.1302L55.982 76.6989" stroke="black" stroke-miterlimit="10"/>
<path d="M63.5325 1.20939C62.6175 0.991333 61.6705 0.943077 60.7381 1.06702C60.6999 1.06786 60.6618 1.07119 60.6239 1.07695" stroke="black" stroke-miterlimit="10"/>
<path d="M59.3873 20.8936C59.3873 20.8936 56.3595 27.8349 61.7744 28.1775C66.6331 28.4888 68.416 21.8869 68.416 21.8869" stroke="black" stroke-miterlimit="10"/>
<path d="M67.8565 13.7504C67.8913 13.623 68.4128 11.7407 67.4162 10.5554C66.4196 9.37013 65.0688 11.403 64.933 11.6066C65.1979 8.68818 63.17 6.47486 63.17 6.47486C63.9182 9.05899 62.9548 10.7475 62.9548 10.7475C59.2516 11.6149 57.2137 10.9544 55.7685 10.6697C55.6263 9.75088 55.6444 8.8145 55.8215 7.90184C55.2666 8.68247 54.9466 9.60554 54.8994 10.562H54.8762C54.3261 10.4159 53.8045 10.178 53.3334 9.85849L52.6 9.36186C53.7091 3.71359 57.5796 0.157706 63.5623 1.20063C69.5451 2.24356 69.7123 9.12356 69.7123 9.12356L68.3796 9.64163C68.3796 9.64163 68.3912 11.9129 67.8565 13.7504Z" stroke="black" stroke-miterlimit="10"/>
<path d="M56.7138 13.4559V16.2023C56.7139 16.2357 56.722 16.2687 56.7374 16.2983C56.7527 16.3281 56.7747 16.3538 56.8018 16.3735C56.8288 16.3932 56.8601 16.4061 56.8932 16.4116C56.9262 16.4168 56.9599 16.4144 56.9919 16.4043C57.2079 16.3328 57.4064 16.2165 57.5746 16.0632" stroke="black" stroke-miterlimit="10"/>
<path d="M55.0714 15.5409C55.9377 15.2032 56.2593 13.953 55.7897 12.7485C55.32 11.544 54.2371 10.8415 53.3708 11.1792C52.5045 11.5169 52.183 12.7671 52.6525 13.9716C53.1221 15.1761 54.2051 15.8786 55.0714 15.5409Z" stroke="black" stroke-miterlimit="10"/>
<path d="M60.2844 16.3266C61.1507 15.9889 61.4723 14.7387 61.0027 13.5342C60.533 12.3297 59.4502 11.6272 58.5839 11.9649C57.7174 12.3026 57.396 13.5528 57.8656 14.7573C58.3351 15.9618 59.4181 16.6643 60.2844 16.3266Z" stroke="black" stroke-miterlimit="10"/>
<path d="M55.9854 13.5983C55.9854 13.5983 56.4986 13.0123 57.5746 13.6993" stroke="black" stroke-miterlimit="10"/>
<path d="M59.1439 19.9172C59.1439 19.9172 59.5164 21.1787 60.6123 25.2676" stroke="black" stroke-miterlimit="10"/>
<path d="M31.7067 139.415L38.1629 135.93C38.5329 135.73 38.8483 135.442 39.0817 135.092C39.3151 134.741 39.4595 134.339 39.5022 133.92C40.5749 123.384 40.2471 116.722 40.2471 116.722" stroke="black" stroke-miterlimit="10"/>
<path d="M25.8465 85.378L1 68.0142" stroke="black" stroke-miterlimit="10"/>
<path d="M24.4393 90.1626L1 73.7804" stroke="black" stroke-miterlimit="10"/>
<path d="M119.483 57.1583V71.3736C119.483 72.0253 119.294 72.6632 118.938 73.2095C118.582 73.7557 118.076 74.1872 117.48 74.451L99.8495 82.2581L94.4594 90.4492C94.3207 90.6523 94.121 90.8059 93.8891 90.888C93.6573 90.9702 93.4052 90.9763 93.1696 90.9058C92.9341 90.8351 92.7271 90.6914 92.5786 90.4954C92.4302 90.2992 92.3479 90.061 92.3437 89.8152V85.5839L90.536 86.3834C90.1339 86.5592 89.6944 86.6324 89.257 86.5963C88.8198 86.5602 88.3982 86.416 88.0303 86.1767C87.6625 85.9375 87.3599 85.6105 87.1496 85.2253C86.9396 84.8401 86.8283 84.4085 86.8262 83.9698V72.0987C86.8263 70.618 87.2596 69.1697 88.0722 67.9321C88.8849 66.6943 90.0415 65.7212 91.4001 65.1326L115.629 54.6288C116.049 54.4467 116.507 54.3717 116.962 54.411C117.418 54.45 117.857 54.6018 118.239 54.8528C118.621 55.1038 118.935 55.4459 119.152 55.8484C119.37 56.2508 119.483 56.7009 119.483 57.1583Z" fill="#D7E8F0"/>
<path d="M97.8559 75.738C98.7243 74.0627 98.4892 72.2178 97.3309 71.6174C96.1726 71.017 94.5296 71.8884 93.6611 73.5637C92.7929 75.2392 93.0278 77.084 94.1861 77.6844C95.3444 78.2849 96.9874 77.4134 97.8559 75.738Z" fill="white"/>
<path d="M105.385 72.5152C106.254 70.8397 106.019 68.9949 104.861 68.3945C103.702 67.794 102.059 68.6655 101.191 70.3408C100.322 72.0162 100.557 73.861 101.716 74.4615C102.874 75.0619 104.517 74.1905 105.385 72.5152Z" fill="white"/>
<path d="M112.662 69.0347C113.53 67.3594 113.295 65.5144 112.137 64.9142C110.979 64.3137 109.335 65.1852 108.467 66.8605C107.599 68.5358 107.834 70.3808 108.992 70.9812C110.15 71.5815 111.793 70.71 112.662 69.0347Z" fill="white"/>
</svg>
