<svg width="152" height="151" viewBox="0 0 152 151" fill="none" xmlns="http://www.w3.org/2000/svg">
<path d="M7.3489 84.7705C7.23195 83.2836 7.14173 81.7949 7.06989 80.3096" stroke="black" stroke-miterlimit="10"/>
<path d="M91.912 138.256H49.4717" stroke="#CCDDE2" stroke-miterlimit="10"/>
<path d="M104.302 31.9379C104.302 31.9379 116.809 26.0319 127.42 37.555C130.887 41.3209 133.253 46.3181 133.42 51.474C133.496 53.9898 133.09 56.4967 132.225 58.8604C131.345 61.2729 129.764 62.8701 128.55 65.0187C126.687 68.3318 130.581 68.9182 132.672 70.5238C134.061 71.6 135.378 72.7651 136.616 74.0124C139.406 76.7985 141.861 79.9009 143.931 83.2566C148.03 89.9407 150.498 97.4957 151.135 105.31C151.765 113.016 151.282 121.383 147.331 128.228C145.429 131.524 142.566 134.757 139.044 136.294C134.366 138.334 129.111 138.258 124.112 138.258H113.475" stroke="#CCDDE2" stroke-miterlimit="10"/>
<path d="M52.1666 108.935C51.7473 111.918 51.1224 115.342 50.4324 118.769L49.6187 119.001C47.0147 119.732 44.2495 119.651 41.6927 118.769L42.7586 115.146L36.2695 96.2669C36.2695 96.2669 41.2299 94.663 45.3032 93.4718L45.771 93.4517C47.9964 93.9212 52.5826 95.6838 52.7263 102.285C52.7363 102.602 52.7263 102.937 52.7263 103.301C53.3729 105.431 53.1156 107.309 52.1666 108.935Z" fill="#5F62E2"/>
<path d="M36.8926 37.0693C36.8286 36.9064 36.7035 36.7753 36.544 36.7038C36.3842 36.6321 36.203 36.6261 36.0389 36.6867C35.947 36.7145 35.862 36.7617 35.79 36.8254C35.5327 37.0342 35.4742 37.4001 35.4658 37.7476C35.4424 38.5412 35.3973 39.3365 35.3388 40.1268C35.3388 40.1802 35.3305 40.2404 35.3305 40.2939C35.2937 40.9304 35.3205 41.7023 35.0498 42.257C35.0324 42.2993 35.0029 42.3353 34.9646 42.3606C34.8744 42.4023 34.7791 42.3121 34.7207 42.2303C34.5536 41.9863 34.3865 41.7474 34.2194 41.4985C34.0875 41.2996 33.9388 41.0841 33.7082 41.0206C33.3657 40.9254 33.0399 41.2278 32.8511 41.5352C32.2413 42.5377 32.1828 44.18 33.1268 45.0204C34.0707 45.8608 31.9573 47.5131 30.4436 48.2082C30.1901 48.3507 29.9246 48.4703 29.65 48.5657C29.6366 48.5657 30.1963 48.691 30.1829 48.696C29.005 49.106 27.7781 49.3583 26.534 49.4462C25.0571 49.5448 23.6169 49.3593 22.5693 48.7178C22.6144 48.5507 22.972 47.3812 22.9937 47.2141C23.0706 46.631 23.1257 46.0529 23.1608 45.4665C23.2243 44.3655 23.2193 43.2628 23.1775 42.1651C23.0254 38.2155 23.7288 34.8973 25.3595 34.3911C25.4883 34.3525 25.6118 34.2981 25.727 34.2291C26.4622 33.8231 26.8548 32.966 26.5173 32.1573C26.4939 32.1022 26.4672 32.0487 26.4438 31.9903C26.4174 31.9326 26.3873 31.8768 26.3536 31.8232C29.538 30.8341 31.7 31.5208 33.8853 32.717C34.3011 33.0493 34.6921 33.4117 35.0548 33.8013C35.9102 34.7299 36.5393 35.8438 36.8926 37.056V37.0693Z" fill="#5F62E2"/>
<path d="M113.441 75.0434H102.581V49.0867C102.581 49.0867 100.576 71.6401 95.0831 84.418H61.4493C65.414 81.8985 68.5934 78.0925 70.7102 73.9959C71.5456 72.3752 72.8822 69.9694 75.1043 70.6009C75.6322 70.7496 76.4091 70.8448 76.8018 70.362C76.9373 70.1767 77.0141 69.955 77.0223 69.7254C77.2128 67.3597 74.7601 65.3681 72.7385 64.7399C70.7169 64.1117 68.3545 64.4058 66.7455 65.8744C65.586 66.9353 64.8593 68.3437 64.0105 69.6486C63.5011 70.4218 62.8973 71.1285 62.2128 71.752C63.0849 66.4558 63.8618 61.3934 63.9738 59.5305C66.1006 57.8514 67.6628 55.1131 68.2175 52.6905C68.8273 50.044 69.3653 47.4561 70.3126 44.9783L78.0665 45.0051C78.3586 45.0051 78.6386 44.8891 78.8451 44.6826C79.0516 44.4761 79.1675 44.1961 79.1675 43.9041V31.0259C79.168 30.7366 79.0538 30.4589 78.8499 30.2534C78.6461 30.0481 78.3693 29.9318 78.0799 29.9299L72.8003 29.8848C74.719 29.4838 76.6646 29.2242 78.6212 29.1079C78.6613 29.1079 78.6981 29.1079 78.7331 29.1079C80.0213 29.0227 82.2785 28.986 83.5783 28.9726C82.0295 29.808 81.0722 31.5823 81.2393 33.1495C81.2687 33.4833 81.354 33.8097 81.4916 34.1152C82.8148 37.0222 86.3 37.881 89.177 37.0356C92.3781 36.1017 94.7305 33.1578 94.5902 29.7712C96.5951 30.0653 98.5799 30.4383 100.545 30.8906C103.53 31.5773 106.442 32.5029 108.803 34.5211C110.862 36.2738 112.606 38.5309 113.413 41.0822C116.878 51.9905 115.812 64.1635 113.441 75.0434Z" fill="#2E2E2E"/>
<path d="M64.0607 59.5309C63.8167 63.5173 63.1885 67.5003 62.5069 71.4734" stroke="black" stroke-miterlimit="10"/>
<path d="M70.3995 44.9785C69.4505 47.4562 68.9142 50.0442 68.3043 52.6907C67.7446 55.1049 66.1858 57.8516 64.0606 59.5307C62.2763 60.9392 60.091 61.6024 57.7519 60.7136C54.6142 59.5173 53.5132 56.0589 53.129 53.0098C52.6296 49.213 52.5992 45.3693 53.0387 41.5652C53.4815 42.5493 55.2909 45.5432 60.9029 44.7563C61.0536 44.8689 61.2347 44.9336 61.4225 44.9418L70.3995 44.9785Z" fill="#2E2E2E"/>
<path d="M67.2485 36.4129C68.555 36.0788 69.3503 37.3352 69.1565 38.2908C68.8407 39.8497 66.5986 40.4628 65.2636 40.4912C64.1944 40.5129 61.588 40.2306 60.5254 40.1069" stroke="black" stroke-miterlimit="10"/>
<path d="M60.0859 37.1847C61.7022 37.6518 63.4139 37.6801 65.0447 37.2665C66.4164 36.914 68.037 36.2641 68.7554 34.9592C69.1748 34.2007 68.8406 32.9911 67.9652 32.7238C66.9544 32.418 66.0188 33.4238 65.1032 33.6778C64.5126 33.8387 63.9096 33.9504 63.3005 34.0119C63.1334 34.0303 62.9763 34.0437 62.8143 34.057C61.9617 34.1254 61.1046 34.1192 60.253 34.0387C60.1625 34.0387 60.0741 34.0101 60.0007 33.9571C59.9272 33.904 59.8722 33.8291 59.8438 33.7431C59.8153 33.6572 59.8146 33.5643 59.842 33.478C59.8692 33.3916 59.923 33.3159 59.9957 33.2618L60.1494 33.1498" stroke="black" stroke-miterlimit="10"/>
<path d="M70.3995 44.9783C69.4505 47.456 68.9142 50.044 68.3043 52.6904C67.2752 57.133 62.8861 62.6681 57.7519 60.71C54.6143 59.5138 53.5132 56.0553 53.129 53.0062C52.5275 48.2847 52.5776 43.4345 53.4631 38.7531C54.1982 34.897 55.5031 30.8471 59.2556 28.9508L61.0166 28.0703C61.4366 27.8582 61.9229 27.8187 62.3715 27.9604C62.8203 28.1022 63.1955 28.414 63.4174 28.8289C63.5526 29.0868 63.6243 29.3732 63.6263 29.6642C63.6279 29.7068 63.6246 29.7494 63.6162 29.7912" stroke="black" stroke-miterlimit="10"/>
<path d="M106.167 81.2205C107.074 81.1925 107.982 81.2153 108.887 81.289C109.625 81.3492 110.391 81.3843 111.094 81.6599C111.674 81.8905 112.278 82.4402 112.248 83.1118C112.193 84.4284 110.469 84.4183 109.523 84.4183" stroke="black" stroke-miterlimit="10"/>
<path opacity="0.54" d="M89.9406 79.9656L97.8031 59.8214C97.9005 59.431 97.9073 59.0235 97.8235 58.63C97.7396 58.2364 97.567 57.8673 97.3189 57.5506C97.0708 57.2338 96.7537 56.9778 96.3918 56.8021C96.0297 56.6265 95.6324 56.5356 95.2301 56.5368H64.0072C63.3074 56.5383 62.6285 56.7752 62.0795 57.2091C61.5305 57.643 61.1432 58.2488 60.9798 58.9293L52.3621 79.0684C52.2687 79.4572 52.2646 79.862 52.3501 80.2527C52.4358 80.6433 52.6089 81.0095 52.8563 81.3234C53.1038 81.6375 53.4194 81.8915 53.7791 82.0661C54.1388 82.2405 54.5336 82.3312 54.9334 82.3314H86.9115C87.6079 82.3309 88.284 82.098 88.8328 81.6693C89.3817 81.2407 89.7715 80.6411 89.9406 79.9656Z" fill="white"/>
<path d="M89.9406 79.9656L97.8031 59.8214C97.9005 59.431 97.9073 59.0235 97.8235 58.63C97.7396 58.2364 97.567 57.8673 97.3189 57.5506C97.0708 57.2338 96.7537 56.9778 96.3918 56.8021C96.0297 56.6265 95.6324 56.5356 95.2301 56.5368H64.0072C63.3074 56.5383 62.6285 56.7752 62.0795 57.2091C61.5305 57.643 61.1432 58.2488 60.9798 58.9293L52.3621 79.0684C52.2687 79.4572 52.2646 79.862 52.3501 80.2527C52.4358 80.6433 52.6089 81.0095 52.8563 81.3234C53.1038 81.6375 53.4194 81.8915 53.7791 82.0661C54.1388 82.2405 54.5336 82.3312 54.9334 82.3314H86.9115C87.6079 82.3309 88.284 82.098 88.8328 81.6693C89.3817 81.2407 89.7715 80.6411 89.9406 79.9656Z" fill="#5F62E2"/>
<path d="M89.9406 79.9656L97.8031 59.8214C97.9005 59.431 97.9073 59.0235 97.8235 58.63C97.7396 58.2364 97.567 57.8673 97.3189 57.5506C97.0708 57.2338 96.7537 56.9778 96.3918 56.8021C96.0297 56.6265 95.6324 56.5356 95.2301 56.5368H64.0072C63.3074 56.5383 62.6285 56.7752 62.0795 57.2091C61.5305 57.643 61.1432 58.2488 60.9798 58.9293L52.3621 79.0684C52.2687 79.4572 52.2646 79.862 52.3501 80.2527C52.4358 80.6433 52.6089 81.0095 52.8563 81.3234C53.1038 81.6375 53.4194 81.8915 53.7791 82.0661C54.1388 82.2405 54.5336 82.3312 54.9334 82.3314H86.9115C87.6079 82.3309 88.284 82.098 88.8328 81.6693C89.3817 81.2407 89.7715 80.6411 89.9406 79.9656Z" stroke="black" stroke-linecap="square" stroke-linejoin="round"/>
<path d="M88.7894 79.1503L96.0438 60.5666C96.1337 60.2069 96.1403 59.8314 96.0635 59.4687C95.9865 59.106 95.8279 58.7657 95.5995 58.4735C95.3713 58.1814 95.0796 57.945 94.7463 57.7826C94.413 57.62 94.0471 57.5357 93.6763 57.5358H64.8643C64.2176 57.5357 63.5894 57.7532 63.0815 58.1537C62.5734 58.5541 62.215 59.1138 62.0641 59.7429L54.1298 78.3232C54.0442 78.6818 54.0411 79.055 54.1204 79.4149C54.1996 79.7748 54.3595 80.1121 54.5877 80.4015C54.816 80.6909 55.1068 80.9248 55.4385 81.0857C55.7699 81.2466 56.1337 81.3303 56.5022 81.3306H85.9959C86.6381 81.3311 87.262 81.1167 87.7682 80.7216C88.2745 80.3265 88.6339 79.7733 88.7894 79.1503Z" fill="#5F62E2"/>
<path d="M66.9427 60.961C67.3253 60.388 67.9451 60.1257 68.3394 60.3913C68.7337 60.6569 68.7337 61.3252 68.3528 61.895C68.2927 61.9827 68.2257 62.0654 68.1523 62.1422L70.9826 68.1185C71.4337 67.8178 71.9299 67.7426 72.2874 67.9798C72.402 68.0635 72.4969 68.171 72.5656 68.2951C72.6343 68.4192 72.675 68.5567 72.6851 68.6982L74.6198 68.0467L76.3106 67.4769L76.8619 67.2965C76.9318 67.0888 77.0283 66.8912 77.1493 66.7084C77.6856 65.9014 78.5627 65.5389 79.1091 65.9064C79.6554 66.274 79.6621 67.2013 79.1408 68.0015L82.3654 72.404C83.0687 71.8276 83.8958 71.6488 84.4688 72.0297C85.2491 72.5493 85.2608 73.9043 84.4956 75.0538C84.4638 75.1005 84.4287 75.1373 84.397 75.1807L86.5422 78.1146L86.5623 78.143C86.6719 78.3085 86.7113 78.5109 86.6719 78.7053C86.6324 78.9 86.5173 79.0709 86.3518 79.1805C86.1862 79.2903 85.984 79.3297 85.7894 79.2901C85.5947 79.2507 85.4238 79.1356 85.3142 78.97L83.4096 76.0946C82.8064 76.4438 82.1649 76.5107 81.6954 76.1982C80.9502 75.697 80.9135 74.4473 81.5784 73.3329L78.4926 68.6749C78.0365 68.9839 77.5336 69.0625 77.1727 68.8236C76.9722 68.6812 76.8354 68.4658 76.7918 68.2238L76.5612 68.2872L74.842 68.7567L72.6399 69.3515C72.5713 69.6153 72.4582 69.8656 72.3058 70.0917C71.7695 70.897 70.8923 71.2612 70.346 70.8936C69.7997 70.526 69.7913 69.5821 70.3276 68.7751C70.4063 68.6566 70.4945 68.5449 70.5916 68.441L67.8967 62.3528C67.5726 62.575 67.2134 62.6318 66.9561 62.4597C66.5685 62.2024 66.5618 61.5274 66.9427 60.961Z" fill="#D7E8F0"/>
<path d="M87.4445 61.2813H91.6213C91.8123 61.281 91.9989 61.2253 92.1588 61.1209C92.3187 61.0165 92.4448 60.868 92.5218 60.6932C92.5447 60.6404 92.5573 60.5838 92.5586 60.5261C92.5581 60.4122 92.5125 60.3029 92.4318 60.2224C92.3509 60.142 92.2415 60.0967 92.1276 60.0967H87.6884C87.8972 60.4459 87.792 60.9355 87.4445 61.2813Z" fill="#D7E8F0"/>
<path d="M84.7445 60.8538C84.745 60.9672 84.7904 61.0761 84.8708 61.1562C84.9513 61.2364 85.0603 61.2815 85.1739 61.2815H87.4444C87.792 60.9356 87.8972 60.4461 87.6884 60.0936H85.6835C85.4927 60.0934 85.306 60.1489 85.1462 60.253C84.9863 60.357 84.86 60.5054 84.7829 60.68C84.7584 60.7346 84.7452 60.7938 84.7445 60.8538Z" fill="#5F62E2"/>
<path d="M85.7887 61.2818C85.8009 61.3047 85.8148 61.3264 85.8305 61.347C86.1278 61.7546 86.7744 61.7931 87.2757 61.4272C87.3351 61.3832 87.3909 61.3346 87.4427 61.2818C87.7902 60.936 87.8955 60.4465 87.6867 60.0939C87.6758 60.0709 87.6623 60.049 87.6466 60.0288C87.3508 59.6194 86.7043 59.5843 86.203 59.9469C86.1437 59.9917 86.0879 60.0408 86.036 60.0939C85.6884 60.4414 85.5832 60.9276 85.7887 61.2818Z" fill="white"/>
<path d="M83.7019 63.4753C83.7028 63.5891 83.7485 63.6979 83.8294 63.7779C83.9101 63.8581 84.0192 63.903 84.133 63.903H88.5154C88.3032 63.5488 88.4084 63.0677 88.7559 62.7151H84.6342C84.4431 62.7153 84.2559 62.771 84.0959 62.8754C83.9357 62.9798 83.8094 63.1283 83.732 63.3032C83.711 63.3582 83.7008 63.4165 83.7019 63.4753Z" fill="#5F62E2"/>
<path d="M88.5087 63.9029H90.5704C90.761 63.9029 90.9475 63.8478 91.1072 63.7438C91.2671 63.6401 91.3934 63.4922 91.4709 63.3181C91.4945 63.2655 91.5075 63.2087 91.5094 63.1511C91.5095 63.0946 91.4987 63.0386 91.4771 62.9865C91.4556 62.9344 91.424 62.8869 91.3841 62.847C91.3441 62.8071 91.2967 62.7755 91.2446 62.7539C91.1924 62.7324 91.1365 62.7215 91.08 62.7217H88.7493C88.4018 63.0625 88.2965 63.5487 88.5087 63.9029Z" fill="#D7E8F0"/>
<path d="M88.5087 63.903C88.5184 63.9261 88.5307 63.948 88.5454 63.9682C88.8411 64.3775 89.4877 64.4143 89.989 64.0501C90.0483 64.0053 90.1041 63.956 90.156 63.903C90.5002 63.5555 90.6055 63.0677 90.4 62.7151C90.3878 62.6926 90.3744 62.6709 90.3599 62.65C90.0608 62.2423 89.4142 62.2056 88.913 62.5715C88.8537 62.6149 88.7977 62.6629 88.7459 62.7151C88.4017 63.0627 88.2965 63.5488 88.5087 63.903Z" fill="white"/>
<path d="M87.0434 66.5061H89.6665C89.8574 66.5057 90.0442 66.4503 90.2043 66.3462C90.3643 66.2422 90.491 66.094 90.5687 65.9196C90.5916 65.8668 90.6041 65.81 90.6054 65.7525C90.6054 65.6381 90.56 65.5282 90.4793 65.4471C90.3984 65.3661 90.2888 65.3202 90.1744 65.3198H87.2923C87.4995 65.6724 87.3926 66.1585 87.0434 66.5061Z" fill="#5F62E2"/>
<path d="M82.7964 66.0801C82.7966 66.1364 82.8079 66.1918 82.8296 66.2436C82.8514 66.2954 82.8829 66.3425 82.9229 66.3821C82.9628 66.4216 83.0101 66.453 83.062 66.4742C83.114 66.4956 83.1696 66.5064 83.2258 66.5061H87.0434C87.3876 66.1586 87.4945 65.6707 87.2874 65.3165H83.7353C83.544 65.3164 83.3569 65.3722 83.1969 65.4769C83.037 65.5817 82.911 65.7309 82.8348 65.9063C82.8103 65.9609 82.7971 66.0202 82.7964 66.0801Z" fill="#D7E8F0"/>
<path d="M85.3927 66.5061C85.4049 66.529 85.4188 66.5507 85.4345 66.5712C85.7302 66.9806 86.3751 67.0157 86.878 66.6514C86.9373 66.6073 86.9933 66.5589 87.0451 66.5061C87.3893 66.1586 87.4962 65.6707 87.289 65.3165C87.2782 65.2934 87.2646 65.2716 87.2489 65.2513C86.9499 64.8454 86.305 64.8103 85.8021 65.1728C85.7431 65.2168 85.6873 65.2647 85.635 65.3165C85.2908 65.664 85.1839 66.1535 85.3927 66.5061Z" fill="white"/>
<path d="M70.0871 78.7823H72.7118C72.9024 78.782 73.0891 78.7264 73.2488 78.6224C73.4087 78.5184 73.5348 78.3702 73.6123 78.1959C73.6352 78.1431 73.6478 78.0863 73.6491 78.0288C73.6491 77.9146 73.6037 77.8049 73.5228 77.7241C73.4419 77.6432 73.3323 77.5978 73.218 77.5978H70.336C70.5382 77.9486 70.4312 78.4348 70.0871 78.7823Z" fill="#5F62E2"/>
<path d="M59.6716 78.3565C59.6718 78.4126 59.6832 78.4681 59.7049 78.52C59.7264 78.5718 59.7582 78.6188 59.7981 78.6584C59.8379 78.698 59.8852 78.7292 59.9371 78.7506C59.9892 78.7718 60.0449 78.7827 60.101 78.7825H70.0871C70.4312 78.435 70.5382 77.9471 70.331 77.5946H60.6106C60.4196 77.5944 60.2327 77.6499 60.0726 77.7543C59.9127 77.8589 59.7867 78.0076 59.7101 78.1827C59.6862 78.2375 59.6731 78.2965 59.6716 78.3565Z" fill="#D7E8F0"/>
<path d="M68.4314 78.7827C68.4436 78.8054 68.4574 78.8273 68.4731 78.8479C68.7689 79.2572 69.4138 79.2923 69.9167 78.9297C69.9756 78.8846 70.0314 78.8355 70.0837 78.7827C70.4279 78.4352 70.5348 77.9473 70.3277 77.5948C70.3168 77.5716 70.3033 77.5497 70.2876 77.5296C69.9885 77.122 69.3436 77.0869 68.8407 77.4494C68.7812 77.4934 68.7254 77.542 68.6736 77.5948C68.3311 77.9406 68.2225 78.4302 68.4314 78.7827Z" fill="white"/>
<path d="M4.03746 85.2169C4.03746 85.2169 -1.476 110.123 12.7069 115.325C26.8899 120.528 65.2018 115.641 49.2796 97.6707C33.3574 79.7001 4.03746 85.2169 4.03746 85.2169Z" fill="#2E2E2E"/>
<path d="M72.8555 29.885C74.7832 29.4828 76.7375 29.2222 78.7031 29.1048C78.7449 29.1048 78.7799 29.1048 78.8167 29.1048C80.1082 29.0195 82.3704 28.9828 83.6619 28.9694" stroke="black" stroke-miterlimit="10"/>
<path d="M63.3005 34.007C63.2871 34.0154 63.2787 34.0254 63.2654 34.0338" stroke="black" stroke-miterlimit="10"/>
<path d="M85.2809 23.536C84.2951 24.0539 83.1624 23.7031 82.728 22.8209" stroke="black" stroke-miterlimit="10"/>
<path d="M79.5585 10.9469C79.514 11.7134 79.7107 12.4746 80.1208 13.1235C80.5312 13.7726 81.1343 14.2768 81.8457 14.5657C81.9963 14.2895 82.2118 14.0545 82.4739 13.8807C83.5816 13.164 83.3845 15.0786 86.3918 14.5741C90.5603 13.8707 91.6229 15.3226 91.6229 15.3226C91.7148 15.4495 91.4559 16.2782 91.4191 16.4303C91.252 17.3208 91.085 18.2063 90.9329 19.1035C90.8348 19.647 90.7358 20.1871 90.6355 20.7241C90.7114 20.6506 90.7917 20.5819 90.8761 20.5186C91.5611 19.4493 92.5652 18.2497 93.6596 19.2288C93.8793 19.4326 94.0477 19.6857 94.1508 19.9672C94.652 21.3289 93.693 22.2044 92.5719 22.729C92.2762 22.9079 91.9619 23.0541 91.6346 23.165C91.6898 23.5092 91.9186 24.8809 91.9186 24.8842C91.942 25.0246 94.7255 23.3087 94.9577 23.0999C95.3774 22.545 95.7009 21.9239 95.9151 21.2621C96.7805 18.5321 96.6335 15.0035 94.8909 12.758C94.4582 12.2016 94.7472 11.8808 94.8725 11.3395C94.8785 11.3103 94.8757 11.28 94.8643 11.2526C94.853 11.2251 94.8336 11.2017 94.8087 11.1853C94.784 11.1689 94.7547 11.1604 94.725 11.1607C94.6953 11.1612 94.6664 11.1704 94.642 11.1875C93.703 11.7772 92.0039 11.1741 92.0039 11.1741C86.4904 7.86264 83.6652 9.91102 82.3135 10.0146C81.7654 10.0522 81.2212 9.89732 80.7748 9.57687C80.6962 9.73192 80.577 9.86257 80.4299 9.95496C80.2827 10.0474 80.1132 10.098 79.9394 10.1015L79.8859 10.3889C79.845 10.6072 79.7292 10.8045 79.5585 10.9469Z" fill="#5F62E2"/>
<path d="M81.8491 14.5724C81.1376 14.2837 80.5345 13.7795 80.1242 13.1304C79.714 12.4813 79.5174 11.7201 79.5618 10.9536C79.5782 10.6592 79.6206 10.3668 79.6888 10.0798L79.7372 10.0898C79.8031 10.1047 79.8706 10.1097 79.9377 10.1049C80.1115 10.1015 80.2811 10.0509 80.4283 9.9585C80.5754 9.86611 80.6946 9.73529 80.7731 9.58024C80.8192 9.49403 80.8513 9.40097 80.8683 9.30457L81.1256 7.90619C81.1256 7.90619 81.961 9.03725 83.2976 8.93199C84.6342 8.82674 87.4594 6.77843 92.9879 10.0915C92.9879 10.0915 94.3145 10.581 95.2535 9.99125C95.2778 9.97437 95.3068 9.96501 95.3365 9.96468C95.3662 9.96435 95.3955 9.97287 95.4202 9.98924C95.4451 10.0056 95.4645 10.029 95.4758 10.0564C95.4872 10.084 95.49 10.1142 95.484 10.1433C95.3587 10.6829 95.4422 11.119 95.875 11.6754C97.6176 13.9208 97.7646 17.4495 96.8991 20.1795C96.5202 21.3109 95.8474 22.321 94.9494 23.1066C94.7171 23.3154 91.9337 25.0313 91.9103 24.891C91.9103 24.891 91.6814 23.5159 91.6263 23.1718L91.6129 23.0932L91.6914 23.0698C91.9891 22.9778 92.2805 22.8662 92.5635 22.7357C93.6846 22.2111 94.6486 21.3356 94.1424 19.974C94.0393 19.6926 93.8709 19.4395 93.6512 19.2355C92.5569 18.2564 91.5528 19.456 90.8677 20.5253C90.7353 20.7283 90.6267 20.9458 90.5436 21.1735C90.5704 21.0265 90.5971 20.8828 90.6255 20.7358C90.7257 20.1978 90.8248 19.6577 90.9229 19.1152C91.0899 18.223 91.2453 17.3375 91.4091 16.442C91.4391 16.29 91.7048 15.4613 91.6129 15.3343C91.6129 15.3343 90.5503 13.8824 86.3818 14.5858C83.3744 15.087 83.5716 13.1757 82.4639 13.8924C82.2018 14.0662 81.9862 14.3014 81.8357 14.5774C81.7891 14.6675 81.7478 14.7601 81.7121 14.8548C81.706 14.8667 81.701 14.879 81.697 14.8915C81.6218 15.0987 81.5533 15.3076 81.4865 15.5114C80.8616 17.4979 80.449 19.6431 80.6695 21.7299C80.9385 24.2594 82.7813 27.2333 85.7135 26.9811C86.6361 26.873 87.5359 26.6203 88.38 26.2326" stroke="black" stroke-miterlimit="10"/>
<path d="M82.1691 19.9636C82.4559 19.9554 82.6805 19.6677 82.6708 19.3209C82.6609 18.974 82.4205 18.6995 82.1336 18.7077C81.8468 18.7157 81.622 19.0034 81.6319 19.3503C81.6418 19.6971 81.8822 19.9716 82.1691 19.9636Z" fill="black"/>
<path d="M86.0951 21.0188C86.382 21.0106 86.6065 20.7229 86.5969 20.3763C86.587 20.0294 86.3466 19.7547 86.0597 19.7629C85.7728 19.7711 85.5483 20.0588 85.558 20.4055C85.5678 20.7523 85.8083 21.027 86.0951 21.0188Z" fill="black"/>
<path d="M84.4003 21.2503C84.4003 21.2503 82.8816 21.5844 83.0353 20.8058C83.0821 20.5619 83.4631 18.1661 83.4631 18.1661C83.4631 18.1661 82.7547 16.7392 80.9018 17.0717" stroke="black" stroke-miterlimit="10"/>
<path d="M85.082 17.9528C85.082 17.9528 87.4895 17.5435 88.4118 19.4665" stroke="black" stroke-miterlimit="10"/>
<path d="M83.6886 28.949C81.7923 29.9515 80.7799 32.364 81.5735 34.11C82.8967 37.0187 86.3802 37.8742 89.2589 37.0338C92.46 36.0982 94.8124 33.1476 94.6721 29.7644" stroke="black" stroke-miterlimit="10"/>
<path d="M95.1699 84.4167C100.668 71.6388 102.665 49.0854 102.665 49.0854V80.5522C102.665 81.0598 102.764 81.5624 102.959 82.0314C103.153 82.5003 103.437 82.9264 103.796 83.2853C104.155 83.6441 104.581 83.9288 105.05 84.123C105.519 84.3171 106.022 84.4168 106.529 84.4167H118.726C119.183 84.4239 119.627 84.2618 119.972 83.9617C120.317 83.6618 120.539 83.2448 120.595 82.791C120.62 82.5411 120.592 82.2886 120.513 82.0502C120.434 81.8118 120.306 81.5926 120.137 81.4067C119.968 81.2207 119.762 81.0724 119.532 80.9709C119.302 80.8695 119.054 80.8174 118.803 80.8179H113.807C113.608 80.8172 113.411 80.7711 113.233 80.6831C113.054 80.595 112.898 80.4674 112.776 80.3098C112.654 80.1521 112.57 79.9688 112.53 79.7737C112.49 79.5785 112.494 79.3769 112.544 79.1839C115.551 67.3216 117.411 53.3976 113.496 41.0759C112.688 38.533 110.945 36.2675 108.887 34.5165C106.524 32.4982 103.612 31.5727 100.628 30.8877C98.6601 30.4365 96.6748 30.0633 94.6721 29.7682C94.666 29.7703 94.6597 29.7703 94.6537 29.7682C94.6403 29.7682 94.627 29.7682 94.6186 29.7682H94.6052H94.5869H94.5601" stroke="black" stroke-miterlimit="10"/>
<path d="M93.4123 24.0908L93.1917 28.0822C93.1707 28.4724 93.2932 28.8566 93.5359 29.1625C93.7788 29.4684 94.1254 29.675 94.51 29.743H94.5601C94.5688 29.7406 94.5781 29.7406 94.5868 29.743H94.5952H94.6186" stroke="black" stroke-miterlimit="10"/>
<path d="M94.6537 29.7613H94.6186H94.6052H94.5952H94.5868H94.5601H94.51C94.1254 29.6933 93.7788 29.4868 93.5359 29.1809C93.2932 28.8748 93.1707 28.4906 93.1917 28.1006L93.4123 24.1092" stroke="black" stroke-miterlimit="10"/>
<path d="M84.0043 26.7324C83.8957 26.689 84.0043 31.19 81.3195 33.1448" stroke="black" stroke-miterlimit="10"/>
<path d="M48.0583 84.4178H39.4573" stroke="black" stroke-miterlimit="10"/>
<path d="M132.085 84.4178H61.4493" stroke="black" stroke-miterlimit="10"/>
<path d="M23.1792 42.1596C23.2621 43.8447 23.2017 45.5338 22.9988 47.2086C22.7381 49.1767 20.9187 51.6778 20.5244 53.6242C19.9613 56.4244 20.8134 59.3181 21.9829 61.9178C23.3964 65.0605 25.6235 68.2215 25.4063 71.8203C25.295 73.3877 24.8287 74.9092 24.0425 76.2697C23.2564 77.63 22.1709 78.7939 20.8686 79.6728C19.0847 80.8664 17.0469 81.6273 14.9174 81.8949C14.62 81.93 14.3176 81.9584 14.0152 81.9668C13.8481 81.9668 13.681 81.9484 13.5139 81.935C7.8501 81.4555 2.04092 77.135 2.05428 71.1203C2.05428 67.2776 4.97473 64.2702 5.4676 60.5411C5.77 58.2606 5.10172 55.8914 5.7199 53.6777C6.72235 50.1424 10.5968 48.2144 12.2943 44.9597C13.544 42.5572 13.7478 39.7537 14.7369 37.2342C16.1136 33.7257 18.3123 29.7159 21.3197 29.3817C22.1923 29.4806 23.0358 29.7558 23.799 30.1904C25.6636 31.1928 26.1381 31.2563 26.5173 32.1501C26.905 33.0841 26.3269 34.0815 25.3612 34.3806C23.7305 34.8968 23.0272 38.2099 23.1792 42.1596Z" fill="#5F62E2"/>
<path d="M24.8182 30.734C29.7135 29.3156 32.8244 31.4023 35.0498 33.8082C37.2753 36.2141 37.1717 38.9458 37.1717 38.9458" stroke="black" stroke-miterlimit="10"/>
<path d="M40.0019 77.7885C39.928 81.613 39.4435 85.4184 38.5567 89.1395" stroke="black" stroke-miterlimit="10"/>
<path d="M52.1667 108.934C50.374 112.019 46.1219 114.209 40.9192 115.572C31.6867 117.991 19.4635 117.803 12.7103 115.323C-1.48101 110.122 4.0358 85.2164 4.0358 85.2164C4.0358 85.2164 28.5807 80.5968 44.9474 93.5701C46.5109 94.806 47.9622 96.1775 49.2846 97.6685C51.094 99.7152 52.2051 101.588 52.7297 103.299C53.3729 105.431 53.1156 107.309 52.1667 108.934Z" stroke="black" stroke-miterlimit="10"/>
<path d="M42.7587 115.152C42.7587 115.152 34.1594 139.022 48.6063 145.118C63.0532 151.215 -4.44657 152.027 10.4532 145.118C25.3529 138.21 16.7886 116.61 16.7886 116.61" stroke="black" stroke-miterlimit="10"/>
<path d="M60.2514 34.0336C60.0727 33.4873 60.1462 31.5876 60.2046 30.515C60.2158 30.3125 60.3056 30.1222 60.4546 29.9847C60.6036 29.8472 60.8004 29.773 61.0033 29.7782L78.1668 29.9286C78.4562 29.9313 78.7329 30.048 78.9365 30.2535C79.1402 30.4592 79.2545 30.7369 79.2545 31.0263V43.906C79.2545 44.0506 79.2259 44.1937 79.1705 44.3272C79.115 44.4607 79.0336 44.582 78.9312 44.6839C78.8288 44.786 78.7072 44.8667 78.5733 44.9215C78.4397 44.9765 78.2963 45.0044 78.1518 45.0037L61.426 44.9419C61.1837 44.9319 60.9546 44.8286 60.7867 44.6537C60.6188 44.4786 60.5253 44.2454 60.5254 44.0029V43.0205C61.715 43.5752 63.9638 43.7456 63.9638 43.7456C64.7641 43.7239 66.0289 43.627 66.7222 43.2294C67.3571 42.8652 68.1591 42.3422 68.2677 41.5503C68.3096 41.244 68.2286 40.9336 68.0423 40.6868C67.856 40.4401 67.5797 40.2772 67.2736 40.2337C67.0896 40.197 66.8993 40.2103 66.7222 40.2722" stroke="black" stroke-miterlimit="10"/>
<path d="M77.0023 69.7258C76.9943 69.9555 76.9169 70.1775 76.7801 70.3623C76.3874 70.8452 75.6105 70.7499 75.0826 70.6012C72.8622 69.9697 71.5289 72.3756 70.6902 73.9962C68.5717 78.0929 65.3939 81.8988 61.4292 84.4183C61.172 84.5854 60.9096 84.7424 60.644 84.8961C56.7695 87.1316 51.7489 86.7156 48.0015 84.3949L52.7932 72.6245L53.2677 73.0038C56.1614 75.2877 59.7234 74.0062 62.1894 71.7524C62.8739 71.1289 63.4779 70.4221 63.9872 69.6489C64.8359 68.3441 65.5627 66.9356 66.7238 65.8747C68.3311 64.4061 70.6835 64.1188 72.7151 64.7403C74.7468 65.3618 77.1861 67.36 77.0023 69.7258Z" fill="white"/>
<path d="M76.9823 68.8919C76.9823 68.8919 76.4376 66.0081 71.5273 68.2586" stroke="black" stroke-miterlimit="10"/>
<path d="M74.2505 65.4305C74.2505 65.4305 71.1897 64.4514 69.4856 66.7905" stroke="black" stroke-miterlimit="10"/>
<path d="M12.4647 81.9408C13.2819 82.0136 14.1045 82.0001 14.919 81.9007C17.0481 81.6293 19.0847 80.867 20.8685 79.6734C22.1709 78.7944 23.2562 77.6307 24.0425 76.2702C24.8286 74.9098 25.295 73.3884 25.4063 71.821C25.6235 68.2206 23.4014 65.0595 21.9829 61.9169C20.8134 59.3155 19.9613 56.4218 20.526 53.625C20.9187 51.6769 22.7348 49.1773 22.9971 47.2074C23.2011 45.5327 23.2626 43.8437 23.1809 42.1585C23.0288 38.2071 23.7305 34.8909 25.3612 34.3863C26.3269 34.0872 26.9066 33.0881 26.5173 32.1559C26.1448 31.2603 25.6653 31.2069 23.799 30.1927C18.9338 27.5463 15.5506 32.48 13.6827 37.2366C12.6919 39.7578 12.4914 42.5579 11.24 44.9605C9.54256 48.2167 5.65973 50.1398 4.66731 53.6818C4.04746 55.8938 4.71576 58.2646 4.41503 60.5418C3.92383 64.2693 1.00838 67.2749 1.00002 71.121C0.986657 77.134 6.80252 81.4579 12.4647 81.9408Z" stroke="black" stroke-miterlimit="10"/>
<path d="M52.1667 108.935C51.7473 111.919 51.1224 115.342 50.4341 118.769C48.4827 128.481 45.9999 138.251 45.9999 138.251" stroke="black" stroke-miterlimit="10"/>
<path d="M52.723 103.299C52.7314 102.935 52.7364 102.601 52.723 102.283C52.5743 95.4332 47.649 93.7958 45.5305 93.4032C45.2144 93.3414 44.8946 93.3006 44.5731 93.2812" stroke="black" stroke-miterlimit="10"/>
<path d="M46.7351 135.289C47.0077 135.122 47.32 135.031 47.6396 135.025C47.9592 135.019 48.2748 135.098 48.5537 135.254C48.8325 135.411 49.0646 135.639 49.226 135.915C49.3874 136.191 49.4722 136.505 49.4717 136.825C49.4717 136.848 49.4717 136.876 49.4717 136.91C49.445 137.735 49.2276 138.542 48.8367 139.27C48.4456 139.996 47.8915 140.623 47.2179 141.1L44.8956 142.752" stroke="black" stroke-miterlimit="10"/>
<path d="M20.354 55.8332C20.6781 55.7012 21.0089 55.5842 21.3431 55.4756C22.0465 54.1758 21.9379 51.3305 21.871 50.2963L22.5744 48.7108C24.5158 49.9037 27.0854 49.4559 29.4696 48.6256C29.8044 48.5086 30.13 48.3668 30.4436 48.2012C31.9573 47.5062 34.0792 45.8622 33.1269 45.0134C32.1745 44.1647 32.2414 42.5307 32.8512 41.5282C33.0366 41.2208 33.3658 40.9184 33.7083 41.0137C33.9388 41.0771 34.0875 41.2927 34.2195 41.4915C34.3866 41.7404 34.5537 41.9793 34.7207 42.2233C34.7792 42.3051 34.8745 42.3903 34.9647 42.3536C35.0029 42.3285 35.0325 42.2924 35.0499 42.25C35.3439 41.6452 35.2888 40.7781 35.3389 40.1148C35.3974 39.3245 35.4425 38.5293 35.4659 37.7356C35.4793 37.2979 35.5695 36.8284 36.039 36.6747C36.1337 36.6383 36.2356 36.6238 36.3369 36.6325C36.4379 36.6411 36.5358 36.6727 36.6231 36.7248C36.7101 36.7771 36.7843 36.8485 36.8396 36.9335C36.8951 37.0187 36.9303 37.1153 36.9428 37.216C37.2845 39.1362 37.3346 41.0969 37.0915 43.0319C36.861 45.0585 36.445 47.2088 35.1451 48.8428C34.4046 49.7854 33.4124 50.499 32.2831 50.9011C31.1905 51.2804 31.2255 52.5986 31.2255 53.7548V55.6744C34.5854 56.3561 37.7415 57.1781 40.3512 59.5172C42.077 61.095 43.701 62.7808 45.213 64.5645C49.973 70.1498 51.0022 71.1973 53.2944 73.0034C56.1882 75.2873 59.7519 74.0059 62.2162 71.752C62.8995 71.1283 63.5024 70.4216 64.0106 69.6486C64.8593 68.3437 65.5861 66.9353 66.7456 65.8743C68.3545 64.4058 70.7069 64.1184 72.7386 64.7399C74.7702 65.3614 77.2128 67.3596 77.019 69.7254C77.0108 69.955 76.934 70.1767 76.7985 70.362C76.4059 70.8448 75.629 70.7496 75.101 70.6009C72.8789 69.9693 71.5473 72.3752 70.7069 73.9958C68.5901 78.0925 65.4107 81.8985 61.446 84.418C61.1887 84.585 60.9281 84.7421 60.6607 84.8958C56.2316 87.452 50.2938 86.5398 46.4845 83.2835L37.2954 75.4828" stroke="black" stroke-miterlimit="10"/>
<path d="M21.343 55.476C21.343 55.476 25.7321 54.1194 31.2255 55.6798" stroke="black" stroke-miterlimit="10"/>
<path d="M60.5254 43.0206C60.5254 43.0206 60.5588 48.7011 61.9138 50.8881" stroke="black" stroke-miterlimit="10"/>
<path d="M64.978 17.0202C63.9354 18.7995 63.9839 20.0626 64.2545 22.1126C64.2769 22.2872 64.2495 22.4645 64.1753 22.6242C64.1013 22.7839 63.9837 22.9194 63.8359 23.0152C63.6882 23.1109 63.5164 23.1629 63.3403 23.1652C63.1644 23.1674 62.9913 23.1199 62.8411 23.0282C56.8264 19.5664 51.1977 22.3048 44.0168 20.609C41.3804 19.9891 38.094 18.7076 35.8402 16.6443C35.0925 15.5337 34.6934 14.2254 34.694 12.8868C34.694 7.27468 42.3611 2.72357 51.8142 2.72357C57.874 2.72357 63.197 4.59314 66.2411 7.41001C66.2411 7.41001 66.2411 7.41001 66.2494 7.42004C67.0131 8.51807 67.43 9.82012 67.4457 11.1575C67.4457 13.1775 65.9487 15.3494 64.978 17.0202Z" fill="#D7E8F0"/>
<path d="M67.4188 11.1611V11.3031C67.3837 13.2696 66.3997 15.0974 65.2318 16.6796C64.4499 17.7388 63.5227 18.9134 63.7432 20.2115C63.8401 20.7829 64.1592 21.3025 64.2444 21.8823C64.3296 22.462 64.0189 23.1721 63.4391 23.2022C63.0715 23.2205 62.7574 22.9582 62.4667 22.7327C60.7409 21.3961 58.4987 20.8949 56.3184 20.808C54.1381 20.7211 51.9611 21.0068 49.7791 21.0686C46.6347 21.1588 43.4403 20.7662 40.5349 19.5649C37.9235 18.4756 35.5427 16.7046 33.9755 14.3472C32.4367 12.0232 33.3473 8.6516 34.988 6.63167C36.5284 4.73704 38.7572 3.52408 41.0444 2.67033C47.1944 0.373054 54.2149 0.428188 60.2814 2.94266C62.0825 3.68113 63.82 4.65685 65.1733 6.06361C66.4932 7.4353 67.4071 9.26313 67.4188 11.1611Z" stroke="black" stroke-miterlimit="10"/>
<path d="M42.1806 13.3966C43.4853 13.3966 44.543 12.339 44.543 11.0341C44.543 9.72944 43.4853 8.67169 42.1806 8.67169C40.8759 8.67169 39.8182 9.72944 39.8182 11.0341C39.8182 12.339 40.8759 13.3966 42.1806 13.3966Z" fill="white"/>
<path d="M49.8192 13.3966C51.1239 13.3966 52.1817 12.339 52.1817 11.0341C52.1817 9.72944 51.1239 8.67169 49.8192 8.67169C48.5145 8.67169 47.4568 9.72944 47.4568 11.0341C47.4568 12.339 48.5145 13.3966 49.8192 13.3966Z" fill="white"/>
<path d="M57.6066 13.3966C58.9113 13.3966 59.9691 12.339 59.9691 11.0341C59.9691 9.72944 58.9113 8.67169 57.6066 8.67169C56.3019 8.67169 55.2442 9.72944 55.2442 11.0341C55.2442 12.339 56.3019 13.3966 57.6066 13.3966Z" fill="white"/>
<g opacity="0.54">
<path opacity="0.54" d="M103.002 110.081L102.042 123.948C101.602 124.785 101.053 125.56 100.409 126.252C100.339 126.227 100.269 126.2 100.201 126.169C100.072 126.125 99.9449 126.073 99.8246 126.023C97.8782 125.17 96.3996 123.579 95.9686 121.776C95.5793 120.197 95.9301 118.492 95.1783 117.008C94.2611 115.18 91.7666 114.034 91.4609 111.972C91.1735 110.043 92.9111 108.273 92.6304 106.382C92.2963 104.244 89.6815 102.975 89.192 100.887C88.8863 99.5888 89.1603 98.0985 89.045 96.7619C88.9178 95.2668 88.6669 93.7847 88.2948 92.3311C92.1659 92.0504 96.1056 94.184 97.3603 97.2398C98.3845 99.7459 97.768 102.665 99.3652 104.944C100.237 106.178 101.689 107.102 102.441 108.394C102.673 108.797 102.842 109.233 102.942 109.687C102.942 109.719 102.942 109.75 102.954 109.775C102.954 109.827 102.967 109.864 102.974 109.902C102.991 110.018 103.002 110.081 103.002 110.081Z" fill="#5F62E2"/>
<path opacity="0.54" d="M103.009 110.069C103.009 110.069 102.998 110.012 102.984 109.902C102.996 109.946 103.004 109.991 103.009 110.036C103.012 110.041 103.013 110.047 103.013 110.052C103.013 110.058 103.012 110.064 103.009 110.069Z" fill="#5F62E2"/>
</g>
<path d="M115.799 104.658C115.297 106.459 112.552 107.553 112.222 109.399C111.929 111.037 113.737 112.564 113.438 114.226C113.119 116.009 110.521 116.994 109.567 118.57C108.79 119.85 109.152 121.322 108.751 122.683C108.287 124.231 106.747 125.612 104.715 126.344C104.588 126.389 104.468 126.433 104.339 126.471C104.269 126.491 104.192 126.516 104.122 126.534C103.454 125.981 102.677 125.007 102.047 123.957L103.002 110.081C103.748 109.449 104.6 108.871 105.193 108.17C105.836 107.413 106.135 106.586 106.326 105.719H106.346V105.623C106.625 104.255 106.65 102.822 107.293 101.523C108.598 98.8819 112.693 97.0408 116.723 97.283C116.342 98.5308 116.082 99.8119 115.946 101.109C115.83 102.257 116.114 103.543 115.799 104.658Z" fill="#5F62E2"/>
<path d="M106.352 105.612V105.707H106.332L106.352 105.612Z" fill="#5F62E2"/>
<path d="M106.352 105.611L106.332 105.707C106.142 106.574 105.843 107.401 105.199 108.158C104.606 108.859 103.754 109.438 103.009 110.069C103.012 110.06 103.012 110.051 103.009 110.042C103.004 109.997 102.995 109.953 102.984 109.909C102.984 109.87 102.971 109.833 102.964 109.782C102.964 109.757 102.964 109.725 102.952 109.693C102.852 109.239 102.683 108.803 102.451 108.4C101.699 107.108 100.247 106.185 99.3752 104.95C99.3752 104.95 99.7695 98.4423 103.099 96.4625C106.257 94.5913 106.352 104.529 106.352 105.611Z" fill="#5F62E2"/>
<path d="M106.352 105.612V105.707H106.332L106.352 105.612Z" fill="#5F62E2"/>
<path d="M103.002 110.042V110.081C103.002 110.081 102.991 110.024 102.977 109.914C102.989 109.956 102.997 109.999 103.002 110.042Z" fill="#5F62E2"/>
<path d="M102.705 110.081C103.447 109.449 104.309 108.863 104.904 108.163C106.574 106.193 105.93 103.675 107.001 101.515C108.304 98.8766 112.402 97.0371 116.43 97.2777C116.048 98.5249 115.787 99.8062 115.652 101.104C115.531 102.26 115.819 103.545 115.503 104.664C114.99 106.465 112.255 107.558 111.923 109.404C111.627 111.04 113.44 112.567 113.141 114.227C112.821 116.012 110.225 116.998 109.269 118.571C108.489 119.853 108.855 121.321 108.451 122.686C107.961 124.332 106.257 125.786 104.037 126.472C103.966 126.496 103.89 126.521 103.818 126.539C103.149 125.986 102.373 125.012 101.741 123.96" stroke="black" stroke-miterlimit="10"/>
<path d="M113.971 99.3442C107.964 105.808 105.139 119.437 104.04 126.474C103.95 127.067 103.873 127.61 103.799 128.099" stroke="black" stroke-miterlimit="10"/>
<path d="M114.526 132.063L111.771 148.367C111.705 148.814 111.483 149.223 111.145 149.522C110.807 149.82 110.374 149.99 109.923 150H95.4741C95.0183 149.989 94.5814 149.816 94.2419 149.512C93.9024 149.208 93.6828 148.792 93.6229 148.341L91.075 132.061L114.526 132.063Z" stroke="black" stroke-miterlimit="10"/>
<path d="M117.15 130.242C117.126 130.726 116.919 131.182 116.572 131.52C116.225 131.857 115.763 132.051 115.279 132.063H90.3666C89.8879 132.052 89.4308 131.861 89.0851 131.53C88.7394 131.199 88.5302 130.75 88.4987 130.272C88.3934 129.103 89.2589 128.1 90.3666 128.1H115.279C116.377 128.102 117.239 129.089 117.15 130.242Z" stroke="black" stroke-miterlimit="10"/>
<path d="M100.114 126.249C101.183 125.188 102.493 122.822 103.073 120.891C103.55 119.298 102.71 117.659 102.516 116.025C102.215 113.467 103.485 110.717 102.147 108.398C101.4 107.105 99.9483 106.186 99.0762 104.948C97.4706 102.668 98.0871 99.7506 97.0612 97.2495C95.8065 94.1903 91.8686 92.0568 87.9991 92.3408C88.3689 93.7949 88.6198 95.2768 88.7493 96.7716C88.8646 98.1082 88.5822 99.5986 88.893 100.895C89.3825 102.983 92.0089 104.248 92.3314 106.388C92.6154 108.28 90.8761 110.051 91.1618 111.977C91.4693 114.042 93.9603 115.183 94.8809 117.014C95.6294 118.5 95.2786 120.204 95.6662 121.781C96.1524 123.753 97.8749 125.485 100.114 126.249Z" stroke="black" stroke-miterlimit="10"/>
<path d="M90.3616 94.7366C96.1273 102.228 98.8406 118.015 99.9082 126.165C99.9984 126.872 100.075 127.52 100.144 128.1" stroke="black" stroke-miterlimit="10"/>
<path d="M99.0728 104.948C99.0728 104.948 99.4687 98.4405 102.797 96.4624C106.125 94.4842 106.055 105.57 106.055 105.57" stroke="black" stroke-miterlimit="10"/>
<path d="M102.705 110.081C102.705 110.081 102.025 106.358 103.218 102.698" stroke="black" stroke-miterlimit="10"/>
</svg>
