<svg width="637" height="637" viewBox="0 0 637 637" fill="none" xmlns="http://www.w3.org/2000/svg">
<g clip-path="url(#clip0_784_1267)">
<path d="M113.033 327.022C133.996 297.72 165.413 284.439 165.413 284.439C166.439 284.012 162.069 243.868 161.98 241.021C160.655 194.125 168.433 145.331 203.684 111.468C247.752 69.1645 327.708 60.3993 378.26 96.0395C377.623 95.5681 394.892 81.9554 396.351 81.0827C405.786 75.3886 416.433 72.0034 427.424 71.2029C471.657 68.0179 512.222 102.773 528.815 144.815C545.409 186.857 541.6 282.649 511.158 310.276" stroke="#CCDDE2" stroke-width="5.05" stroke-miterlimit="10"/>
<path d="M94.133 377.855C95.2229 366.314 98.19 355.029 102.917 344.444C103.368 343.438 103.839 342.452 104.331 341.489" stroke="#CCDDE2" stroke-width="5.05" stroke-miterlimit="10"/>
<path d="M148.8 499.801C143.704 495.17 138.984 490.456 134.659 485.717" stroke="#CCDDE2" stroke-width="5.05" stroke-miterlimit="10"/>
<path d="M573.45 362.076C573.488 365.261 573.45 368.51 573.297 371.765C572.393 391.901 568.08 412.712 557.302 429.668C555.34 432.797 553.151 435.778 550.754 438.586C527.822 435.561 524.401 412.17 497.883 398.946C466.115 383.065 414.098 388.754 414.098 388.754L439.725 365.115C438.355 293.924 386.089 298.294 386.089 298.294L383.433 304.797C385.45 298.907 387.491 293.414 389.554 288.318L389.669 288.051C413.875 227.931 438.954 220.478 458.465 211.795C463.126 210.688 467.899 210.119 472.689 210.101C522.573 209.833 551.849 260.634 564.653 301.53C567.838 311.722 572.737 333.52 573.393 358.031C573.405 359.344 573.45 360.713 573.45 362.076Z" fill="#2E2E2E"/>
<path d="M601.478 628.904C597.605 634.235 591.216 637.14 584.629 637.14H508.954C506.046 637.181 503.161 636.614 500.485 635.474C497.809 634.334 495.402 632.647 493.417 630.522C493.148 630.249 492.897 629.96 492.666 629.655C490.294 626.717 488.811 623.164 488.391 619.412C488.009 615.966 490.57 612.902 494.035 613.042C495.348 613.093 496.598 613.618 497.554 614.52C498.509 615.422 499.106 616.639 499.233 617.947C499.233 618.221 499.29 618.489 499.329 618.756C499.609 620.31 500.292 621.765 501.31 622.973C502.21 624.037 503.34 624.882 504.614 625.446C505.888 626.01 507.275 626.277 508.667 626.228H584.954C586.32 626.251 587.674 625.979 588.925 625.429C590.175 624.879 591.291 624.065 592.197 623.043C593.218 621.861 593.915 620.434 594.219 618.902C594.523 617.37 594.423 615.785 593.93 614.304L559.856 512.989C559.578 512.212 559.249 511.454 558.869 510.721C556.869 506.496 553.699 502.933 549.734 500.456C545.77 497.978 541.178 496.69 536.504 496.745C522.159 496.917 503.947 496.955 502.233 496.955C464.058 496.815 446.687 496.815 437.132 497.07C437.787 494.722 438.973 492.556 440.597 490.738C440.597 490.738 440.635 490.7 440.635 490.681C442.966 488.197 446.155 486.696 449.553 486.483C463.708 485.324 477.722 483.209 491.334 479.514C515.356 473.004 538.268 461.838 554.187 443.881C561.936 435.188 567.793 424.98 571.386 413.903C574.175 405.108 575.932 396.019 576.622 386.818C576.869 383.913 577.022 380.987 577.081 378.04V377.906C577.081 377.231 577.119 376.537 577.119 375.862C577.206 371.664 577.014 367.465 576.546 363.294C580.705 363.326 584.689 364.975 587.655 367.893C587.915 368.579 588.107 369.29 588.228 370.014C588.344 370.7 588.401 371.394 588.4 372.091V454.487C588.407 460.115 587.296 465.688 585.133 470.882C582.968 476.078 579.794 480.792 575.794 484.75C569.169 491.312 567.284 501.268 570.424 510.027L604.287 610.787C605.31 613.81 605.589 617.035 605.1 620.189C604.611 623.343 603.369 626.332 601.478 628.904Z" fill="#5F62E2"/>
<path d="M134.665 626.36V395.365H148.8V626.456L134.665 626.36Z" fill="#2E2E2E"/>
<path d="M414.104 388.722C424.226 387.645 435.934 386.372 447.178 386.626" stroke="black" stroke-width="5.05" stroke-miterlimit="10"/>
<path d="M358.966 398.926C341.041 403.448 323.599 409.977 308.719 420.832C283.749 439.025 272.334 472.964 282.538 502.368C282.538 502.406 322.669 618.168 322.669 618.168H312.108C309.832 618.168 307.578 618.617 305.477 619.492C303.375 620.366 301.468 621.649 299.865 623.264C296.724 626.385 295.177 631.59 295.177 636.367H390.236L354.112 518.204C353.211 515.291 353.008 512.207 353.521 509.202C354.033 506.196 355.245 503.353 357.06 500.904C358.875 498.454 361.24 496.466 363.967 495.1C366.693 493.734 369.702 493.029 372.75 493.042C393.332 493.622 412.448 494.412 433.265 493.507" stroke="black" stroke-width="5.05" stroke-miterlimit="10"/>
<path d="M573.597 372.726V372.599C572.673 347.756 571.424 323.244 564.628 301.51C551.824 260.614 522.547 209.814 472.664 210.081C467.874 210.1 463.101 210.668 458.44 211.776C425.558 219.592 402.721 253.282 389.644 288.031L389.529 288.298C388.28 291.632 387.126 294.957 386.064 298.274C385.344 300.506 384.456 302.68 383.407 304.778C379.401 312.85 373.051 319.526 365.189 323.93C357.325 328.334 348.316 330.262 339.34 329.461C278.952 323.97 199.365 320.836 174.299 363.267" stroke="black" stroke-width="5.05" stroke-miterlimit="10"/>
<path d="M474.779 326.519C465.988 337.131 456.732 347.381 447.165 357.293C427.577 377.6 410.677 399.169 380.28 400.608C356.029 401.774 332.944 392.468 310.012 386.015C285.481 379.116 273.066 373.6 250.204 366.631C243.62 364.632 236.79 363.56 229.91 363.446L206.895 363.624" stroke="black" stroke-width="5.05" stroke-miterlimit="10"/>
<path d="M385.013 619.661C387.204 618.678 389.58 618.174 391.981 618.183H402.568C402.568 618.183 380.439 575.166 362.743 546.533" stroke="black" stroke-width="5.05" stroke-miterlimit="10"/>
<path d="M399.549 493.605L473.568 637.14H389.841H374.655" stroke="black" stroke-width="5.05" stroke-miterlimit="10"/>
<path d="M601.478 628.904C597.605 634.235 591.216 637.14 584.629 637.14H508.954C502.679 637.14 496.558 634.541 492.647 629.636C490.275 626.698 488.792 623.144 488.372 619.393C487.99 615.947 490.551 612.883 494.016 613.023C495.329 613.074 496.579 613.599 497.535 614.5C498.49 615.402 499.087 616.62 499.214 617.928C499.369 619.778 500.094 621.534 501.291 622.954C502.204 624.001 503.337 624.836 504.607 625.398C505.879 625.961 507.258 626.237 508.648 626.209H584.954C586.32 626.232 587.674 625.96 588.925 625.41C590.174 624.86 591.291 624.046 592.197 623.024C593.218 621.842 593.915 620.415 594.219 618.883C594.522 617.351 594.423 615.766 593.93 614.284L559.856 512.989C558.131 508.192 554.956 504.052 550.771 501.141C546.587 498.231 541.601 496.694 536.504 496.745C522.159 496.917 503.947 496.955 502.233 496.955C459.726 496.822 442.992 496.822 434.125 497.147C433.987 497.145 433.851 497.117 433.723 497.064C433.596 497.01 433.481 496.932 433.384 496.834C433.287 496.736 433.21 496.62 433.158 496.492C433.106 496.364 433.079 496.227 433.081 496.089C433.068 492.156 434.511 488.358 437.132 485.426C437.142 485.418 437.151 485.409 437.157 485.398C437.164 485.387 437.168 485.374 437.17 485.362C439.504 482.884 442.691 481.386 446.088 481.171C460.242 480.011 474.256 477.896 487.869 474.202C511.89 467.692 534.803 456.525 550.722 438.568C558.47 429.875 564.327 419.667 567.921 408.591C570.702 399.799 572.452 390.714 573.138 381.518C573.388 378.605 573.541 375.679 573.596 372.74V372.6C573.596 371.931 573.635 371.237 573.635 370.562C573.721 366.364 573.53 362.166 573.061 357.994C579.992 357.956 586.98 362.994 588.19 370.027C588.305 370.713 588.363 371.407 588.362 372.103V454.487C588.368 460.115 587.258 465.688 585.094 470.882C582.93 476.078 579.756 480.792 575.756 484.75C569.131 491.312 567.246 501.268 570.386 510.027L604.249 610.787C605.277 613.807 605.562 617.031 605.08 620.184C604.598 623.338 603.362 626.329 601.478 628.904Z" stroke="black" stroke-width="5.05" stroke-miterlimit="10"/>
<path d="M237.904 377.863H40.746C35.9157 377.863 32 381.778 32 386.609V386.615C32 391.445 35.9157 395.361 40.746 395.361H237.904C242.734 395.361 246.65 391.445 246.65 386.615V386.609C246.65 381.778 242.734 377.863 237.904 377.863Z" stroke="black" stroke-width="5.05" stroke-miterlimit="10"/>
<path d="M182.071 627.457H102.35C99.6449 627.457 97.4518 629.65 97.4518 632.355C97.4518 635.061 99.6449 637.254 102.35 637.254H182.071C184.776 637.254 186.969 635.061 186.969 632.355C186.969 629.65 184.776 627.457 182.071 627.457Z" stroke="black" stroke-width="5.05" stroke-miterlimit="10"/>
<path d="M123.639 370.008V370.887C123.766 376.933 129.455 377.856 134.36 377.894L229.183 377.831C233.337 377.831 236.764 374.646 236.77 370.735V370.569C236.694 366.747 233.356 363.632 229.253 363.626C229.253 363.626 176.204 363.435 135.118 363.313C134.379 365.467 132.506 367.135 130.168 368.499C128.157 369.553 125.908 370.073 123.639 370.008Z" stroke="black" stroke-width="5.05" stroke-miterlimit="10"/>
<path d="M71.494 284.84C71.5137 285.847 71.8017 286.83 72.3285 287.688L116.281 361.509C116.85 362.397 117.597 363.157 118.473 363.743C119.351 364.328 120.339 364.726 121.377 364.911C123.134 365.257 124.954 365.059 126.594 364.344C129.289 363.147 130.843 360.732 130.792 358.286C130.783 357.979 130.751 357.672 130.697 357.369C130.562 356.694 130.311 356.048 129.958 355.458L86.0049 281.636C84.0939 278.406 79.4183 277.139 75.66 278.801C72.9782 279.973 71.4239 282.388 71.494 284.84Z" stroke="black" stroke-width="5.05" stroke-miterlimit="10"/>
<path d="M190.345 363.625C190.345 363.625 195.639 358.586 207.812 350.585" stroke="black" stroke-width="5.05" stroke-miterlimit="10"/>
<path d="M233.509 280.814L214.214 302.211C212.87 303.702 211.005 304.62 209.004 304.775C207.003 304.93 205.019 304.311 203.461 303.046C202.601 302.347 201.899 301.474 201.401 300.484C200.902 299.494 200.62 298.41 200.572 297.303C200.523 296.196 200.711 295.091 201.121 294.061C201.531 293.032 202.155 292.101 202.952 291.331L206.481 287.917C206.614 287.726 206.767 287.554 206.92 287.375L209.468 284.566L231.381 260.755C234.04 257.832 237.39 255.622 241.123 254.327C244.856 253.032 248.855 252.693 252.752 253.34L253.077 253.398" stroke="black" stroke-width="5.05" stroke-miterlimit="10"/>
<path d="M260.683 286.605H241.382C239.186 286.605 237.08 285.732 235.527 284.179C233.974 282.626 233.101 280.52 233.101 278.324C233.101 276.127 233.974 274.021 235.527 272.468C237.08 270.915 239.186 270.043 241.382 270.043H268.773" stroke="black" stroke-width="5.05" stroke-miterlimit="10"/>
<path d="M245.885 286.605C245.618 289.987 244.325 292.49 242.42 294.249C237.515 298.708 228.521 298.217 222.266 295.153" stroke="black" stroke-width="5.05" stroke-miterlimit="10"/>
<path d="M209.5 284.554C203.952 277.871 205.092 268.788 209.405 261.762C227.209 232.689 261.148 250.595 283.462 263.125C296.746 270.619 309.443 279.107 321.446 288.516C332.072 296.797 341.907 306.708 354.672 311.69C362.316 314.677 371.343 315.391 378.948 311.945" stroke="black" stroke-width="5.05" stroke-miterlimit="10"/>
<path d="M242.42 294.199C255.884 304.137 268.74 314.873 280.92 326.348" stroke="black" stroke-width="5.05" stroke-miterlimit="10"/>
<path d="M406.244 137.915C409.467 140.858 414.417 141.017 418.512 140.622C423.749 140.144 428.934 138.877 434.062 137.807L437.177 137.647H437.221C437.819 137.654 438.409 137.777 438.958 138.011C439.508 138.245 440.006 138.585 440.424 139.011C440.843 139.438 441.172 139.942 441.395 140.497C441.619 141.051 441.73 141.643 441.725 142.24C441.796 148.963 441.125 155.673 439.725 162.248L445.693 165.478C446.464 163.325 445.598 160.223 447.426 159.987C448.598 157.802 450.343 156.381 453.082 158.006C458.446 161.191 460.561 170.548 455.395 174.835L458.707 181.027C459.862 183.198 461.734 184.9 464.004 185.843C466.274 186.787 468.802 186.913 471.154 186.199L467.772 178.721C475.709 180.129 481.263 170.223 478.843 164.178C477.193 160.025 477.276 156.795 479.48 152.757C479.626 152.483 478.129 152.12 478.257 151.84C478.333 148.878 477.511 145.705 476.085 144.196C473.575 141.495 468.523 141.011 469.555 136.908C470.014 135.123 470.183 133.276 470.059 131.437C469.789 129.032 469.008 126.713 467.767 124.635C466.527 122.557 464.856 120.769 462.867 119.391C458.688 116.645 454.012 119.136 449.547 119.066C444.126 119.009 440.241 114.41 434.559 114.339C431.73 114.295 429.462 115.397 427.042 116.766C425.016 117.932 423.022 119.149 421.086 120.467C419.149 121.786 417.43 122.926 415.117 122.933C412.104 122.971 409.193 121.06 406.161 121.952C404.628 122.364 403.281 123.285 402.339 124.563C401.377 129.264 403.116 135.08 406.244 137.915Z" fill="#5F62E2"/>
<path d="M445.719 164.779C446.107 163.12 446.68 161.509 447.426 159.976C448.598 157.791 450.35 156.371 453.082 157.995C458.446 161.18 460.561 170.537 455.395 174.824L458.707 181.016C459.861 183.186 461.734 184.889 464.004 185.832C466.274 186.776 468.802 186.901 471.154 186.189" stroke="black" stroke-width="5.05" stroke-linecap="round" stroke-linejoin="round"/>
<path d="M467.772 178.71L471.141 186.201C471.989 187.991 474.416 193.495 476.957 199.215C478.766 203.311 480.652 207.528 482.053 210.63" stroke="black" stroke-width="5.05" stroke-linecap="round" stroke-linejoin="round"/>
<path d="M413.187 151.81C413.187 151.81 423.118 149.338 427.456 156.867" stroke="black" stroke-width="5.05" stroke-miterlimit="10"/>
<path d="M416.111 174.289C413.436 175.022 409.837 175.678 407.773 173.347L412.27 163.881C413.362 161.56 413.632 158.936 413.034 156.441C412.053 152.243 409.601 145.866 412.232 140.331" stroke="black" stroke-width="5.05" stroke-miterlimit="10"/>
<path d="M422.794 161.603C423.547 160.353 422.966 158.621 421.496 157.734C420.025 156.848 418.223 157.143 417.469 158.394C416.715 159.644 417.296 161.376 418.767 162.262C420.237 163.149 422.04 162.853 422.794 161.603Z" fill="black"/>
<path d="M437.285 221.199L434.928 195.043" stroke="black" stroke-width="5.05" stroke-miterlimit="10"/>
<path d="M445.693 165.465C445.693 165.236 445.693 165 445.693 164.771C445.706 164.525 445.706 164.278 445.693 164.032" stroke="black" stroke-width="5.05" stroke-linecap="round" stroke-linejoin="round"/>
<path d="M445.7 165.474L443.649 164.372L439.725 162.238" stroke="black" stroke-width="5.05" stroke-linecap="round" stroke-linejoin="round"/>
<path d="M429.278 174.963C429.278 174.963 429.08 181.587 421.506 184.314" stroke="black" stroke-width="5.05" stroke-miterlimit="10"/>
<path d="M467.772 178.71C475.709 180.117 481.263 170.212 478.843 164.167C477.193 160.014 477.276 156.784 479.48 152.745C479.626 152.472 479.747 152.204 479.875 151.936C481.512 148.325 480.932 144.745 478.359 141.674C475.919 138.77 472.243 137.75 473.301 133.514C473.776 131.675 473.952 129.772 473.823 127.877C473.549 125.404 472.747 123.018 471.472 120.881C470.197 118.744 468.479 116.905 466.434 115.487C462.141 112.64 457.306 115.22 452.681 115.15C447.114 115.067 443.094 110.328 437.253 110.258C434.329 110.258 431.972 111.347 429.488 112.761C427.399 113.965 425.328 115.233 423.354 116.583C421.379 117.933 419.532 119.131 417.188 119.131C414.079 119.131 411.079 117.22 407.97 118.112C404.862 119.004 403.014 121.577 402.403 124.558C401.409 129.234 403.148 135.075 406.276 137.935C409.499 140.878 414.448 141.037 418.544 140.642C423.78 140.165 428.966 138.897 434.093 137.827L437.208 137.668H437.253C437.851 137.673 438.44 137.797 438.99 138.031C439.54 138.265 440.038 138.605 440.456 139.031C440.874 139.458 441.204 139.963 441.428 140.516C441.651 141.071 441.762 141.663 441.757 142.26C441.828 148.983 441.157 155.693 439.756 162.269" stroke="black" stroke-width="5.05" stroke-miterlimit="10"/>
<path d="M446.897 185.959C446.897 185.959 435.062 201.68 424.545 198.157C414.028 194.635 413.493 175.174 413.493 175.174" stroke="black" stroke-width="5.05" stroke-linecap="round" stroke-linejoin="round"/>
<path d="M134.665 626.36V395.365H148.8V626.456" stroke="black" stroke-width="5.05" stroke-miterlimit="10"/>
<path d="M147.673 260.953C160.275 260.953 170.49 250.737 170.49 238.135C170.49 225.533 160.275 215.318 147.673 215.318C135.071 215.318 124.855 225.533 124.855 238.135C124.855 250.737 135.071 260.953 147.673 260.953Z" fill="#5F62E2"/>
<path d="M138.748 244.021C138.081 243.565 137.488 243.008 136.99 242.371C136.109 241.281 135.659 239.906 135.723 238.505C135.788 237.105 136.364 235.777 137.341 234.772C137.978 234.116 138.759 233.616 139.622 233.312C140.486 233.008 141.407 232.908 142.316 233.02C142.114 231.757 142.33 230.462 142.93 229.332C143.529 228.202 144.481 227.297 145.64 226.756C146.799 226.214 148.103 226.064 149.354 226.329C150.606 226.594 151.738 227.259 152.578 228.224C154.355 230.237 155.189 233.23 155.502 235.868C155.663 237.244 155.684 238.634 155.565 240.014C155.508 240.709 155.259 244.716 154.61 244.97C150.316 246.614 142.997 246.97 138.748 244.021Z" fill="white"/>
<path d="M308.662 255.569C315.417 255.569 320.892 250.094 320.892 243.339C320.892 236.584 315.417 231.109 308.662 231.109C301.907 231.109 296.431 236.584 296.431 243.339C296.431 250.094 301.907 255.569 308.662 255.569Z" fill="#5F62E2"/>
<path d="M307.821 237.671C308.193 237.446 308.6 237.285 309.025 237.193C309.756 237.017 310.525 237.115 311.189 237.466C311.853 237.819 312.365 238.401 312.63 239.104C312.803 239.563 312.867 240.057 312.817 240.546C312.767 241.034 312.606 241.504 312.344 241.92C312.988 242.124 313.55 242.529 313.95 243.075C314.348 243.62 314.564 244.278 314.564 244.955C314.564 245.631 314.348 246.29 313.95 246.835C313.55 247.381 312.988 247.785 312.344 247.99C310.885 248.309 309.365 248.199 307.968 247.672C307.264 247.434 306.585 247.127 305.942 246.755C305.617 246.57 303.725 245.538 303.757 245.162C303.942 242.69 305.439 239.06 307.821 237.671Z" fill="white"/>
<path d="M213.832 229.389C215.202 230.533 216.733 231.47 218.373 232.172C221.395 233.434 224.693 233.888 227.944 233.492C231.194 233.096 234.286 231.862 236.917 229.911C238.955 228.357 240.739 226.21 242.847 224.649C244.318 223.497 246.084 222.782 247.943 222.585C248.561 222.603 249.174 222.474 249.733 222.21C251.147 221.331 249.478 219.872 249.332 218.84C249.135 217.189 249.55 215.524 250.497 214.158C252.917 210.55 254.014 206.216 253.602 201.891C253.191 197.566 251.296 193.517 248.239 190.43C245.182 187.343 241.151 185.408 236.831 184.954C232.51 184.501 228.165 185.555 224.533 187.939C220.947 190.29 218.284 193.774 215.583 197.105C213.201 200.042 210.71 202.934 208.965 206.291C204.863 214.183 207.258 223.904 213.832 229.389Z" fill="#5F62E2"/>
<path d="M238.159 203.374C240.414 203.374 242.242 201.546 242.242 199.291C242.242 197.035 240.414 195.208 238.159 195.208C235.904 195.208 234.076 197.035 234.076 199.291C234.076 201.546 235.904 203.374 238.159 203.374Z" fill="white"/>
<path d="M230.26 213.031C232.515 213.031 234.343 211.203 234.343 208.948C234.343 206.693 232.515 204.865 230.26 204.865C228.005 204.865 226.177 206.693 226.177 208.948C226.177 211.203 228.005 213.031 230.26 213.031Z" fill="white"/>
<path d="M222.852 222.096C225.107 222.096 226.935 220.267 226.935 218.012C226.935 215.758 225.107 213.929 222.852 213.929C220.597 213.929 218.768 215.758 218.768 218.012C218.768 220.267 220.597 222.096 222.852 222.096Z" fill="white"/>
<g opacity="0.46">
<path opacity="0.46" d="M340.945 179.773C340.626 181.373 339.954 182.88 338.977 184.186C338.001 185.492 336.745 186.564 335.301 187.322L301.247 205.413C299.963 206.098 298.556 206.523 297.107 206.664C295.658 206.804 294.196 206.657 292.804 206.23C291.412 205.804 290.118 205.108 288.996 204.181C287.873 203.253 286.945 202.113 286.265 200.826L259.122 149.72C257.747 147.128 257.457 144.096 258.316 141.29C259.175 138.485 261.112 136.134 263.702 134.757L297.782 116.672C302.91 113.946 309.987 116.035 312.739 121.252L339.888 172.34C341.109 174.614 341.484 177.248 340.945 179.773Z" fill="#5F62E2"/>
</g>
<path d="M330.836 175.901L297.629 163.244C297.206 163.079 296.855 162.77 296.639 162.371C296.423 161.972 296.356 161.509 296.451 161.065L304.152 125.642C304.239 125.265 304.439 124.923 304.725 124.663C305.01 124.401 305.368 124.233 305.751 124.18C306.134 124.127 306.524 124.191 306.87 124.365C307.215 124.538 307.501 124.812 307.687 125.151L333.193 173.219C333.373 173.561 333.445 173.951 333.4 174.335C333.354 174.719 333.193 175.081 332.937 175.371C332.682 175.661 332.344 175.868 331.969 175.963C331.594 176.057 331.198 176.035 330.836 175.901Z" fill="white"/>
<g opacity="0.46">
<path opacity="0.46" d="M380.439 215.336C381.136 215.836 381.712 216.486 382.124 217.238C382.536 217.989 382.775 218.825 382.821 219.681L384.095 239.931C384.144 240.695 384.041 241.462 383.793 242.186C383.544 242.911 383.155 243.579 382.648 244.153C382.141 244.727 381.526 245.195 380.837 245.531C380.148 245.866 379.401 246.063 378.636 246.11L348.245 247.983C346.705 248.075 345.191 247.553 344.035 246.53C342.879 245.508 342.176 244.07 342.079 242.53L340.837 222.267C340.782 220.737 341.316 219.244 342.33 218.097C343.343 216.95 344.758 216.235 346.283 216.101L376.668 214.19C378.021 214.114 379.357 214.52 380.439 215.336Z" fill="#5F62E2"/>
</g>
<path d="M376.4 219.337L363.1 232.504C362.931 232.663 362.711 232.76 362.479 232.776C362.247 232.793 362.016 232.728 361.826 232.593L346.538 221.19C346.375 221.067 346.253 220.897 346.19 220.703C346.126 220.509 346.124 220.299 346.183 220.104C346.242 219.908 346.359 219.736 346.52 219.608C346.68 219.481 346.875 219.407 347.079 219.394L375.668 217.63C375.868 217.625 376.065 217.679 376.233 217.788C376.402 217.895 376.533 218.051 376.612 218.235C376.691 218.419 376.713 218.622 376.676 218.819C376.638 219.015 376.542 219.195 376.4 219.337Z" fill="white"/>
<g opacity="0.46">
<path opacity="0.46" d="M174.051 326.615C172.057 326.943 170.04 327.113 168.019 327.124C148.667 327.124 149.316 309.18 149.316 309.18L165.35 312.645C164.744 311.161 164.512 309.551 164.674 307.956C164.836 306.36 165.388 304.83 166.28 303.498C169.949 298.134 178.472 300.892 178.472 300.892L183.772 297.478L182.625 303.848L189.728 302.651L186.078 306.874C190.982 311.588 197.231 325.939 182.16 333.399C167.089 340.858 160.585 331.921 160.585 331.921L168.019 327.13L174.051 326.615Z" fill="#5F62E2"/>
</g>
<path d="M173.732 309.065C175.013 309.065 176.051 308.028 176.051 306.747C176.051 305.466 175.013 304.428 173.732 304.428C172.452 304.428 171.414 305.466 171.414 306.747C171.414 308.028 172.452 309.065 173.732 309.065Z" fill="white"/>
<path d="M214.15 637.139H479.314" stroke="black" stroke-width="3.15" stroke-miterlimit="10"/>
</g>
<defs>
<clipPath id="clip0_784_1267">
<rect width="637" height="637" fill="white"/>
</clipPath>
</defs>
</svg>
