<svg width="217" height="151" viewBox="0 0 217 151" fill="none" xmlns="http://www.w3.org/2000/svg">
<path d="M197.686 16.2899H154.589C152.395 16.2899 150.616 18.0687 150.616 20.2629V81.8896C150.616 84.0838 152.395 85.8626 154.589 85.8626H197.686C199.88 85.8626 201.659 84.0838 201.659 81.8896V20.2629C201.659 18.0687 199.88 16.2899 197.686 16.2899Z" stroke="#CCDDE2" stroke-miterlimit="10"/>
<path d="M195.826 23.4575H156.972C155.875 23.4575 154.986 24.3469 154.986 25.444V33.7076C154.986 34.8047 155.875 35.6941 156.972 35.6941H195.826C196.923 35.6941 197.812 34.8047 197.812 33.7076V25.444C197.812 24.3469 196.923 23.4575 195.826 23.4575Z" stroke="#CCDDE2" stroke-miterlimit="10"/>
<path d="M176.138 28.6118C176.836 28.6118 177.403 28.0453 177.403 27.3464C177.403 26.6476 176.836 26.081 176.138 26.081C175.439 26.081 174.872 26.6476 174.872 27.3464C174.872 28.0453 175.439 28.6118 176.138 28.6118Z" fill="#D7E8F0"/>
<path d="M172.602 33.0726C172.602 32.1347 172.974 31.2353 173.637 30.5723C174.3 29.909 175.2 29.5365 176.138 29.5365C177.075 29.5365 177.975 29.909 178.638 30.5723C179.301 31.2353 179.674 32.1347 179.674 33.0726H172.602Z" fill="#D7E8F0"/>
<path d="M176.395 48.8092C175.047 48.8097 173.73 49.2098 172.609 49.9591C171.488 50.7083 170.615 51.7732 170.099 53.0188C169.584 54.2644 169.449 55.6349 169.713 56.9572C169.976 58.2792 170.625 59.4935 171.579 60.4467C172.532 61.3998 173.747 62.0488 175.069 62.3116C176.391 62.5745 177.762 62.4394 179.007 61.9232C180.252 61.4072 181.317 60.5336 182.066 59.4126C182.815 58.2916 183.215 56.9739 183.215 55.6258C183.215 54.7305 183.038 53.8437 182.695 53.0167C182.353 52.1894 181.85 51.4377 181.217 50.8048C180.584 50.1718 179.832 49.6697 179.005 49.3273C178.178 48.9849 177.291 48.8087 176.395 48.8092ZM176.395 60.7974C176.14 60.7848 175.898 60.6742 175.721 60.4887C175.545 60.3032 175.446 60.0568 175.446 59.8006C175.446 59.5442 175.545 59.2978 175.721 59.1122C175.898 58.9267 176.14 58.8162 176.395 58.8037C176.651 58.8162 176.893 58.9267 177.07 59.1122C177.246 59.2978 177.345 59.5442 177.345 59.8006C177.345 60.0568 177.246 60.3032 177.07 60.4887C176.893 60.6742 176.651 60.7848 176.395 60.7974ZM177.654 53.1308C177.444 54.6087 177.267 56.1607 176.825 57.598C176.72 57.9442 176.071 57.9442 175.966 57.598C175.655 56.5174 175.415 55.4174 175.249 54.3055C175.113 53.4961 174.641 52.1853 175.092 51.3998C175.491 50.6835 176.613 50.6119 177.265 50.9796C178.064 51.4308 177.749 52.3954 177.654 53.1308Z" fill="#D7E8F0"/>
<path d="M101.809 30.1026C99.4187 29.3899 96.8711 29.402 94.488 30.1372C92.1049 30.8726 89.9936 32.298 88.4206 34.2334C86.8477 36.1688 85.884 38.527 85.6517 41.0101C85.4191 43.493 85.9279 45.9893 87.1144 48.183C88.3005 50.3767 90.1106 52.1696 92.3158 53.3345C94.5207 54.4994 97.0218 54.9843 99.5025 54.7279C101.983 54.4712 104.332 53.4849 106.252 51.8933C108.172 50.302 109.577 48.1768 110.289 45.7868C110.763 44.2 110.919 42.5356 110.748 40.8886C110.578 39.2416 110.085 37.6443 109.298 36.1879C108.51 34.7314 107.444 33.4445 106.159 32.4004C104.874 31.356 103.395 30.5753 101.809 30.1026ZM95.4743 51.3523C95.019 51.2019 94.6401 50.88 94.4181 50.4548C94.1963 50.0298 94.1487 49.5349 94.2858 49.0752C94.4228 48.6156 94.7335 48.2276 95.152 47.9934C95.5706 47.7592 96.0638 47.6974 96.5273 47.821C96.7656 47.8845 96.9886 47.9953 97.1832 48.1465C97.378 48.2978 97.5403 48.4867 97.6607 48.7018C97.781 48.9169 97.8572 49.1543 97.8842 49.3992C97.9114 49.6442 97.8889 49.8923 97.8185 50.1287C97.7481 50.3648 97.6308 50.5847 97.474 50.775C97.3171 50.965 97.1237 51.1219 96.905 51.236C96.6865 51.3502 96.4473 51.4192 96.2016 51.4392C95.9557 51.459 95.7086 51.4297 95.4743 51.3523ZM101.754 38.4258C100.601 40.9352 99.464 43.5926 97.9336 45.9062C97.5659 46.4649 96.4127 46.121 96.4103 45.4525C96.4299 43.3748 96.5894 41.3009 96.8878 39.2447C97.074 37.7429 96.9284 35.1691 98.1437 34.0135C99.2229 32.9796 101.248 33.4237 102.215 34.417C103.377 35.6299 102.312 37.1747 101.754 38.4258Z" fill="#5F62E2"/>
<path d="M66.5915 58.0202C65.7171 58.91 65.1262 60.0391 64.8936 61.2647C64.6608 62.4903 64.7967 63.7574 65.2842 64.9058C65.7716 66.0542 66.5884 67.0322 67.6317 67.7163C68.6749 68.4003 69.8973 68.7599 71.1449 68.7492C72.3924 68.7384 73.6087 68.3583 74.6401 67.6563C75.6713 66.9544 76.4714 65.9626 76.9389 64.806C77.4066 63.6495 77.5208 62.3802 77.2672 61.1587C77.0136 59.9372 76.4034 58.8186 75.514 57.9438C74.3204 56.771 72.7102 56.1201 71.037 56.1344C69.3637 56.1488 67.7647 56.8271 66.5915 58.0202ZM74.504 65.7966C74.4192 65.8831 74.3183 65.9518 74.2068 65.9991C74.0953 66.0466 73.9756 66.0714 73.8546 66.0726C73.7335 66.0736 73.6134 66.0509 73.5012 66.0055C73.389 65.9604 73.2868 65.8933 73.2004 65.8086C73.1139 65.7238 73.0452 65.6228 72.9979 65.5113C72.9504 65.4 72.9256 65.2802 72.9244 65.1591C72.9234 65.0381 72.9461 64.918 72.9915 64.8058C73.0366 64.6935 73.1037 64.5914 73.1884 64.5049C73.3596 64.3304 73.5934 64.2313 73.8379 64.2289C74.0824 64.2268 74.3175 64.3218 74.4921 64.493C74.6666 64.6642 74.7657 64.8979 74.7681 65.1424C74.7702 65.3869 74.6752 65.6221 74.504 65.7966ZM70.2612 59.9971C71.0993 61.0954 72.009 62.22 72.6703 63.4424C72.8303 63.7361 72.4101 64.1587 72.114 64.0107C71.2022 63.5129 70.3247 62.9547 69.4876 62.3394C68.8645 61.9072 67.6945 61.3676 67.4677 60.5582C67.2624 59.8419 67.9452 59.0445 68.5994 58.8558C69.4041 58.6219 69.8362 59.4551 70.2612 59.9971Z" fill="#5F62E2"/>
<path d="M159.269 41.1566H192.569" stroke="#CCDDE2" stroke-miterlimit="10"/>
<path d="M159.269 44.4348H192.569" stroke="#CCDDE2" stroke-miterlimit="10"/>
<path d="M159.269 65.5411H192.569" stroke="#CCDDE2" stroke-miterlimit="10"/>
<path d="M167.002 68.6432H184.833" stroke="#CCDDE2" stroke-miterlimit="10"/>
<path d="M201.661 61.2386C204.598 64.9299 207.391 69.5045 209.917 75.1417C225.298 109.49 206.073 126.922 206.073 126.922" stroke="#9F9F9F" stroke-miterlimit="10"/>
<path d="M41.0106 88.4748C41.0106 88.4748 18.1874 62.5859 46.6478 49.7669C75.1081 36.9478 80.7429 35.1666 78.6895 21.8318C76.6362 8.49698 92.7765 -5.08138 118.159 3.89127C143.542 12.8639 144.05 29.773 142.25 42.8452C141.228 50.2969 145.457 52.0876 150.607 51.7128" stroke="#9F9F9F" stroke-miterlimit="10"/>
<path d="M200.052 138.094C199.994 139.523 199.624 140.922 198.968 142.194C198.942 142.257 198.911 142.318 198.877 142.377C197.726 144.445 196.116 146.221 194.171 147.568L194.102 147.616C192.346 148.79 190.371 149.599 188.295 149.992H210.39C210.39 149.992 207.434 107.838 180.268 87.3286C153.978 67.4828 129.364 77.0475 127.802 77.6874C128.286 79.0531 128.502 80.4993 128.44 81.9469C128.44 81.9469 130.417 82.976 130.746 86.6601C131.076 90.3442 131.763 100.587 125.152 102.516C125.152 102.516 119.217 102.371 117.648 100.093C116.079 97.815 115.702 98.2782 115.086 98.856C114.608 99.2929 111.727 100.854 110.397 101.571C110.565 101.579 110.732 101.602 110.896 101.64C110.896 101.64 111.657 108.067 120.976 118.141C121.292 118.473 121.59 118.822 121.869 119.187C123.276 120.417 124.858 121.673 126.613 122.954L137.248 130.735C137.488 130.94 137.772 131.084 138.079 131.158C138.674 131.308 139.296 131.314 139.893 131.175C141.13 130.936 149.575 130.074 155.04 129.53C155.164 129.53 155.296 129.506 155.417 129.491L156.134 129.422C156.248 129.422 156.373 129.398 156.473 129.391L157.117 129.329C157.433 129.298 157.717 129.267 157.979 129.246L158.696 129.176C159.328 129.114 159.703 129.076 159.734 129.076C161.036 129.039 162.334 128.913 163.619 128.699C164.849 128.46 165.971 128.076 166.262 127.438C166.317 127.304 166.338 127.157 166.322 127.013C166.256 126.607 166.086 126.226 165.83 125.905C164.708 124.399 162.1 123.107 161.909 123.014C161.904 123.012 161.898 123.012 161.893 123.014L161.84 122.976L146.321 110.918H146.304C146.304 110.918 148.641 85.982 169.941 92.1181C169.941 92.1181 170.042 92.1874 170.225 92.3402C171.056 92.9801 173.671 95.1003 177.515 99.0613C177.615 99.1688 177.723 99.2762 177.83 99.3908C178.238 99.8063 178.639 100.238 179.038 100.661C181.736 103.545 184.928 107.22 188.45 111.802L188.474 111.826C192.509 117.078 195.417 121.892 197.308 126.151V126.166C199.354 130.795 200.216 134.761 200.047 137.924C200.052 137.981 200.054 138.037 200.052 138.094ZM135.808 95.234C135.178 87.9685 138.714 85.3373 138.912 85.1917C133.884 94.2885 143.21 108.232 143.537 108.772C143.269 108.547 136.438 102.497 135.808 95.234Z" fill="#353642"/>
<path d="M122.452 93.8086C122.191 94.001 121.918 94.1779 121.636 94.3386L119.998 91.4735C123.775 89.5419 124.835 86.1372 123.173 84.2677C122.709 83.7562 122.11 83.3857 121.445 83.198C119.773 82.6919 118.615 83.4368 117.83 84.4372C117.189 85.3068 116.719 86.2905 116.445 87.3358L115.647 78.1387L115.585 77.4224C115.585 77.4224 113.847 76.5605 109.139 77.3293C104.43 78.0981 103.564 80.6982 101.541 79.545C99.5192 78.3918 98.3731 78.4849 98.3731 78.4849C97.7977 80.5979 96.2577 80.5979 96.2577 80.5979C95.8929 80.5537 95.5345 80.4666 95.1904 80.3377C93.0058 78.3297 92.4136 74.8461 92.4136 74.8461C94.7057 74.562 94.8824 72.3559 94.6198 70.5484C95.89 71.3029 97.6807 71.3555 100.195 69.7414C107.408 65.1286 114.805 67.626 117.405 68.0104C118.565 68.1799 119.835 67.7716 120.888 67.2941C121.024 67.5379 121.214 67.7475 121.442 67.9077C123.197 69.1304 124.645 70.7437 125.671 72.6209C132.44 85.2729 125.019 91.9916 122.452 93.8086Z" fill="#5F62E2"/>
<path d="M95.4315 149.996H98.1533C99.3175 149.995 100.434 149.531 101.257 148.708C102.08 147.885 102.543 146.769 102.544 145.605V142.558C102.544 142.281 102.489 142.006 102.383 141.749C102.277 141.492 102.121 141.259 101.924 141.063C101.728 140.867 101.495 140.711 101.238 140.605C100.981 140.499 100.706 140.445 100.429 140.445H84.15C84.1507 141.094 84.0232 141.736 83.7754 142.335C83.5275 142.934 83.1637 143.479 82.705 143.937C82.2463 144.396 81.7017 144.759 81.1025 145.007C80.5032 145.254 79.8609 145.381 79.2124 145.38H20.3888C20.3895 146.604 20.8759 147.778 21.7414 148.643C22.6066 149.509 23.7802 149.995 25.0041 149.996H104.75C104.854 149.996 104.958 149.976 105.054 149.936C105.15 149.896 105.238 149.838 105.312 149.764C105.385 149.691 105.444 149.603 105.483 149.507C105.523 149.411 105.543 149.307 105.543 149.203V144.258C105.543 143.298 105.925 142.376 106.604 141.697C107.283 141.018 108.204 140.636 109.165 140.636C110.126 140.636 111.047 141.018 111.726 141.697C112.405 142.376 112.787 143.298 112.787 144.258V149.203C112.787 149.307 112.807 149.41 112.846 149.506C112.886 149.602 112.944 149.69 113.018 149.763C113.091 149.837 113.178 149.895 113.274 149.935C113.37 149.975 113.473 149.996 113.577 149.996H210.39C210.39 149.996 207.434 107.833 180.268 87.3257C153.978 67.4798 129.364 77.0446 127.803 77.6845L127.726 77.7131" stroke="black" stroke-miterlimit="10"/>
<path d="M100.581 88.004C100.58 88.2691 100.501 88.5281 100.353 88.748C100.205 88.9679 99.9954 89.1393 99.7502 89.2401C99.505 89.3411 99.2357 89.3671 98.9757 89.3148C98.7157 89.2628 98.4772 89.1348 98.29 88.9474C98.1025 88.7597 97.975 88.5207 97.9235 88.2607C97.8717 88.0007 97.8982 87.7314 97.9996 87.4864C98.1009 87.2414 98.2725 87.032 98.4927 86.8845C98.7131 86.7369 98.9721 86.6579 99.2371 86.6574C99.341 86.6579 99.4444 86.6708 99.5451 86.6956C99.4062 86.7396 99.2849 86.8267 99.1989 86.9444C99.113 87.0621 99.0669 87.2042 99.0676 87.3498C99.0669 87.4413 99.0843 87.532 99.1189 87.6168C99.1533 87.7013 99.2042 87.7784 99.2687 87.8433C99.3329 87.9083 99.4095 87.9601 99.4938 87.9954C99.5781 88.0308 99.6686 88.0492 99.76 88.0494C99.9272 88.046 100.088 87.9844 100.214 87.8749C100.341 87.7655 100.425 87.6151 100.452 87.4501C100.535 87.6234 100.579 87.8123 100.581 88.004Z" fill="black"/>
<path d="M109.895 88.3784C109.896 88.6449 109.817 88.9056 109.669 89.1274C109.522 89.349 109.312 89.5221 109.066 89.6243C108.82 89.7267 108.549 89.7537 108.288 89.7019C108.026 89.6503 107.786 89.5221 107.597 89.334C107.409 89.1458 107.28 88.9059 107.228 88.6444C107.176 88.3832 107.203 88.1124 107.304 87.866C107.406 87.6199 107.579 87.4095 107.8 87.2615C108.022 87.1132 108.282 87.0342 108.549 87.0342C108.613 87.0337 108.677 87.0411 108.74 87.0557C108.621 87.1106 108.52 87.1985 108.449 87.309C108.378 87.4193 108.341 87.5478 108.341 87.6789C108.333 87.8627 108.398 88.042 108.522 88.1776C108.646 88.3132 108.819 88.3942 109.002 88.4023C109.186 88.4107 109.365 88.3455 109.501 88.2216C109.637 88.0974 109.718 87.9248 109.726 87.7409C109.836 87.9355 109.894 88.1549 109.895 88.3784Z" fill="black"/>
<path d="M120.638 65.403C120.482 66.4488 120.676 67.3657 121.445 67.91C123.2 69.1327 124.647 70.746 125.673 72.6232C133.748 87.7105 121.636 94.3505 121.636 94.3505L119.998 91.4853C124.713 89.0786 125.196 84.3655 121.445 83.2099C117.694 82.0543 116.445 87.3476 116.445 87.3476L115.585 77.4271C115.585 77.4271 113.847 76.5651 109.139 77.334C104.43 78.1028 103.564 80.7029 101.541 79.5497C99.5192 78.3964 98.3731 78.4896 98.3731 78.4896C97.7977 80.6026 96.2577 80.6026 96.2577 80.6026C91.7451 80.0272 90.685 73.7836 90.685 73.7836C92.9747 73.4971 93.1514 71.2909 92.8911 69.4859C94.159 70.2404 95.9521 70.2953 98.4662 68.6789C105.679 64.066 113.076 66.5658 115.674 66.9502C117.469 67.2105 119.53 66.1122 120.638 65.403Z" stroke="black" stroke-linecap="round" stroke-linejoin="round"/>
<path d="M124.801 140.221L126.585 139.505L127.922 143.113L127.712 149.659L125.904 149.986L119.045 149.69C119.045 149.69 119.522 145.698 120.981 143.8C122.44 141.902 124.801 140.221 124.801 140.221Z" fill="#5F62E2"/>
<path d="M93.5688 82.8088C93.5688 82.8088 95.3953 79.5306 99.2394 79.872" stroke="black" stroke-miterlimit="10"/>
<path d="M106.768 79.8713C106.768 79.8713 111.161 78.8853 112.699 81.3278" stroke="black" stroke-miterlimit="10"/>
<path d="M113.575 94.7132C113.575 94.7132 110.949 93.1923 109.027 95.7494" stroke="black" stroke-miterlimit="10"/>
<path d="M96.9784 80.3973C96.9784 80.3973 95.1089 102.39 109.05 101.984C111.438 101.914 113.811 100.346 116.079 97.8221" stroke="black" stroke-miterlimit="10"/>
<path d="M121.635 99.8224L116.079 97.8215C116.079 97.8215 117.457 102.224 124.281 102.561C131.105 102.898 133.394 87.2372 128.38 80.9363" stroke="black" stroke-linejoin="round"/>
<path d="M143.358 143.941C143.358 143.941 138.265 148.074 141.725 149.996" stroke="black" stroke-miterlimit="10"/>
<path d="M139.418 140.094C139.418 140.094 130.584 145.094 138.17 149.996" stroke="black" stroke-miterlimit="10"/>
<path d="M136.439 136.251C136.439 136.251 124.713 141.742 133.748 149.996" stroke="black" stroke-miterlimit="10"/>
<path d="M185.748 149.996C185.748 149.996 199.973 149.996 200.164 136.25C200.355 122.505 172.58 87.9895 154.606 83.188C136.632 78.3865 135.861 91.5446 135.861 92.0842C135.861 92.6238 134.806 98.292 139.418 104.34C142.981 109.015 158.715 120.685 165.696 125.757C165.953 125.943 166.147 126.203 166.252 126.503C166.356 126.802 166.368 127.126 166.284 127.432C166.201 127.738 166.025 128.011 165.783 128.215C165.54 128.419 165.241 128.544 164.925 128.574L134.049 131.54H134.03C133.738 131.592 122.841 133.602 119.522 137.017C119.522 137.017 117.662 138.394 118.625 140.51C119.587 142.625 122.543 141.928 122.624 141.849" stroke="black" stroke-miterlimit="10"/>
<path opacity="0.26" d="M108.551 90.8761C110.675 90.8761 112.396 89.1551 112.396 87.032C112.396 84.9089 110.675 83.188 108.551 83.188C106.428 83.188 104.707 84.9089 104.707 87.032C104.707 89.1551 106.428 90.8761 108.551 90.8761Z" fill="white"/>
<path opacity="0.26" d="M98.7957 90.4965C100.919 90.4965 102.64 88.7755 102.64 86.6524C102.64 84.5294 100.919 82.8084 98.7957 82.8084C96.6726 82.8084 94.9516 84.5294 94.9516 86.6524C94.9516 88.7755 96.6726 90.4965 98.7957 90.4965Z" fill="white"/>
<path d="M132.024 139.615C130.673 139.238 128.464 138.898 126.189 139.629C125.076 139.987 124.05 140.572 123.173 141.346C122.982 141.513 122.799 141.682 122.622 141.852C122.241 142.225 121.882 142.62 121.545 143.034C121.501 143.089 121.438 143.125 121.368 143.137C120.521 143.253 114.941 144.137 114.97 146.957C114.996 149.49 117.77 149.905 118.725 149.972C118.765 149.976 118.804 149.971 118.842 149.959C118.879 149.946 118.914 149.926 118.943 149.9C118.973 149.873 118.996 149.841 119.013 149.805C119.029 149.769 119.038 149.73 119.038 149.691C119.038 148.788 119.243 145.959 121.476 143.113" stroke="black" stroke-miterlimit="10"/>
<path d="M81.7504 119.714C82.4046 124.988 78.305 127.373 73.8235 127.726" stroke="black" stroke-miterlimit="10"/>
<path d="M67.3101 126.626C65.6013 125.703 64.2172 124.277 63.345 122.542C62.473 120.806 62.1552 118.845 62.4346 116.923C63.1509 111.849 67.4486 107.957 71.6555 105.488C80.4897 100.305 100.398 104.056 103.743 104.82C106.307 105.407 108.451 103.402 109.32 102.432C109.357 102.391 109.405 102.361 109.458 102.347C109.511 102.332 109.568 102.333 109.62 102.349C109.673 102.366 109.72 102.397 109.756 102.439C109.791 102.481 109.814 102.533 109.822 102.587C111.658 113.332 132.981 127.915 137.914 131.179" stroke="black" stroke-miterlimit="10"/>
<path d="M87.1294 116.066L80.0692 120.447C79.6485 120.709 79.1774 120.88 78.6868 120.949C78.1959 121.018 77.6961 120.983 77.2196 120.846C76.743 120.71 76.3003 120.475 75.9202 120.158C75.5399 119.839 75.2307 119.445 75.0122 119C74.6185 118.201 74.5404 117.283 74.7935 116.429C75.0466 115.575 75.6125 114.848 76.3779 114.392L87.1222 107.991" stroke="black" stroke-miterlimit="10"/>
<path d="M108.551 90.8761C110.675 90.8761 112.396 89.1551 112.396 87.032C112.396 84.9089 110.675 83.188 108.551 83.188C106.428 83.188 104.707 84.9089 104.707 87.032C104.707 89.1551 106.428 90.8761 108.551 90.8761Z" stroke="black" stroke-miterlimit="10"/>
<path d="M98.7953 89.921C100.601 89.921 102.064 88.4576 102.064 86.6523C102.064 84.847 100.601 83.3837 98.7953 83.3837C96.99 83.3837 95.5267 84.847 95.5267 86.6523C95.5267 88.4576 96.99 89.921 98.7953 89.921Z" stroke="white" stroke-miterlimit="10"/>
<path d="M98.7957 90.4965C100.919 90.4965 102.64 88.7755 102.64 86.6524C102.64 84.5294 100.919 82.8084 98.7957 82.8084C96.6726 82.8084 94.9516 84.5294 94.9516 86.6524C94.9516 88.7755 96.6726 90.4965 98.7957 90.4965Z" stroke="black" stroke-miterlimit="10"/>
<path d="M104.726 86.6528H102.64" stroke="black" stroke-miterlimit="10"/>
<path d="M104.726 92.0847H103.351C103.265 92.0847 103.179 92.0658 103.101 92.029C103.022 91.9923 102.953 91.9385 102.898 91.8719C102.843 91.8053 102.803 91.7275 102.781 91.6437C102.76 91.5599 102.757 91.4725 102.773 91.3875L103.683 86.6528" stroke="black" stroke-miterlimit="10"/>
<path d="M77.1325 105.204C77.1325 105.204 72.2307 106.262 70.5021 113.664C69.4515 118.157 68.0094 123.89 67.0401 127.7C66.9157 128.189 66.9047 128.7 67.0076 129.194C67.1107 129.687 67.3254 130.151 67.6348 130.549C67.9445 130.948 68.3408 131.27 68.7938 131.492C69.2469 131.713 69.7445 131.829 70.249 131.829C71.0021 131.829 71.7329 131.572 72.3205 131.101C72.9083 130.63 73.3178 129.973 73.4818 129.238L75.5328 120.036" stroke="black" stroke-miterlimit="10"/>
<path d="M81.6143 122.506C81.6143 122.506 86.7596 119.43 96.895 122.506C107.03 125.581 118.682 127.668 122.526 119.511" stroke="black" stroke-miterlimit="10"/>
<path d="M126.191 139.629C126.191 139.629 129.773 143.717 127.595 149.996" stroke="black" stroke-miterlimit="10"/>
<path d="M7.84419 88.7989H64.4306C66.2533 88.7965 68.0237 89.4075 69.4568 90.5335C70.8898 91.6597 71.9024 93.2353 72.3312 95.0067L81.3397 132.316C81.5827 133.322 81.5942 134.371 81.3734 135.383C81.1525 136.395 80.7048 137.343 80.0642 138.157C79.4234 138.971 78.6066 139.628 77.6749 140.081C76.7433 140.533 75.7212 140.768 74.6854 140.768H18.2446C16.4255 140.769 14.6584 140.16 13.2271 139.037C11.7958 137.915 10.783 136.344 10.3512 134.577L1.19708 97.2749C0.949888 96.2671 0.935037 95.2163 1.15362 94.2021C1.37221 93.1878 1.81853 92.2363 2.45881 91.42C3.09912 90.6034 3.91666 89.9433 4.84962 89.4892C5.78261 89.035 6.80658 88.7991 7.84419 88.7989Z" fill="#5F62E2"/>
<path d="M9.90487 90.4039H62.9958C64.7061 90.4061 66.3662 90.982 67.7102 92.0397C69.0544 93.0972 70.0049 94.5751 70.4094 96.2369L78.8663 131.237C79.0946 132.181 79.1058 133.165 78.8985 134.114C78.6915 135.064 78.2718 135.953 77.6708 136.717C77.0698 137.48 76.3037 138.097 75.4296 138.521C74.5555 138.946 73.5966 139.166 72.6251 139.166H19.663C17.958 139.163 16.3032 138.589 14.9621 137.536C13.6207 136.483 12.6701 135.012 12.2614 133.357L3.66604 98.3547C3.43394 97.4089 3.41995 96.4231 3.62514 95.4712C3.8303 94.5195 4.24928 93.6267 4.85034 92.8608C5.4514 92.0948 6.2188 91.4755 7.09448 91.0498C7.97019 90.6243 8.93122 90.4032 9.90487 90.4039Z" fill="#5F62E2"/>
<path d="M7.84419 88.7989H64.4306C66.2533 88.7965 68.0237 89.4075 69.4568 90.5335C70.8898 91.6597 71.9024 93.2353 72.3312 95.0067L81.3397 132.316C81.5827 133.322 81.5942 134.371 81.3733 135.383C81.1525 136.395 80.7048 137.343 80.0642 138.157C79.4234 138.971 78.6066 139.628 77.6749 140.081C76.7433 140.533 75.7212 140.768 74.6854 140.768H18.2446C16.4255 140.769 14.6584 140.16 13.2271 139.037C11.7958 137.915 10.783 136.344 10.3512 134.577L1.19708 97.2749C0.949888 96.2671 0.935037 95.2163 1.15362 94.2021C1.37221 93.1878 1.81853 92.2363 2.45881 91.42C3.09912 90.6034 3.91666 89.9433 4.84962 89.4892C5.78261 89.035 6.80658 88.7991 7.84419 88.7989Z" stroke="black" stroke-miterlimit="10"/>
<path d="M34.3464 113.649L30.9727 97.9221C30.9028 97.5895 30.7204 97.291 30.4565 97.0769C30.1927 96.8625 29.8635 96.7455 29.5235 96.745H12.8293C12.6047 96.7457 12.3832 96.7973 12.1816 96.8961C11.9799 96.995 11.8034 97.1382 11.6654 97.3154C11.5273 97.4926 11.4314 97.6989 11.3849 97.9185C11.3383 98.1382 11.3424 98.3657 11.3967 98.5835L15.3005 114.495C15.3489 114.716 15.4523 114.922 15.6013 115.094C15.735 115.264 15.9052 115.401 16.0996 115.496C16.2939 115.591 16.5074 115.64 16.7235 115.641H16.7545L32.9115 115.45C33.1297 115.446 33.3444 115.395 33.5404 115.299C33.7364 115.204 33.909 115.066 34.0456 114.896C34.1848 114.723 34.2839 114.522 34.3359 114.306C34.388 114.091 34.3916 113.866 34.3464 113.649ZM12.5117 98.3017C12.4996 98.2547 12.4985 98.2055 12.5084 98.1578C12.5183 98.1102 12.5391 98.0656 12.569 98.0272C12.5997 97.9873 12.6391 97.9548 12.6842 97.9326C12.7293 97.9101 12.7789 97.8985 12.8293 97.8982H29.5235C29.5987 97.898 29.6717 97.9235 29.73 97.971C29.7885 98.0186 29.8284 98.0847 29.8434 98.1585L32.4125 110.137C23.8338 101.854 22.862 111.357 22.862 111.357C18.0199 108.836 16.6208 111.596 16.2149 113.413L12.5117 98.3017Z" fill="#D7E8F0"/>
<path d="M17.3324 104.011C18.2636 103.722 18.7053 102.488 18.3233 101.253C17.9413 100.019 16.874 99.2547 15.9357 99.5436C14.9973 99.8325 14.5628 101.067 14.9472 102.299C15.3316 103.531 16.4036 104.3 17.3324 104.011Z" fill="#D7E8F0"/>
<path d="M21.4205 103.729H26.8977C27.5782 103.729 28.261 103.729 28.9415 103.729H29.0394C29.2309 103.734 29.4214 103.698 29.5981 103.624C29.7201 103.563 29.8239 103.471 29.8987 103.358C29.9736 103.244 30.0169 103.112 30.0243 102.976C30.0314 102.84 30.0025 102.705 29.9402 102.584C29.8779 102.462 29.7846 102.36 29.6697 102.287C29.541 102.228 29.4238 102.148 29.3235 102.048C29.2571 101.943 29.2115 101.826 29.1898 101.704C29.0633 101.359 28.819 101.069 28.4998 100.885C28.2675 100.729 28.0063 100.621 27.7312 100.568C27.4564 100.515 27.1737 100.518 26.9001 100.577C26.63 100.645 26.3829 100.784 26.1838 100.978C26.0143 101.145 25.9808 101.37 25.8495 101.556C25.7636 101.678 25.7087 101.64 25.5917 101.573C25.4747 101.506 25.4102 101.456 25.3147 101.408C25.1263 101.307 24.9308 101.22 24.7297 101.148C24.3203 100.996 23.8836 100.932 23.4476 100.959C22.6812 101.019 21.9171 101.475 21.6497 102.196C21.4088 102.199 21.1767 102.288 20.9957 102.447C20.8145 102.606 20.6959 102.824 20.6612 103.063C20.6455 103.155 20.6515 103.249 20.6787 103.338C20.7061 103.428 20.7541 103.509 20.8188 103.576C20.9929 103.701 21.2078 103.756 21.4205 103.729Z" fill="#D7E8F0"/>
<path d="M60.6871 103.389L60.2478 101.582C59.9532 100.367 59.2586 99.2862 58.2754 98.5135C57.2924 97.7409 56.0783 97.3214 54.8279 97.3223H48.7944C48.1061 97.3216 47.4268 97.4797 46.8093 97.7843C46.1921 98.089 45.6535 98.5319 45.2352 99.0789C44.8171 99.6257 44.5308 100.262 44.3986 100.937C44.2663 101.613 44.2918 102.31 44.4728 102.974L44.9718 104.81C45.2906 105.991 45.9899 107.034 46.9614 107.778C47.9332 108.522 49.1227 108.924 50.3464 108.924H56.344C57.0214 108.923 57.6899 108.769 58.299 108.472C58.9081 108.175 59.442 107.745 59.86 107.212C60.2783 106.679 60.5701 106.058 60.7134 105.396C60.8566 104.733 60.8476 104.048 60.6871 103.389ZM54.0519 103.836L51.9914 105.104C51.9121 105.154 51.8221 105.185 51.7285 105.195C51.6349 105.205 51.5404 105.193 51.4523 105.16C51.3642 105.127 51.2849 105.074 51.2205 105.006C51.1562 104.937 51.1087 104.855 51.0817 104.765L50.3058 102.229C50.2733 102.116 50.2733 101.997 50.306 101.884C50.3387 101.772 50.4027 101.671 50.4903 101.594C50.5782 101.516 50.6863 101.465 50.8019 101.446C50.9177 101.428 51.0361 101.443 51.1438 101.489L54.0018 102.752C54.104 102.798 54.1916 102.871 54.2551 102.963C54.3184 103.056 54.3552 103.164 54.3614 103.276C54.3676 103.388 54.3427 103.499 54.29 103.598C54.237 103.697 54.1579 103.779 54.0615 103.836H54.0519Z" fill="white"/>
<path d="M59.3401 119.625H48.7845C48.3012 119.624 47.8287 119.483 47.4243 119.218C47.0198 118.954 46.701 118.578 46.5067 118.135C46.4465 117.999 46.4141 117.852 46.4112 117.703C46.4138 117.415 46.5296 117.14 46.734 116.937C46.9384 116.734 47.2144 116.62 47.5023 116.619H58.7241C58.1965 117.512 58.4639 118.746 59.3401 119.625Z" fill="#D7E8F0"/>
<path d="M66.1784 118.541C66.1776 118.829 66.0633 119.104 65.8601 119.307C65.6571 119.51 65.3816 119.625 65.0944 119.625H59.3402C58.464 118.746 58.1966 117.512 58.7242 116.619H63.7907C64.2733 116.619 64.7451 116.76 65.1495 117.023C65.5538 117.286 65.873 117.661 66.0685 118.102C66.1347 118.239 66.1719 118.389 66.1784 118.541Z" fill="#5F62E2"/>
<path d="M63.5257 119.625C63.4959 119.683 63.4615 119.738 63.423 119.79C62.6686 120.819 61.0354 120.915 59.7676 119.988C59.6162 119.878 59.4732 119.757 59.3402 119.625C58.464 118.747 58.1966 117.512 58.7242 116.619C58.7538 116.563 58.7882 116.508 58.8269 116.457C59.5742 115.421 61.2145 115.33 62.4752 116.249C62.628 116.362 62.7724 116.486 62.9073 116.619C63.7907 117.498 64.0462 118.732 63.5257 119.625Z" fill="white"/>
<path d="M68.8216 125.179C68.819 125.467 68.7032 125.743 68.4988 125.946C68.2944 126.149 68.0184 126.263 67.7305 126.263H25.8947C26.4296 125.366 26.1621 124.136 25.2835 123.26H66.4483C66.9311 123.26 67.4036 123.4 67.8076 123.664C68.2118 123.929 68.5301 124.305 68.7237 124.747C68.7856 124.883 68.819 125.03 68.8216 125.179Z" fill="#5F62E2"/>
<path d="M25.8946 126.251H20.6824C20.1999 126.251 19.7279 126.111 19.3234 125.848C18.9192 125.585 18.6 125.21 18.4046 124.768C18.3433 124.63 18.3108 124.481 18.3091 124.329C18.3089 124.187 18.3366 124.046 18.391 123.914C18.4455 123.783 18.5252 123.663 18.626 123.563C18.7267 123.462 18.8464 123.383 18.9782 123.328C19.1097 123.275 19.2508 123.247 19.3931 123.248H25.2834C26.162 124.124 26.4294 125.353 25.8946 126.251Z" fill="#D7E8F0"/>
<path d="M25.8947 126.251C25.8701 126.31 25.8381 126.365 25.7992 126.416C25.0519 127.452 23.4116 127.54 22.1485 126.621C21.9964 126.509 21.8527 126.385 21.7188 126.251C20.8473 125.373 20.5799 124.145 21.1004 123.248C21.1293 123.19 21.1636 123.134 21.203 123.083C21.9575 122.054 23.5907 121.958 24.8585 122.882C25.0099 122.992 25.1519 123.115 25.2835 123.248C26.1621 124.124 26.4295 125.353 25.8947 126.251Z" fill="white"/>
<path d="M29.5856 132.82H22.9623C22.48 132.819 22.008 132.679 21.6038 132.416C21.1995 132.153 20.8803 131.778 20.6845 131.337C20.6189 131.204 20.5814 131.058 20.5747 130.91C20.5754 130.621 20.6903 130.345 20.8944 130.141C21.0983 129.936 21.3748 129.822 21.6635 129.821H28.9624C28.4538 130.723 28.7141 131.951 29.5856 132.82Z" fill="#5F62E2"/>
<path d="M71.0922 131.753C71.0884 132.039 70.9712 132.312 70.7661 132.512C70.5612 132.712 70.2852 132.823 69.9987 132.82H29.586C28.7145 131.941 28.4471 130.714 28.9676 129.816H68.7189C69.2017 129.816 69.6742 129.957 70.0782 130.221C70.4824 130.485 70.8007 130.861 70.9943 131.304C71.0576 131.445 71.0908 131.598 71.0922 131.753Z" fill="#D7E8F0"/>
<path d="M33.7691 132.82C33.7402 132.878 33.7058 132.933 33.6664 132.985C32.9191 134.021 31.2788 134.109 30.0181 133.19C29.8653 133.077 29.7209 132.954 29.586 132.82C28.7145 131.941 28.4471 130.714 28.9676 129.816C28.9974 129.759 29.0318 129.704 29.0702 129.651C29.8247 128.622 31.4578 128.532 32.7257 129.451C32.8775 129.56 33.0196 129.683 33.1507 129.816C34.0293 130.702 34.2967 131.936 33.7691 132.82Z" fill="white"/>
<g opacity="0.21">
<path opacity="0.21" d="M34.9246 114.224L31.5581 98.497C31.4884 98.1645 31.3062 97.866 31.0421 97.6521C30.7783 97.4381 30.4486 97.3216 30.1088 97.3223H13.4122C13.1861 97.3223 12.9631 97.3742 12.7603 97.474C12.5574 97.5735 12.3802 97.7187 12.2423 97.8978C12.1055 98.0732 12.0108 98.2776 11.9652 98.4951C11.9197 98.7129 11.9246 98.9383 11.9797 99.1536L15.8834 115.067C15.9311 115.289 16.0336 115.495 16.1818 115.666C16.316 115.836 16.487 115.973 16.6816 116.068C16.8764 116.162 17.0901 116.211 17.3064 116.211H17.3446L33.4992 116.017C33.717 116.015 33.9314 115.964 34.1269 115.869C34.3227 115.773 34.4948 115.636 34.6309 115.466C34.7682 115.293 34.8656 115.092 34.9165 114.878C34.9671 114.663 34.97 114.44 34.9246 114.224ZM13.0875 98.8791C13.0753 98.8318 13.0744 98.7824 13.0849 98.7346C13.0951 98.6871 13.1166 98.6425 13.1472 98.6045C13.177 98.5644 13.216 98.5317 13.2608 98.5095C13.3055 98.487 13.3549 98.4753 13.4051 98.4756H30.0992C30.1745 98.4751 30.2475 98.5004 30.3063 98.5472C30.365 98.5942 30.4056 98.6599 30.4216 98.7334L32.9906 110.712C24.4096 102.427 23.4402 111.932 23.4402 111.932C18.6005 109.411 17.199 112.171 16.7955 113.988L13.0875 98.8791Z" fill="#D7E8F0"/>
<path opacity="0.21" d="M17.9103 104.586C18.8391 104.297 19.2832 103.063 18.8988 101.831C18.5144 100.599 17.4519 99.8299 16.5112 100.119C15.5705 100.408 15.1383 101.642 15.5203 102.876C15.9023 104.111 16.9935 104.884 17.9103 104.586Z" fill="#D7E8F0"/>
<path opacity="0.21" d="M22.0075 104.306H27.4823C28.1651 104.306 28.8456 104.306 29.5284 104.306H29.6239C29.8157 104.311 30.006 104.275 30.1827 104.201C30.3054 104.141 30.4097 104.049 30.4849 103.935C30.5604 103.822 30.6041 103.69 30.6112 103.553C30.6186 103.417 30.5893 103.281 30.5265 103.16C30.4639 103.039 30.3698 102.936 30.2543 102.864C30.1268 102.803 30.01 102.723 29.9081 102.625C29.8436 102.518 29.7985 102.401 29.7744 102.279C29.6478 101.934 29.4045 101.646 29.0867 101.462C28.8544 101.306 28.5925 101.197 28.3172 101.144C28.0419 101.091 27.7587 101.095 27.4846 101.154C27.2191 101.223 26.9768 101.361 26.7827 101.555C26.6108 101.722 26.5797 101.944 26.4484 102.133C26.3625 102.255 26.3076 102.217 26.1906 102.147C26.0736 102.078 26.0091 102.033 25.9136 101.983C25.7252 101.883 25.5297 101.797 25.3286 101.725C24.9192 101.573 24.4825 101.508 24.0465 101.534C23.2801 101.593 22.516 102.052 22.2462 102.771C22.0053 102.775 21.7737 102.864 21.593 103.023C21.4122 103.183 21.2943 103.401 21.2601 103.64C21.2446 103.732 21.2508 103.826 21.2776 103.915C21.3045 104.004 21.3516 104.085 21.4153 104.153C21.5877 104.274 21.7981 104.328 22.0075 104.306Z" fill="#D7E8F0"/>
<path opacity="0.21" d="M61.2743 103.965L60.835 102.16C60.5399 100.944 59.8449 99.8632 58.8616 99.0901C57.8782 98.3173 56.6636 97.8973 55.4127 97.8978H49.3697C48.682 97.8973 48.0037 98.0553 47.387 98.3598C46.7703 98.6639 46.2321 99.1061 45.8143 99.6522C45.3962 100.198 45.1097 100.833 44.9767 101.508C44.844 102.182 44.8683 102.879 45.0481 103.542L45.5471 105.381C45.8663 106.562 46.5661 107.606 47.5381 108.349C48.5101 109.093 49.7001 109.495 50.924 109.494H56.9217C57.5993 109.495 58.2681 109.341 58.8776 109.045C59.4872 108.749 60.0218 108.319 60.4408 107.787C60.8601 107.254 61.1528 106.634 61.297 105.971C61.4415 105.31 61.4338 104.623 61.2743 103.965ZM54.6368 104.406L52.5691 105.681C52.4898 105.732 52.4 105.763 52.3067 105.773C52.2133 105.783 52.119 105.771 52.0309 105.738C51.9431 105.705 51.8638 105.652 51.7998 105.584C51.7358 105.515 51.6885 105.432 51.6618 105.342L50.8978 102.804C50.8658 102.692 50.8662 102.573 50.8992 102.461C50.9321 102.349 50.9961 102.248 51.084 102.171C51.1716 102.094 51.2793 102.043 51.3949 102.025C51.5102 102.006 51.6284 102.021 51.7358 102.067L54.5723 103.327C54.673 103.374 54.759 103.447 54.8216 103.538C54.8841 103.63 54.9206 103.737 54.9271 103.848C54.9338 103.958 54.9104 104.069 54.859 104.167C54.8079 104.266 54.7311 104.348 54.6368 104.406Z" fill="#D7E8F0"/>
<path opacity="0.21" d="M59.9179 120.2H49.3622C48.8794 120.199 48.4072 120.058 48.0027 119.794C47.5985 119.53 47.2795 119.155 47.0844 118.713C47.0099 118.548 46.9784 118.367 46.9927 118.187C47.0068 118.006 47.0665 117.832 47.1659 117.681C47.2649 117.53 47.4008 117.406 47.5608 117.322C47.7205 117.237 47.8991 117.194 48.0801 117.197H59.3019C58.7766 118.087 59.0392 119.324 59.9179 120.2Z" fill="#D7E8F0"/>
<path opacity="0.21" d="M66.742 119.116C66.742 119.403 66.6281 119.679 66.4254 119.882C66.2227 120.085 65.9474 120.2 65.6604 120.2H59.9182C59.0396 119.324 58.7721 118.087 59.2998 117.196H64.3687C64.8512 117.196 65.3235 117.336 65.728 117.599C66.1324 117.863 66.4514 118.238 66.6465 118.679C66.7076 118.817 66.7401 118.966 66.742 119.116Z" fill="#5F62E2"/>
<path opacity="0.21" d="M64.1013 120.2C64.0731 120.259 64.0387 120.314 63.9986 120.365C63.2441 121.394 61.611 121.49 60.3432 120.566C60.1923 120.455 60.0502 120.333 59.9182 120.2C59.0396 119.324 58.7721 118.087 59.2998 117.197C59.3297 117.139 59.3648 117.084 59.4049 117.032C60.1522 115.996 61.7925 115.908 63.0531 116.827C63.2062 116.939 63.3506 117.063 63.4853 117.197C64.3568 118.075 64.6242 119.303 64.1013 120.2Z" fill="white"/>
<path opacity="0.21" d="M69.3969 125.744C69.3943 126.032 69.2783 126.307 69.0739 126.51C68.8698 126.712 68.5935 126.826 68.3058 126.826H26.4724C27.0073 125.928 26.7398 124.701 25.8612 123.822H67.0237C67.5071 123.822 67.9801 123.963 68.3846 124.228C68.7893 124.492 69.1078 124.869 69.3014 125.312C69.3628 125.448 69.3953 125.595 69.3969 125.744Z" fill="#5F62E2"/>
<path opacity="0.21" d="M26.4722 126.826H21.2576C20.7756 126.825 20.3038 126.686 19.8996 126.423C19.4953 126.16 19.1759 125.786 18.9798 125.345C18.9199 125.207 18.8874 125.057 18.8843 124.906C18.8843 124.619 18.9985 124.343 19.2019 124.14C19.4051 123.936 19.6808 123.822 19.9683 123.822H25.8609C26.7396 124.701 27.007 125.928 26.4722 126.826Z" fill="#D7E8F0"/>
<path opacity="0.21" d="M26.4726 126.826C26.4481 126.886 26.4151 126.941 26.3748 126.991C25.6274 128.027 23.9871 128.118 22.7265 127.199C22.5734 127.085 22.429 126.961 22.2943 126.826C21.4228 125.95 21.1554 124.72 21.6783 123.823C21.7065 123.764 21.7409 123.709 21.781 123.658C22.5355 122.629 24.1686 122.533 25.4364 123.46C25.5866 123.57 25.7287 123.692 25.8614 123.823C26.7401 124.701 27.0075 125.929 26.4726 126.826Z" fill="white"/>
<path opacity="0.21" d="M30.161 133.404H23.5283C23.0462 133.403 22.5749 133.263 22.1707 133C21.7667 132.737 21.447 132.363 21.2505 131.923C21.1905 131.787 21.1581 131.64 21.155 131.491C21.1562 131.202 21.2715 130.925 21.4759 130.721C21.6802 130.517 21.9572 130.401 22.2461 130.4H29.545C29.0222 131.298 29.2896 132.527 30.161 133.404Z" fill="#5F62E2"/>
<path opacity="0.21" d="M71.6702 132.327C71.6699 132.469 71.6415 132.609 71.5868 132.74C71.5322 132.871 71.4522 132.99 71.3516 133.09C71.2509 133.19 71.1315 133.27 71.0002 133.323C70.8689 133.377 70.728 133.404 70.5862 133.404H30.1615C29.29 132.527 29.0226 131.298 29.5455 130.4H69.2945C69.778 130.4 70.251 130.541 70.6554 130.806C71.0599 131.07 71.3786 131.447 71.5723 131.89C71.6343 132.028 71.6675 132.176 71.6702 132.327Z" fill="#D7E8F0"/>
<path opacity="0.21" d="M34.347 133.404C34.3172 133.462 34.2821 133.517 34.2419 133.569C33.4946 134.605 31.8543 134.696 30.5937 133.777C30.4406 133.663 30.2962 133.539 30.1615 133.404C29.29 132.528 29.0226 131.298 29.5455 130.401C29.5737 130.342 29.6081 130.287 29.6482 130.236C30.4027 129.207 32.0358 129.118 33.3036 130.038C33.4538 130.148 33.5959 130.27 33.7286 130.401C34.6072 131.279 34.8747 132.514 34.347 133.404Z" fill="white"/>
</g>
</svg>
