<svg width="140" height="150" viewBox="0 0 140 150" fill="none" xmlns="http://www.w3.org/2000/svg">
<path d="M40.2282 56.6783H28.1194C27.7823 56.6783 27.4485 56.6118 27.1373 56.4828C26.8259 56.3537 26.5429 56.1645 26.3049 55.926C26.0666 55.6875 25.8779 55.4044 25.7491 55.093C25.6204 54.7814 25.5544 54.4475 25.5549 54.1105V24.9973C25.5549 24.6606 25.6213 24.3271 25.7501 24.016C25.879 23.7051 26.0679 23.4225 26.3062 23.1845C26.5443 22.9464 26.827 22.7576 27.1381 22.629C27.4492 22.5004 27.7826 22.4341 28.1194 22.4345H48.1104C48.4478 22.4333 48.7819 22.4989 49.094 22.627C49.4059 22.7553 49.6895 22.9439 49.9286 23.182C50.1675 23.42 50.3572 23.703 50.4866 24.0144C50.6161 24.326 50.683 24.6599 50.6832 24.9973V32.8497" stroke="#CCDDE2" stroke-miterlimit="10"/>
<path d="M47.5033 25.962H28.989C28.2804 25.962 27.7059 26.5365 27.7059 27.2451V30.7019C27.7059 31.4105 28.2804 31.985 28.989 31.985H47.5033C48.2118 31.985 48.7863 31.4105 48.7863 30.7019V27.2451C48.7863 26.5365 48.2118 25.962 47.5033 25.962Z" stroke="#CCDDE2" stroke-miterlimit="10"/>
<path d="M38.1159 28.4986C38.4597 28.4986 38.7384 28.2198 38.7384 27.8761C38.7384 27.5322 38.4597 27.2536 38.1159 27.2536C37.772 27.2536 37.4934 27.5322 37.4934 27.8761C37.4934 28.2198 37.772 28.4986 38.1159 28.4986Z" fill="#D7E8F0"/>
<path d="M36.3763 30.6953C36.3617 30.4581 36.3957 30.2203 36.4765 29.9967C36.5573 29.773 36.6829 29.5682 36.8458 29.395C37.0086 29.2219 37.2053 29.0838 37.4235 28.9894C37.6417 28.8951 37.8769 28.8464 38.1147 28.8464C38.3524 28.8464 38.5877 28.8951 38.8059 28.9894C39.0241 29.0838 39.2207 29.2219 39.3837 29.395C39.5464 29.5682 39.6721 29.773 39.7528 29.9967C39.8336 30.2203 39.8677 30.4581 39.853 30.6953H36.3763Z" fill="#D7E8F0"/>
<path d="M38.2437 38.4402C37.58 38.4402 36.9312 38.6371 36.3794 39.0058C35.8274 39.3746 35.3973 39.8986 35.1433 40.5118C34.8893 41.1251 34.8228 41.7999 34.9523 42.4508C35.0819 43.1018 35.4014 43.6996 35.8708 44.169C36.3401 44.6383 36.938 44.958 37.5889 45.0875C38.2399 45.217 38.9147 45.1504 39.5279 44.8965C40.1412 44.6425 40.6653 44.2124 41.034 43.6606C41.4027 43.1086 41.5996 42.4598 41.5996 41.7961C41.5997 41.3553 41.5131 40.9189 41.3446 40.5117C41.1759 40.1044 40.9287 39.7344 40.6171 39.4226C40.3054 39.1111 39.9354 38.8639 39.5283 38.6953C39.121 38.5266 38.6844 38.4401 38.2437 38.4402ZM38.2437 44.3407C38.1275 44.3215 38.022 44.2617 37.9459 44.172C37.8697 44.0822 37.8278 43.9683 37.8278 43.8506C37.8278 43.7329 37.8697 43.619 37.9459 43.5293C38.022 43.4395 38.1275 43.3798 38.2437 43.3606C38.3147 43.3488 38.3876 43.3528 38.4571 43.372C38.5265 43.3912 38.5909 43.4253 38.6458 43.472C38.7008 43.5185 38.745 43.5766 38.7753 43.642C38.8056 43.7074 38.8212 43.7786 38.8212 43.8506C38.8212 43.9226 38.8056 43.994 38.7753 44.0594C38.745 44.1248 38.7008 44.1827 38.6458 44.2294C38.5909 44.2759 38.5265 44.31 38.4571 44.3293C38.3876 44.3486 38.3147 44.3524 38.2437 44.3407ZM38.8645 40.5676C38.7846 41.3098 38.648 42.0449 38.4556 42.7662C38.4354 42.8048 38.4051 42.8369 38.3679 42.8594C38.3306 42.882 38.2881 42.8939 38.2445 42.8939C38.201 42.8939 38.1584 42.882 38.1212 42.8594C38.0839 42.8369 38.0536 42.8048 38.0334 42.7662C37.8803 42.2345 37.7629 41.6929 37.6825 41.1454C37.6146 40.7481 37.3828 40.1024 37.6047 39.715C37.8 39.369 38.353 39.3276 38.6725 39.5081C39.0649 39.7316 38.9109 40.2051 38.8645 40.5676Z" fill="#D7E8F0"/>
<path d="M29.813 34.674H46.2048" stroke="#CCDDE2" stroke-miterlimit="10"/>
<path d="M29.813 36.2881H46.2048" stroke="#CCDDE2" stroke-miterlimit="10"/>
<path d="M29.813 46.6767H46.2048" stroke="#CCDDE2" stroke-miterlimit="10"/>
<path d="M33.6208 48.2037H42.397" stroke="#CCDDE2" stroke-miterlimit="10"/>
<path d="M131.079 50.4568H105.953C103.861 50.4568 102.165 52.1527 102.165 54.2447V97.1588C102.165 99.2509 103.861 100.947 105.953 100.947H131.079C133.171 100.947 134.867 99.2509 134.867 97.1588V54.2447C134.867 52.1527 133.171 50.4568 131.079 50.4568Z" fill="#5F62E2"/>
<path d="M96.7336 50.4568H79.2375C77.1455 50.4568 75.4495 52.1527 75.4495 54.2447V97.1588C75.4495 99.2509 77.1455 100.947 79.2375 100.947H96.7336C98.8255 100.947 100.522 99.2509 100.522 97.1588V54.2447C100.522 52.1527 98.8255 50.4568 96.7336 50.4568Z" fill="#5F62E2"/>
<path d="M76.8981 126.621H134.688C135.686 126.621 136.644 126.224 137.35 125.518C138.056 124.812 138.453 123.855 138.454 122.857V51.1223C138.454 50.6277 138.357 50.1378 138.168 49.6807C137.978 49.2236 137.701 48.8083 137.351 48.4585C137.001 48.1087 136.586 47.8314 136.129 47.6422C135.672 47.4529 135.182 47.3556 134.688 47.3559H95.414L85.1495 47.4172H85.1197L79.9295 47.6191H79.9129L78.547 47.6721H78.4262L78.3252 48.485L78.1265 49.9966C78.1287 49.9994 78.1298 50.0028 78.1298 50.0065C78.1298 50.01 78.1287 50.0134 78.1265 50.0164L76.5107 52.4104L76.1796 52.8955L75.2674 58.733V58.7612C75.2475 58.7529 75.2276 58.7413 75.2028 58.728C75.1829 58.7165 75.1641 58.7032 75.1465 58.6883C74.8396 58.4572 74.6089 58.1395 74.4843 57.7761C74.1813 57.0079 74.1085 55.9897 74.1051 55.1818L73.9065 59.6171V59.6336L73.63 65.5589L73.5621 67.1499C73.6913 66.9198 73.8767 66.5887 74.0919 66.193L73.4048 70.5836L73.2625 73.7474L72.9082 81.7421L72.8949 82.0402V82.1544L72.8022 84.1013V84.146C72.8022 84.146 72.5373 89.8594 72.5373 89.8677L72.5125 90.3975L72.2062 92.7103L71.3122 99.1819V122.857C71.3124 123.531 71.4941 124.193 71.8385 124.773C72.1829 125.353 72.677 125.83 73.2691 126.153C74.3899 126.76 75.6299 126.679 76.8617 126.638C77.1928 126.628 77.5239 126.613 77.855 126.595" fill="#5F62E2"/>
<path d="M74.7043 125.387C74.6811 125.387 74.6563 125.365 74.6282 125.357C74.3134 125.244 74.0159 125.088 73.7441 124.893C73.2671 124.554 72.8785 124.106 72.6108 123.585C72.3433 123.065 72.2044 122.488 72.206 121.903V90.3083L71.312 90.7371L71.2558 90.7652L71.1349 90.4656L70.5372 88.9756L70.3717 88.5633L68.8601 84.7903C68.8601 84.7903 71.7309 73.1748 73.6298 65.5592C74.3252 62.7629 74.8914 60.5047 75.1298 59.5561C75.2026 59.2729 75.2457 59.1074 75.254 59.0792C75.2546 59.0726 75.2546 59.066 75.254 59.0594C75.2589 59.0029 75.2503 58.9463 75.2291 58.8938C75.2056 58.8327 75.1773 58.7735 75.1447 58.7167C75.1409 58.7049 75.1353 58.6937 75.1281 58.6836C74.9313 58.3486 74.7099 58.0288 74.4659 57.7266L74.1513 53.8311L74.2027 53.7913L74.4411 53.601L76.0702 52.3096L76.4493 51.3063L77.1926 49.3561L77.5237 48.4869H78.3118H78.5138H79.9392L85.2073 48.4703H85.6592L95.6539 48.4107H133.896C134.378 48.4107 134.854 48.5056 135.299 48.69C135.744 48.8745 136.148 49.1448 136.488 49.4855C136.829 49.8263 137.099 50.2307 137.282 50.6759C137.466 51.1209 137.56 51.5979 137.56 52.0795V121.903C137.56 122.385 137.466 122.862 137.282 123.307C137.099 123.752 136.829 124.156 136.488 124.497C136.148 124.838 135.744 125.108 135.299 125.293C134.854 125.477 134.378 125.572 133.896 125.572H76.9675" fill="#5F62E2"/>
<path d="M78.5303 47.4536L79.8845 47.4453H79.9127L85.1112 47.4172H85.1476L95.4121 47.3559H134.687C135.686 47.3562 136.644 47.7533 137.35 48.4595C138.056 49.1658 138.453 50.1235 138.454 51.1223V122.857C138.453 123.855 138.056 124.812 137.349 125.518C136.643 126.224 135.686 126.621 134.687 126.621H74.9758C74.0028 126.621 73.0695 126.235 72.3816 125.547C71.6936 124.859 71.307 123.926 71.307 122.953V115.12" stroke="black" stroke-miterlimit="10"/>
<path d="M131.08 104.655H79.2375C77.1455 104.655 75.4495 106.351 75.4495 108.443V118.974C75.4495 121.066 77.1455 122.762 79.2375 122.762H131.08C133.172 122.762 134.868 121.066 134.868 118.974V108.443C134.868 106.351 133.172 104.655 131.08 104.655Z" fill="white"/>
<path d="M113.94 108.688H80.4508C79.7422 108.688 79.1677 109.263 79.1677 109.971V117.706C79.1677 118.415 79.7422 118.989 80.4508 118.989H113.94C114.648 118.989 115.223 118.415 115.223 117.706V109.971C115.223 109.263 114.648 108.688 113.94 108.688Z" fill="#5F62E2"/>
<path d="M107.932 113.027C108.521 113.027 108.998 112.55 108.998 111.961C108.998 111.372 108.521 110.895 107.932 110.895C107.343 110.895 106.865 111.372 106.865 111.961C106.865 112.55 107.343 113.027 107.932 113.027Z" fill="white"/>
<path d="M104.955 116.782C104.955 115.992 105.269 115.234 105.828 114.675C106.387 114.116 107.145 113.802 107.935 113.802C108.725 113.802 109.483 114.116 110.042 114.675C110.601 115.234 110.915 115.992 110.915 116.782H104.955Z" fill="white"/>
<path d="M124.318 108.69C123.28 108.689 122.265 108.996 121.401 109.572C120.537 110.148 119.864 110.967 119.466 111.926C119.068 112.885 118.964 113.941 119.166 114.959C119.368 115.978 119.867 116.913 120.601 117.648C121.335 118.382 122.27 118.882 123.289 119.085C124.307 119.288 125.363 119.184 126.322 118.786C127.281 118.389 128.101 117.716 128.678 116.853C129.254 115.989 129.562 114.974 129.562 113.936C129.562 113.247 129.426 112.565 129.163 111.929C128.9 111.292 128.513 110.714 128.027 110.227C127.54 109.74 126.962 109.353 126.325 109.089C125.689 108.826 125.007 108.69 124.318 108.69ZM124.318 117.916C124.215 117.921 124.111 117.905 124.014 117.868C123.916 117.832 123.828 117.776 123.752 117.704C123.677 117.633 123.617 117.546 123.577 117.451C123.536 117.355 123.515 117.253 123.515 117.149C123.515 117.045 123.536 116.942 123.577 116.847C123.617 116.751 123.677 116.665 123.752 116.593C123.828 116.521 123.916 116.466 124.014 116.429C124.111 116.393 124.215 116.376 124.318 116.381C124.516 116.391 124.702 116.475 124.838 116.618C124.975 116.761 125.051 116.951 125.051 117.149C125.051 117.346 124.975 117.536 124.838 117.679C124.702 117.822 124.516 117.907 124.318 117.916ZM125.284 112.014C125.118 113.153 124.984 114.348 124.645 115.451C124.568 115.718 124.067 115.718 123.982 115.451C123.742 114.62 123.558 113.774 123.433 112.918C123.327 112.297 122.964 111.287 123.312 110.685C123.618 110.143 124.482 110.079 124.979 110.354C125.598 110.704 125.35 111.448 125.284 112.014Z" fill="#5F62E2"/>
<path d="M129.891 86.9553C129.637 89.1489 128.729 91.2154 127.285 92.8864C125.841 94.5574 123.928 95.7555 121.795 96.3255C119.661 96.8954 117.406 96.8106 115.321 96.0822C113.236 95.3537 111.419 94.0152 110.104 92.2406C108.79 90.466 108.04 88.3371 107.951 86.1305C107.862 83.9241 108.438 81.7418 109.606 79.8672C110.773 77.9925 112.477 76.5121 114.496 75.6183C116.516 74.7244 118.757 74.4584 120.929 74.8547C121.025 74.8731 121.116 74.911 121.196 74.9658C121.276 75.0206 121.345 75.0913 121.397 75.1734C121.449 75.2557 121.483 75.3478 121.498 75.4438C121.513 75.54 121.508 75.6382 121.484 75.7322L121.267 76.5782L119.324 84.1673C119.293 84.2884 119.294 84.4155 119.328 84.5357C119.361 84.6561 119.426 84.7655 119.515 84.8529C119.604 84.9402 119.715 85.0026 119.836 85.0337C119.957 85.0648 120.084 85.0635 120.204 85.0299L127.749 82.9207L128.78 82.6326C128.872 82.6068 128.968 82.5997 129.063 82.6118C129.157 82.6238 129.249 82.6548 129.331 82.7028C129.414 82.7508 129.486 82.8149 129.543 82.8914C129.6 82.9677 129.641 83.055 129.664 83.1475C129.961 84.394 130.038 85.6827 129.891 86.9553Z" fill="white"/>
<path d="M130.151 79.1343C130.186 79.2267 130.202 79.3257 130.197 79.4249C130.192 79.5239 130.167 79.6207 130.122 79.7093C130.077 79.7977 130.014 79.8759 129.937 79.9384C129.86 80.0012 129.771 80.0469 129.675 80.073L128.965 80.2717L122.821 81.9885C122.701 82.022 122.574 82.0233 122.453 81.9922C122.332 81.9611 122.221 81.8988 122.132 81.8114C122.043 81.724 121.978 81.6145 121.945 81.4943C121.911 81.374 121.91 81.247 121.941 81.126L123.528 74.9474L123.681 74.3547C123.705 74.2605 123.748 74.1721 123.807 74.0953C123.867 74.0184 123.942 73.9549 124.027 73.9082C124.112 73.8617 124.206 73.833 124.303 73.8244C124.4 73.8158 124.497 73.8272 124.59 73.858C125.84 74.2893 126.983 74.9835 127.942 75.8935C128.901 76.8038 129.654 77.9087 130.151 79.1343Z" fill="white"/>
<path d="M118.8 60.3303C120.472 60.3303 121.827 58.9754 121.827 57.304C121.827 55.6327 120.472 54.2776 118.8 54.2776C117.129 54.2776 115.774 55.6327 115.774 57.304C115.774 58.9754 117.129 60.3303 118.8 60.3303Z" fill="#D7E8F0"/>
<path d="M129.964 63.9924H107.933V64.5983H129.964V63.9924Z" fill="#D7E8F0"/>
<path d="M129.964 66.2339H107.933V66.8399H129.964V66.2339Z" fill="#D7E8F0"/>
<path d="M129.964 68.2776H107.933V68.8835H129.964V68.2776Z" fill="#D7E8F0"/>
<path d="M96.6634 76.651H79.4057V77.257H96.6634V76.651Z" fill="#D7E8F0"/>
<path d="M96.6634 79.0964H79.4057V79.7023H96.6634V79.0964Z" fill="#D7E8F0"/>
<path d="M96.6634 81.5402H79.4057V82.1462H96.6634V81.5402Z" fill="#D7E8F0"/>
<path d="M96.6634 83.9854H79.4057V84.5913H96.6634V83.9854Z" fill="#D7E8F0"/>
<path d="M96.6634 86.4305H79.4057V87.0364H96.6634V86.4305Z" fill="#D7E8F0"/>
<path d="M77.0382 59.4334C77.0382 59.4334 82.2831 67.6931 88.2597 70.289C94.2363 72.8849 96.1038 74.0322 98.3901 73.1035C100.676 72.1747 105.065 70.8734 108.158 61.68C111.251 52.4866 112.724 47.6474 112.833 45.4206C112.943 43.1939 106.794 45.0233 106.794 45.0233C106.794 45.0233 103.483 54.7829 96.228 59.1387L85.8955 48.2252L77.0382 59.4334Z" fill="white"/>
<path d="M70.9095 72.1266L75.1312 73.2723C75.1312 73.2723 70.229 80.032 74.5882 87.1096C78.9473 94.1872 87.9238 108.466 87.9238 108.466L105.105 135.783L89.0363 133.543L77.0384 120.401L70.9128 114.294L63.2359 90.3297L70.9095 72.1266Z" fill="white"/>
<path d="M1.97821 107.059C2.3578 107.265 2.79719 107.331 3.22042 107.246C3.64365 107.162 4.02415 106.932 4.29599 106.597L10.5441 98.937L15.5853 92.6094L11.458 90.2916C11.0305 90.05 10.5246 89.9883 10.0516 90.1196C9.57843 90.2508 9.17679 90.5646 8.93491 90.9919L1.24314 104.501C1.12061 104.717 1.04238 104.955 1.01306 105.201C0.98374 105.447 1.0039 105.697 1.07238 105.935C1.14085 106.173 1.25626 106.395 1.41182 106.589C1.56738 106.782 1.75994 106.941 1.97821 107.059Z" fill="#2E2E2E"/>
<path d="M97.084 143.192L102.284 148.308C102.733 148.75 103.338 148.999 103.968 149H116.972C117.376 149.002 117.771 148.886 118.11 148.667C118.448 148.448 118.716 148.134 118.88 147.766C119.043 147.397 119.096 146.989 119.032 146.591C118.968 146.192 118.789 145.821 118.517 145.523C118.175 145.141 117.703 144.9 117.193 144.848L109.979 144.108L97.084 143.192Z" fill="#2E2E2E"/>
<path d="M49.5955 79.2068C49.5955 79.2068 59.6531 82.0048 66.3582 82.8392C73.0632 83.6736 72.5931 80.8922 72.5931 80.8922L73.4126 77.3791C75.5648 73.8726 76.8148 66.4126 76.8148 66.4126L77.679 60.5767L78.9405 62.7968L83.0182 66.9043L83.0679 66.944C82.9437 64.9822 83.0381 62.2256 83.495 58.4708C84.5479 49.779 88.0346 50.7873 88.0346 50.7873L87.523 50.2261C85.1142 46.2179 77.424 41.9813 74.9671 40.9681C72.5103 39.9549 73.5616 41.3903 73.8745 42.4581C74.1874 43.5259 73.2934 46.5308 69.7124 45.0011C66.1314 43.4713 65.9509 40.1436 65.9509 40.1436H64.2871C54.0804 41.3704 48.8902 46.8139 48.8902 46.8139C59.7326 49.3718 57.2442 58.5685 57.2442 58.5685L56.2608 59.4675C52.4116 62.8051 52.1434 66.0235 52.4762 67.3645C52.809 68.7055 55.1831 70.5101 59.4693 71.5564C63.7556 72.6028 64.5354 72.6044 65.5039 70.7518C66.4724 68.8993 67.6015 68.6708 69.1462 68.3927C70.6908 68.1145 72.5831 69.2122 72.151 70.0764C71.7189 70.9406 71.406 70.1856 72.4821 72.52C73.5583 74.8543 73.0583 76.0414 70.1643 78.192C67.2704 80.3426 54.4033 79.1357 54.4033 79.1357C48.2495 77.4337 49.5955 79.2068 49.5955 79.2068Z" fill="#2E2E2E"/>
<path d="M73.1199 40.1988V40.5514V40.6408C75.9966 41.3597 78.7058 42.6316 81.0964 44.3857C81.4838 44.6688 81.8613 44.9569 82.2338 45.2599C82.2437 44.043 82.1394 42.8212 81.7471 41.6689C81.4292 40.6801 80.8304 39.8053 80.0236 39.1508C79.3134 38.5846 78.474 38.222 77.6297 37.8942C76.7853 37.5664 75.9559 37.2784 75.1811 36.8363C74.5281 36.4792 73.9578 35.9883 73.5073 35.396C73.3493 35.1817 73.2508 34.9296 73.2217 34.665C73.1927 34.4005 73.2341 34.1329 73.3417 33.8894C73.2656 33.8841 73.1906 33.8692 73.1182 33.8447L73.1199 40.1988Z" fill="#5F62E2"/>
<path d="M73.1199 40.1988V40.5514V40.6408C75.9966 41.3597 78.7058 42.6316 81.0964 44.3857C81.4838 44.6688 81.8613 44.9569 82.2338 45.2599C82.2437 44.043 82.1394 42.8212 81.7471 41.6689C81.4292 40.6801 80.8304 39.8053 80.0236 39.1508C79.3134 38.5846 78.474 38.222 77.6297 37.8942C76.7853 37.5664 75.9559 37.2784 75.1811 36.8363C74.5281 36.4792 73.9578 35.9883 73.5073 35.396C73.3493 35.1817 73.2508 34.9296 73.2217 34.665C73.1927 34.4005 73.2341 34.1329 73.3417 33.8894C73.2656 33.8841 73.1906 33.8692 73.1182 33.8447L73.1199 40.1988Z" fill="#5F62E2"/>
<path d="M33.3742 67.6847C34.4551 68.4582 35.6568 69.0473 36.9304 69.4281C37.4782 69.5969 38.0348 69.7362 38.5976 69.8453C36.3741 64.6054 38.038 57.7116 45.0543 50.3608C46.2556 49.1001 47.5347 47.9157 48.8836 46.8146C51.064 45.0415 53.001 43.7203 55.2857 42.6575C56.3085 42.1855 57.359 41.7759 58.4313 41.4307C60.3327 40.7978 62.2954 40.3665 64.2871 40.1443C64.739 40.0897 65.186 40.0499 65.638 40.0251C65.5278 39.2488 65.5496 38.4596 65.7026 37.6907C66.1198 35.5799 66.8466 34.3664 68.1677 32.7025C68.9955 31.6545 70.2885 29.1513 68.5651 28.2871C67.4774 27.7457 67.378 26.6315 67.8896 25.9693C68.3217 25.3931 69.1958 25.1299 70.2736 25.8037C71.0186 26.2805 71.9027 26.3103 72.757 26.0769C73.4205 25.6903 73.9957 25.1693 74.4457 24.5471C75.6973 22.7542 75.742 20.0374 73.7834 18.7212C72.7156 18.001 71.3547 17.8272 70.0783 17.9662C69.5068 18.029 68.9434 18.1522 68.3979 18.3338C68.3955 18.3326 68.3929 18.3321 68.3904 18.3321C68.3878 18.3321 68.3853 18.3326 68.383 18.3338C66.0652 19.5804 64.4179 21.885 63.6232 24.4826C63.1563 26.0173 62.6298 27.5371 62.014 29.0271C61.5074 30.2489 61.1547 31.734 60.0273 32.5684C59.5561 32.9169 59.0212 33.17 58.4528 33.3134C56.3221 34.6644 53.3669 33.8846 51.0375 33.5965C49.1752 33.3419 47.279 33.5324 45.5046 34.1528C43.5179 35.1577 41.8094 36.762 40.4236 38.848C38.134 42.2999 40.5577 47.2765 36.7284 49.9983C35.5695 50.8178 34.2451 51.3144 32.9785 51.9502C31.1707 52.869 29.7104 54.1753 29.1707 56.1868C28.1045 60.2446 30.0018 65.2362 33.3742 67.6847Z" fill="#5F62E2"/>
<path d="M127.005 149H36.4058" stroke="black" stroke-miterlimit="10"/>
<path d="M76.4423 22.9126C76.675 23.3951 76.874 23.8929 77.0383 24.4026C77.2767 25.2304 77.0184 25.7437 77.381 26.5334C77.5051 26.8065 77.6839 27.2684 77.8776 27.7353C77.9323 27.626 77.9819 27.5366 78.0117 27.4671C79.4322 24.3033 77.5647 22.7785 76.6658 22.257C76.6085 22.4812 76.5338 22.7004 76.4423 22.9126Z" fill="#5F62E2"/>
<path d="M76.4423 22.9126C76.675 23.3951 76.874 23.8929 77.0383 24.4026C77.2767 25.2304 77.0184 25.7437 77.381 26.5334C77.5051 26.8065 77.6839 27.2684 77.8776 27.7353C77.9323 27.626 77.9819 27.5366 78.0117 27.4671C79.4322 24.3033 77.5647 22.7785 76.6658 22.257C76.6085 22.4812 76.5338 22.7004 76.4423 22.9126Z" fill="#5F62E2"/>
<path d="M44.9671 76.2871C44.0996 83.1279 44.8015 94.9951 58.811 104.074C61.3324 105.708 63.6022 108.016 65.8257 110.011C71.8898 115.491 77.6589 121.289 83.1082 127.381C86.4441 131.08 89.8497 134.967 93.232 138.712C94.9659 140.626 96.7186 142.522 98.4901 144.401C99.7947 145.776 101.864 148.998 103.962 148.998H116.852C118.011 148.998 119.064 148.05 119.047 146.886C119.038 146.383 118.848 145.9 118.511 145.526C118.169 145.144 117.697 144.903 117.186 144.851L109.973 144.111L75.1217 88.6857C73.3237 85.8249 71.7294 81.1164 73.1201 78.0321C78.4179 66.3007 77.9627 54.9302 77.9627 54.9302" stroke="black" stroke-miterlimit="10"/>
<path d="M63.0113 107.64C61.4915 112.979 59.0379 118.401 57.0115 121.815C56.2773 123.061 55.3092 124.154 54.1606 125.034C50.0084 128.214 44.1394 127.875 40.1578 124.486L20.3555 107.63L10.5462 98.9368L4.29808 106.597C4.00272 106.957 3.5832 107.192 3.12254 107.257C2.66189 107.323 2.19351 107.213 1.80988 106.95C1.42625 106.686 1.15525 106.289 1.05041 105.836C0.945559 105.382 1.01448 104.906 1.24355 104.501L8.93699 90.995C9.17887 90.5677 9.58051 90.254 10.0537 90.1227C10.5267 89.9914 11.0326 90.0532 11.4601 90.2947L15.5874 92.6125L39.2356 105.857C39.629 106.077 40.069 106.201 40.5195 106.218C40.9702 106.235 41.4182 106.144 41.8269 105.954C42.2357 105.764 42.5936 105.48 42.8709 105.124C43.1484 104.769 43.3375 104.353 43.4226 103.91L46.2238 89.2219" stroke="black" stroke-miterlimit="10"/>
<path d="M73.1197 32.861V40.1455V40.4981V40.5875C73.8697 41.6802 74.2472 43.2364 73.5319 44.3953C72.5734 45.9499 70.4575 45.6917 69.1165 44.8225C68.7218 44.5672 68.345 44.2851 67.9891 43.9781C66.7954 42.9411 66.0228 41.5029 65.817 39.9352C65.7067 39.1589 65.7286 38.3697 65.8815 37.6009C66.3021 35.4917 67.0272 34.2798 68.35 32.611C69.1778 31.568 70.4691 29.0614 68.744 28.1972C66.7226 27.189 68.1232 24.2387 70.4526 25.7139C72.2605 26.8612 74.8581 25.4308 75.9309 23.8927C77.1825 22.0997 77.2272 19.383 75.2686 18.0668C74.2008 17.3466 72.8399 17.1728 71.5635 17.3118C67.6745 17.739 64.9064 20.7786 63.7988 24.3944C63.332 25.9291 62.8055 27.4489 62.1896 28.9389C61.683 30.1607 61.3304 31.6458 60.2029 32.4802C58.0507 34.0844 54.9481 33.2451 52.5194 32.9471C47.4633 32.3262 43.3856 34.5662 40.5993 38.7598C38.3096 42.2116 40.7334 47.1883 36.9041 49.9101C35.7452 50.7296 34.4207 51.2262 33.1542 51.862C31.3463 52.7808 29.8861 54.0871 29.3546 56.0986C28.2818 60.1514 30.1824 65.143 33.5515 67.5916C35.0962 68.714 36.9041 69.3846 38.7815 69.7521" stroke="black" stroke-miterlimit="10"/>
<path d="M83.1014 46.2034C83.1113 46.1107 83.1146 46.0213 83.1196 45.9335C83.204 44.3326 83.1941 42.6737 82.6726 41.1324C82.3525 40.1447 81.7534 39.2705 80.9475 38.6159C80.2356 38.0514 79.3962 37.6855 78.5552 37.3577C77.7141 37.0299 76.8797 36.7451 76.1066 36.3014C75.4521 35.9458 74.8813 35.4541 74.4328 34.8594C74.2757 34.6459 74.1775 34.3945 74.1485 34.1308C74.1194 33.8672 74.1604 33.6005 74.2672 33.3578" stroke="black" stroke-miterlimit="10"/>
<path d="M71.552 31.2187C72.138 32.0564 72.9327 32.9604 73.9343 33.2865C75.2307 33.7087 76.1031 32.6077 76.5684 31.5366C76.8465 30.8992 77.0385 30.2204 77.2637 29.5615C77.3365 29.3446 77.3812 29.2403 77.6296 29.2304C77.8779 29.2204 78.1395 29.2701 78.3945 29.2701C78.4127 29.2696 78.4304 29.2643 78.4458 29.2549C78.4612 29.2454 78.4739 29.232 78.4825 29.2159C78.491 29.1999 78.4953 29.182 78.4946 29.1638C78.494 29.1458 78.4885 29.128 78.4789 29.1128C78.1362 28.5913 77.6246 27.1692 77.3663 26.5996C77.0071 25.8099 77.267 25.2984 77.0253 24.4689C76.8607 23.9597 76.6629 23.4618 76.4326 22.9789" stroke="black" stroke-miterlimit="10"/>
<path d="M76.8148 21.4476C76.8148 21.4476 80.3495 22.8035 78.5234 26.8779C78.4108 27.1245 78.1343 27.6394 78.0035 27.8712" stroke="black" stroke-miterlimit="10"/>
<path d="M114.941 9.83057C114.941 9.83057 114.961 9.84068 115.002 9.85584L114.941 9.83057Z" fill="#5F62E2"/>
<path d="M76.6201 31.419C76.3371 31.4579 76.0497 31.3922 75.8116 31.2344C75.5736 31.0765 75.4014 30.8373 75.3271 30.5614" stroke="black" stroke-miterlimit="10"/>
<path d="M77.2173 25.9624C76.4855 25.3664 75.6826 26.128 75.1925 26.681" stroke="black" stroke-miterlimit="10"/>
<path d="M65.8216 39.9368C63.3674 40.0923 60.9434 40.5635 58.6099 41.3391C54.8021 42.5874 52.1797 44.1983 49.0688 46.723C47.72 47.8263 46.4411 49.0124 45.2395 50.2742C38.2166 57.625 36.556 64.5221 38.7828 69.7603C40.5923 74.0284 44.7644 76.6756 49.039 78.0249C51.8353 78.9057 54.7491 79.2848 57.6728 79.3693C61.1578 79.4686 64.6726 79.3362 68.103 78.6739C69.5483 78.3958 71.2138 78.1673 72.0763 76.8246C72.9389 75.482 73.0117 73.6708 72.371 72.2321C71.77 70.8927 70.1476 69.4524 68.6807 70.5037C68.5182 70.6211 68.3844 70.7739 68.2894 70.9505C68.1945 71.1273 68.1409 71.3232 68.1328 71.5235" stroke="black" stroke-miterlimit="10"/>
<path d="M63.1714 48.7941C63.3535 54.284 58.7013 57.3451 58.7013 57.3451C57.1584 58.5951 55.6584 59.9378 54.3969 61.4758C53.5906 62.4575 52.8423 63.5568 52.4714 64.7869C52.1941 65.6258 52.1989 66.5321 52.4847 67.368C52.8007 68.141 53.3231 68.8121 53.9946 69.3083C55.2495 70.2901 56.7759 70.7983 58.2891 71.2387C59.9564 71.7158 61.6547 72.0776 63.3717 72.3214C64.3651 72.4638 64.7839 72.1559 65.2375 71.2966C65.6481 70.5185 65.9842 69.6179 66.7441 69.1096C67.7971 68.4027 69.2109 68.2388 70.4294 68.5302C72.3085 68.9772 72.7886 70.4672 71.2572 70.7685" stroke="black" stroke-miterlimit="10"/>
<path d="M62.0244 86.0396L33.474 79.1408L26.6796 107.259L54.4385 114.159L55.3292 113.751L62.0244 86.0396Z" fill="white"/>
<path d="M48.8508 82.0864C50.205 72.6066 53.1403 70.2623 55.0509 69.7938L54.925 69.7243C49.157 67.4793 45.1572 78.5866 44.3079 81.1842L48.8508 82.0864Z" fill="#D7E8F0"/>
<path d="M48.7711 82.8378C50.1254 73.358 53.1402 70.2554 55.0507 69.7935L54.9249 69.724C49.1569 67.479 44.9914 79.121 44.1388 81.717L48.7711 82.8378Z" fill="#D7E8F0"/>
<path d="M54.9249 69.7241C48.4019 67.1878 44.1388 81.7171 44.1388 81.7171L48.7744 82.8379C51.468 68.2689 57.2476 70.9178 57.2476 70.9178C57.044 70.8565 54.9249 69.7241 54.9249 69.7241Z" stroke="black" stroke-miterlimit="10"/>
<path d="M33.1559 80.4811L26.6804 107.268L49.2046 112.713L55.6801 85.9261L33.1559 80.4811Z" fill="#5F62E2"/>
<path d="M33.4991 79.0632L26.6804 107.269L50.397 113.003L57.2156 84.7964L33.4991 79.0632Z" fill="white"/>
<path d="M33.6113 81.2083L27.7386 105.501C27.5723 106.19 27.9956 106.883 28.6843 107.05L48.7144 111.892C49.4031 112.058 50.0965 111.635 50.263 110.946L56.1355 86.6534C56.3021 85.9645 55.8786 85.2711 55.1899 85.1047L35.1599 80.2627C34.4712 80.0961 33.7778 80.5195 33.6113 81.2083Z" fill="#5F62E2"/>
<path d="M33.4786 79.1509L26.6813 107.269L50.398 113.002L57.1951 84.8842L33.4786 79.1509Z" stroke="black" stroke-miterlimit="10"/>
<path d="M57.2943 84.9065L50.497 113.024L55.2315 114.169L62.0286 86.051L57.2943 84.9065Z" fill="white"/>
<path d="M57.2943 84.9065L50.497 113.024L55.2315 114.169L62.0286 86.051L57.2943 84.9065Z" stroke="black" stroke-miterlimit="10"/>
<path d="M55.2294 114.16L53.7046 110.238L50.4944 113.016" stroke="black" stroke-miterlimit="10"/>
<path d="M59.658 85.469L53.7046 110.238" stroke="black" stroke-miterlimit="10"/>
<path d="M111.885 39.856C111.796 39.8709 111.72 39.8858 111.622 39.9057C110.726 40.0619 109.877 40.4186 109.139 40.9487C108.329 41.5745 107.594 42.6622 107.236 43.5976C106.696 45.0181 106.101 46.4154 105.453 47.7895C104.475 49.9078 103.312 51.9354 101.977 53.8489C100.591 55.7958 98.9271 57.7693 96.8311 58.9812C96.568 59.1401 96.2909 59.2749 96.0033 59.3835C95.6507 59.5325 90.689 53.8241 90.1426 53.1883C87.9523 50.6404 85.6875 48.1173 83.1197 45.9369C82.469 45.3806 81.7952 44.8442 81.1032 44.3426C78.7109 42.587 76.0001 41.3134 73.1217 40.5927" stroke="black" stroke-miterlimit="10"/>
<path d="M120.812 39.647C120.821 39.6495 120.832 39.6495 120.841 39.647C123.136 39.9153 122.237 42.3887 120.623 42.3092C118.84 42.2198 117.062 42.3092 115.284 42.339C114.794 42.3229 114.306 42.4127 113.853 42.6022C112.959 43.0294 112.875 43.983 112.741 44.8472C112.562 45.9796 112.358 47.112 112.118 48.2345C111.651 50.4596 111.075 52.6549 110.415 54.8303C109.988 56.2409 109.516 57.6448 109.019 59.0338C107.569 63.1264 105.741 67.4673 102.667 70.6228C100.968 72.3711 98.7429 73.6624 96.2347 73.4737C92.7034 73.2105 89.3061 71.4374 86.3112 69.4209C86.2986 69.4123 86.2869 69.4023 86.2764 69.3911C85.1586 68.6386 84.0871 67.8193 83.0679 66.9375C83.0679 66.9375 78.9406 63.2621 77.679 60.5702" stroke="black" stroke-miterlimit="10"/>
<path d="M127.337 37.4227V37.6545C127.337 39.2538 126.049 39.5286 124.936 39.5551L103.402 40.0517C102.459 40.0766 101.666 39.2504 101.646 38.219V38.176C101.646 37.1644 102.387 36.3234 103.32 36.3002C103.32 36.3002 115.365 35.9608 124.695 35.7042C124.872 36.2688 125.306 36.7058 125.844 37.0469C126.293 37.3172 126.813 37.448 127.337 37.4227Z" stroke="black" stroke-miterlimit="10"/>
<path d="M138.777 14.6365C138.777 14.9001 138.714 15.1598 138.595 15.3948L128.971 35.1375C128.858 35.3656 128.697 35.5666 128.499 35.7265C128.301 35.8866 128.07 36.0018 127.823 36.0646C127.426 36.1652 127.005 36.1217 126.636 35.9421C126.342 35.7971 126.093 35.5724 125.92 35.2936C125.746 35.0146 125.654 34.6928 125.655 34.3643C125.656 34.1016 125.716 33.8426 125.83 33.6061L135.459 13.8617C135.634 13.5091 135.923 13.226 136.279 13.0581C136.635 12.8904 137.037 12.8478 137.421 12.9372C137.804 13.0268 138.146 13.2432 138.391 13.5513C138.636 13.8594 138.769 14.2412 138.77 14.6349L138.777 14.6365Z" stroke="black" stroke-miterlimit="10"/>
<path d="M112.589 10.5758C115.509 10.5758 117.877 8.20833 117.877 5.2879C117.877 2.36747 115.509 0 112.589 0C109.668 0 107.301 2.36747 107.301 5.2879C107.301 8.20833 109.668 10.5758 112.589 10.5758Z" fill="#5F62E2"/>
<path d="M110.908 7.10719C110.733 7.04156 110.569 6.94943 110.421 6.83402C110.162 6.63833 109.984 6.3541 109.92 6.03539C109.857 5.71669 109.912 5.38578 110.077 5.1056C110.184 4.92366 110.333 4.76914 110.51 4.65423C110.687 4.5393 110.889 4.46712 111.099 4.44337C110.982 4.16999 110.958 3.86616 111.03 3.57783C111.101 3.28949 111.265 3.03235 111.496 2.84528C111.727 2.65822 112.012 2.55144 112.309 2.54105C112.606 2.53069 112.898 2.61729 113.142 2.7878C113.653 3.14375 114.007 3.77121 114.224 4.34404C114.336 4.64484 114.418 4.95592 114.469 5.27282C114.494 5.43837 114.663 6.34894 114.531 6.44165C113.656 7.04759 112.029 7.53433 110.908 7.10719Z" fill="white"/>
<g opacity="0.72">
<path opacity="0.72" d="M108.127 21.6064C109.734 21.6064 111.037 20.3035 111.037 18.6959C111.037 17.0885 109.734 15.7854 108.127 15.7854C106.519 15.7854 105.216 17.0885 105.216 18.6959C105.216 20.3035 106.519 21.6064 108.127 21.6064Z" fill="#5F62E2"/>
<path opacity="0.72" d="M108.703 19.9309C108.633 20.0071 108.551 20.0718 108.461 20.123C108.307 20.213 108.125 20.2438 107.95 20.2094C107.775 20.1749 107.618 20.0778 107.509 19.9359C107.438 19.843 107.389 19.7349 107.367 19.6198C107.345 19.5049 107.35 19.3864 107.382 19.2736C107.219 19.2746 107.06 19.2228 106.929 19.126C106.798 19.029 106.702 18.8922 106.655 18.7361C106.609 18.5798 106.614 18.4127 106.67 18.2599C106.727 18.107 106.831 17.9765 106.968 17.8879C107.278 17.7161 107.632 17.6379 107.986 17.6628C108.163 17.6677 108.339 17.6911 108.511 17.7323C108.599 17.7522 109.099 17.8581 109.118 17.9442C109.246 18.5187 109.155 19.4508 108.703 19.9309Z" fill="white"/>
</g>
<path d="M124.512 12.344L121.656 13.8666C120.62 14.4187 120.228 15.7064 120.78 16.7423L122.303 19.5985C122.855 20.6346 124.142 21.0268 125.178 20.4745L128.035 18.952C129.071 18.3997 129.463 17.1122 128.911 16.0761L127.388 13.2199C126.836 12.184 125.548 11.7918 124.512 12.344Z" fill="#5F62E2"/>
<path d="M125.656 19.6629L127.723 18.5603C128.155 18.3288 128.477 17.9363 128.619 17.4683C128.762 17.0001 128.714 16.4946 128.485 16.062L127.161 13.5787C126.929 13.1472 126.537 12.8249 126.069 12.6822C125.6 12.5395 125.095 12.588 124.662 12.8171L124.523 12.8916C124.007 13.6085 123.32 14.8353 124.358 15.221C125.848 15.7789 125.412 16.615 124.854 17.6862C124.381 18.5851 124.26 19.6364 125.656 19.6629Z" fill="white"/>
<path d="M122.436 16.6565C122.868 16.6565 123.217 16.3066 123.217 15.8751C123.217 15.4435 122.868 15.0937 122.436 15.0937C122.004 15.0937 121.654 15.4435 121.654 15.8751C121.654 16.3066 122.004 16.6565 122.436 16.6565Z" fill="white"/>
<path d="M112.811 29.6989C113.1 29.8396 113.409 29.9378 113.726 29.9903C114.309 30.0797 114.906 30.0163 115.457 29.8062C116.009 29.5961 116.496 29.2466 116.872 28.7916C117.162 28.4307 117.378 27.9788 117.683 27.6145C117.891 27.3488 118.17 27.147 118.488 27.0318C118.597 27.0086 118.698 26.9591 118.784 26.8877C118.993 26.6725 118.638 26.4904 118.567 26.3166C118.46 26.0361 118.46 25.7262 118.567 25.4457C118.839 24.7085 118.847 23.8998 118.589 23.1574C118.331 22.415 117.824 21.7851 117.153 21.375C116.483 20.9648 115.691 20.7999 114.913 20.9081C114.135 21.0166 113.418 21.3916 112.885 21.969C112.359 22.5369 112.043 23.262 111.715 23.9557C111.423 24.5732 111.114 25.1875 110.953 25.8513C110.581 27.4241 111.422 29.0218 112.811 29.6989Z" fill="#5F62E2"/>
<path d="M115.767 24.1115C116.174 24.1115 116.504 23.7817 116.504 23.3747C116.504 22.9678 116.174 22.638 115.767 22.638C115.36 22.638 115.031 22.9678 115.031 23.3747C115.031 23.7817 115.36 24.1115 115.767 24.1115Z" fill="white"/>
<path d="M114.802 26.1448C115.209 26.1448 115.539 25.815 115.539 25.4081C115.539 25.0013 115.209 24.6713 114.802 24.6713C114.395 24.6713 114.065 25.0013 114.065 25.4081C114.065 25.815 114.395 26.1448 114.802 26.1448Z" fill="white"/>
<path d="M113.897 28.052C114.304 28.052 114.633 27.722 114.633 27.3152C114.633 26.9083 114.304 26.5785 113.897 26.5785C113.49 26.5785 113.16 26.9083 113.16 27.3152C113.16 27.722 113.49 28.052 113.897 28.052Z" fill="white"/>
<g opacity="0.54">
<path opacity="0.54" d="M96.212 32.7004C96.4358 32.6708 96.6572 32.6249 96.8742 32.563L99.3675 31.861C100.131 31.6458 100.934 31.4074 101.475 30.8263C102.478 29.7485 102.154 28.0367 101.765 26.6162C101.448 25.454 101.131 24.2917 100.813 23.1295C100.594 22.3282 100.369 21.5137 99.9337 20.8117C99.4983 20.1098 98.8096 19.5071 97.9884 19.378C97.3841 19.2836 96.7716 19.4459 96.1805 19.6065L93.7882 20.2687C93.0035 20.4823 92.1757 20.7223 91.6261 21.3233C90.6493 22.3911 90.9638 24.0666 91.338 25.4622L92.2933 29.03C92.8793 31.174 93.977 32.9818 96.212 32.7004Z" fill="#5F62E2"/>
<path opacity="0.54" d="M96.0462 27.8347C96.1938 27.9789 96.3769 28.0816 96.5769 28.1326C96.7769 28.1836 96.9867 28.1809 97.1855 28.1251C97.3842 28.0692 97.5646 27.962 97.7087 27.8142C97.8527 27.6665 97.9555 27.4834 98.0064 27.2834L98.2845 26.1941L98.561 25.103C98.6118 24.903 98.609 24.6931 98.5529 24.4946C98.4969 24.2959 98.3896 24.1157 98.2418 23.9718C98.0939 23.8277 97.9108 23.7253 97.7108 23.6744C97.5108 23.6238 97.3009 23.6264 97.1024 23.6826L96.0213 23.9872L94.9386 24.2918C94.7402 24.3483 94.5604 24.456 94.4169 24.604C94.2734 24.7521 94.1714 24.9353 94.1211 25.1353C94.0707 25.3351 94.0739 25.5449 94.1302 25.7432C94.1866 25.9416 94.2941 26.1215 94.4419 26.2652L95.2482 27.05L96.0462 27.8347Z" fill="white"/>
</g>
</svg>
